<svg id="ref-ext-fixtures-cypress-er-13" width="100%" xmlns="http://www.w3.org/2000/svg" class="erDiagram" style="max-width: 32896px;" viewBox="-8 -8 32896 30" role="graphics-document document" aria-roledescription="er"><style>#ref-ext-fixtures-cypress-er-13{font-family:"trebuchet ms",verdana,arial,sans-serif;font-size:16px;fill:#333;}@keyframes edge-animation-frame{from{stroke-dashoffset:0;}}@keyframes dash{to{stroke-dashoffset:0;}}#ref-ext-fixtures-cypress-er-13 .edge-animation-slow{stroke-dasharray:9,5!important;stroke-dashoffset:900;animation:dash 50s linear infinite;stroke-linecap:round;}#ref-ext-fixtures-cypress-er-13 .edge-animation-fast{stroke-dasharray:9,5!important;stroke-dashoffset:900;animation:dash 20s linear infinite;stroke-linecap:round;}#ref-ext-fixtures-cypress-er-13 .error-icon{fill:#552222;}#ref-ext-fixtures-cypress-er-13 .error-text{fill:#552222;stroke:#552222;}#ref-ext-fixtures-cypress-er-13 .edge-thickness-normal{stroke-width:1px;}#ref-ext-fixtures-cypress-er-13 .edge-thickness-thick{stroke-width:3.5px;}#ref-ext-fixtures-cypress-er-13 .edge-pattern-solid{stroke-dasharray:0;}#ref-ext-fixtures-cypress-er-13 .edge-thickness-invisible{stroke-width:0;fill:none;}#ref-ext-fixtures-cypress-er-13 .edge-pattern-dashed{stroke-dasharray:3;}#ref-ext-fixtures-cypress-er-13 .edge-pattern-dotted{stroke-dasharray:2;}#ref-ext-fixtures-cypress-er-13 .marker{fill:#333333;stroke:#333333;}#ref-ext-fixtures-cypress-er-13 .marker.cross{stroke:#333333;}#ref-ext-fixtures-cypress-er-13 svg{font-family:"trebuchet ms",verdana,arial,sans-serif;font-size:16px;}#ref-ext-fixtures-cypress-er-13 p{margin:0;}#ref-ext-fixtures-cypress-er-13 .entityBox{fill:#ECECFF;stroke:#9370DB;}#ref-ext-fixtures-cypress-er-13 .relationshipLabelBox{fill:hsl(80, 100%, 96.2745098039%);opacity:0.7;background-color:hsl(80, 100%, 96.2745098039%);}#ref-ext-fixtures-cypress-er-13 .relationshipLabelBox rect{opacity:0.5;}#ref-ext-fixtures-cypress-er-13 .labelBkg{background-color:rgba(248.6666666666, 255, 235.9999999999, 0.5);}#ref-ext-fixtures-cypress-er-13 .edgeLabel{background-color:rgba(232,232,232, 0.8);}#ref-ext-fixtures-cypress-er-13 .edgeLabel .label rect{fill:rgba(232,232,232, 0.8);}#ref-ext-fixtures-cypress-er-13 .edgeLabel .label text{fill:#333;}#ref-ext-fixtures-cypress-er-13 .edgeLabel .label{fill:#9370DB;font-size:14px;}#ref-ext-fixtures-cypress-er-13 .label{font-family:"trebuchet ms",verdana,arial,sans-serif;color:#333;}#ref-ext-fixtures-cypress-er-13 .edge-pattern-dashed{stroke-dasharray:8,8;}#ref-ext-fixtures-cypress-er-13 .node rect,#ref-ext-fixtures-cypress-er-13 .node circle,#ref-ext-fixtures-cypress-er-13 .node ellipse,#ref-ext-fixtures-cypress-er-13 .node polygon{fill:#ECECFF;stroke:#9370DB;stroke-width:1px;}#ref-ext-fixtures-cypress-er-13 .relationshipLine{stroke:#333333;stroke-width:1px;fill:none;}#ref-ext-fixtures-cypress-er-13 .marker{fill:none!important;stroke:#333333!important;stroke-width:1;}#ref-ext-fixtures-cypress-er-13 [data-look=neo].labelBkg{background-color:rgba(248.6666666666, 255, 235.9999999999, 0.5);}#ref-ext-fixtures-cypress-er-13 .node .neo-node{stroke:#9370DB;}#ref-ext-fixtures-cypress-er-13 [data-look="neo"].node rect,#ref-ext-fixtures-cypress-er-13 [data-look="neo"].cluster rect,#ref-ext-fixtures-cypress-er-13 [data-look="neo"].node polygon{stroke:#9370DB;filter:drop-shadow(1px 2px 2px rgba(185, 185, 185, 1));}#ref-ext-fixtures-cypress-er-13 [data-look="neo"].node path{stroke:#9370DB;stroke-width:1px;}#ref-ext-fixtures-cypress-er-13 [data-look="neo"].node .outer-path{filter:drop-shadow(1px 2px 2px rgba(185, 185, 185, 1));}#ref-ext-fixtures-cypress-er-13 [data-look="neo"].node .neo-line path{stroke:#9370DB;filter:none;}#ref-ext-fixtures-cypress-er-13 [data-look="neo"].node circle{stroke:#9370DB;filter:drop-shadow(1px 2px 2px rgba(185, 185, 185, 1));}#ref-ext-fixtures-cypress-er-13 [data-look="neo"].node circle .state-start{fill:#000000;}#ref-ext-fixtures-cypress-er-13 [data-look="neo"].icon-shape .icon{fill:#9370DB;filter:drop-shadow(1px 2px 2px rgba(185, 185, 185, 1));}#ref-ext-fixtures-cypress-er-13 [data-look="neo"].icon-shape .icon-neo path{stroke:#9370DB;filter:drop-shadow(1px 2px 2px rgba(185, 185, 185, 1));}#ref-ext-fixtures-cypress-er-13 :root{--mermaid-font-family:"trebuchet ms",verdana,arial,sans-serif;}</style><g><defs><marker id="ref-ext-fixtures-cypress-er-13_er-onlyOneStart" class="marker onlyOne er" refX="0" refY="9" markerWidth="18" markerHeight="18" orient="auto"><path d="M9,0 L9,18 M15,0 L15,18"></path></marker></defs><defs><marker id="ref-ext-fixtures-cypress-er-13_er-onlyOneEnd" class="marker onlyOne er" refX="18" refY="9" markerWidth="18" markerHeight="18" orient="auto"><path d="M3,0 L3,18 M9,0 L9,18"></path></marker></defs><defs><marker id="ref-ext-fixtures-cypress-er-13_er-zeroOrOneStart" class="marker zeroOrOne er" refX="0" refY="9" markerWidth="30" markerHeight="18" orient="auto"><circle fill="white" cx="21" cy="9" r="6"></circle><path d="M9,0 L9,18"></path></marker></defs><defs><marker id="ref-ext-fixtures-cypress-er-13_er-zeroOrOneEnd" class="marker zeroOrOne er" refX="30" refY="9" markerWidth="30" markerHeight="18" orient="auto"><circle fill="white" cx="9" cy="9" r="6"></circle><path d="M21,0 L21,18"></path></marker></defs><defs><marker id="ref-ext-fixtures-cypress-er-13_er-oneOrMoreStart" class="marker oneOrMore er" refX="18" refY="18" markerWidth="45" markerHeight="36" orient="auto"><path d="M0,18 Q 18,0 36,18 Q 18,36 0,18 M42,9 L42,27"></path></marker></defs><defs><marker id="ref-ext-fixtures-cypress-er-13_er-oneOrMoreEnd" class="marker oneOrMore er" refX="27" refY="18" markerWidth="45" markerHeight="36" orient="auto"><path d="M3,9 L3,27 M9,18 Q27,0 45,18 Q27,36 9,18"></path></marker></defs><defs><marker id="ref-ext-fixtures-cypress-er-13_er-zeroOrMoreStart" class="marker zeroOrMore er" refX="18" refY="18" markerWidth="57" markerHeight="36" orient="auto"><circle fill="white" cx="48" cy="18" r="6"></circle><path d="M0,18 Q18,0 36,18 Q18,36 0,18"></path></marker></defs><defs><marker id="ref-ext-fixtures-cypress-er-13_er-zeroOrMoreEnd" class="marker zeroOrMore er" refX="39" refY="18" markerWidth="57" markerHeight="36" orient="auto"><circle fill="white" cx="9" cy="18" r="6"></circle><path d="M21,18 Q39,0 57,18 Q39,36 21,18"></path></marker></defs><g class="root"><g class="clusters"></g><g class="edgePaths"></g><g class="edgeLabels"></g><g class="nodes"><g class="node default " id="ref-ext-fixtures-cypress-er-13-entity-BOOK-0" data-look="classic" transform="translate(8, 15)"><g class="outer-path" style=""><path d="M-189 -37.5 L189 -37.5 L189 37.5 L-189 37.5" stroke="none" stroke-width="0" fill="#ECECFF"></path><path d="M-189 -37.5 C-94.40490954038367 -37.5, 0.19018091923265956 -37.5, 189 -37.5 M-189 -37.5 C-106.69916306642844 -37.5, -24.39832613285688 -37.5, 189 -37.5 M189 -37.5 C189 -13.425871916859027, 189 10.648256166281946, 189 37.5 M189 -37.5 C189 -10.27634596038909, 189 16.94730807922182, 189 37.5 M189 37.5 C56.687809511986785 37.5, -75.62438097602643 37.5, -189 37.5 M189 37.5 C47.065831461348864 37.5, -94.86833707730227 37.5, -189 37.5 M-189 37.5 C-189 19.39559322868454, -189 1.2911864573690792, -189 -37.5 M-189 37.5 C-189 14.517060509343558, -189 -8.465878981312883, -189 -37.5" stroke="#9370DB" stroke-width="1.3" fill="none" stroke-dasharray="0 0"></path></g><g style="" class="row-rect-odd"><path d="M-189 -18.75 L189 -18.75 L189 0 L-189 0" stroke="none" stroke-width="0" fill="hsl(240, 100%, 100%)"></path><path d="M-189 -18.75 C-76.8532349264901 -18.75, 35.293530147019794 -18.75, 189 -18.75 M-189 -18.75 C-109.6932265167397 -18.75, -30.3864530334794 -18.75, 189 -18.75 M189 -18.75 C189 -11.589433163657551, 189 -4.428866327315102, 189 0 M189 -18.75 C189 -11.658281293510486, 189 -4.566562587020972, 189 0 M189 0 C41.48842338883625 0, -106.0231532223275 0, -189 0 M189 0 C78.72637027823819 0, -31.547259443523615 0, -189 0 M-189 0 C-189 -5.6327473739113145, -189 -11.265494747822629, -189 -18.75 M-189 0 C-189 -5.92245818114125, -189 -11.8449163622825, -189 -18.75" stroke="#9370DB" stroke-width="1.3" fill="none" stroke-dasharray="0 0"></path></g><g style="" class="row-rect-even"><path d="M-189 0 L189 0 L189 18.75 L-189 18.75" stroke="none" stroke-width="0" fill="hsl(240, 100%, 97.2745098039%)"></path><path d="M-189 0 C-92.10783764620106 0, 4.784324707597875 0, 189 0 M-189 0 C-57.80907568147603 0, 73.38184863704794 0, 189 0 M189 0 C189 7.392076311325499, 189 14.784152622650998, 189 18.75 M189 0 C189 5.289747654163464, 189 10.579495308326928, 189 18.75 M189 18.75 C44.17648716415698 18.75, -100.64702567168604 18.75, -189 18.75 M189 18.75 C75.25414409778418 18.75, -38.491711804431645 18.75, -189 18.75 M-189 18.75 C-189 13.196050296896455, -189 7.642100593792913, -189 0 M-189 18.75 C-189 12.51236273299665, -189 6.274725465993301, -189 0" stroke="#9370DB" stroke-width="1.3" fill="none" stroke-dasharray="0 0"></path></g><g style="" class="row-rect-odd"><path d="M-189 18.75 L189 18.75 L189 37.5 L-189 37.5" stroke="none" stroke-width="0" fill="hsl(240, 100%, 100%)"></path><path d="M-189 18.75 C-83.52389585229457 18.75, 21.952208295410855 18.75, 189 18.75 M-189 18.75 C-98.1339953830155 18.75, -7.267990766031005 18.75, 189 18.75 M189 18.75 C189 25.101223299884516, 189 31.45244659976903, 189 37.5 M189 18.75 C189 25.606566932163695, 189 32.46313386432739, 189 37.5 M189 37.5 C49.038673106920186 37.5, -90.92265378615963 37.5, -189 37.5 M189 37.5 C101.2735361382945 37.5, 13.547072276589006 37.5, -189 37.5 M-189 37.5 C-189 33.30579388992496, -189 29.11158777984992, -189 18.75 M-189 37.5 C-189 30.052797878801034, -189 22.605595757602067, -189 18.75" stroke="#9370DB" stroke-width="1.3" fill="none" stroke-dasharray="0 0"></path></g><g class="label name" transform="translate(0, -28.125)" style=""><foreignObject width="0" height="0"><div style="display: table-cell; white-space: nowrap; line-height: 1.5; max-width: 132px; text-align: start;" xmlns="http://www.w3.org/1999/xhtml"><span class="nodeLabel "><p>BOOK</p></span></div></foreignObject></g><g class="label attribute-type" transform="translate(-176.5, -9.375)" style=""><foreignObject width="0" height="0"><div style="display: table-cell; white-space: nowrap; line-height: 1.5; max-width: 148px; text-align: start;" xmlns="http://www.w3.org/1999/xhtml"><span class="nodeLabel "><p>string</p></span></div></foreignObject></g><g class="label attribute-name" transform="translate(-151.5, -9.375)" style=""><foreignObject width="0" height="0"><div style="display: table-cell; white-space: nowrap; line-height: 1.5; max-width: 140px; text-align: start;" xmlns="http://www.w3.org/1999/xhtml"><span class="nodeLabel "><p>title</p></span></div></foreignObject></g><g class="label attribute-keys" transform="translate(-126.5, -9.375)" style=""><foreignObject width="0" height="0"><div style="display: table-cell; white-space: nowrap; line-height: 1.5; max-width: 100px; text-align: start;" xmlns="http://www.w3.org/1999/xhtml"><span class="nodeLabel "></span></div></foreignObject></g><g class="label attribute-comment" transform="translate(-126.5, -9.375)" style=""><foreignObject width="0" height="0"><div style="display: table-cell; white-space: nowrap; line-height: 1.5; max-width: 100px; text-align: start;" xmlns="http://www.w3.org/1999/xhtml"><span class="nodeLabel "></span></div></foreignObject></g><g class="label attribute-type" transform="translate(-176.5, 9.375)" style=""><foreignObject width="0" height="0"><div style="display: table-cell; white-space: nowrap; line-height: 1.5; max-width: 164px; text-align: start;" xmlns="http://www.w3.org/1999/xhtml"><span class="nodeLabel "><p>string[]</p></span></div></foreignObject></g><g class="label attribute-name" transform="translate(-151.5, 9.375)" style=""><foreignObject width="0" height="0"><div style="display: table-cell; white-space: nowrap; line-height: 1.5; max-width: 156px; text-align: start;" xmlns="http://www.w3.org/1999/xhtml"><span class="nodeLabel "><p>authors</p></span></div></foreignObject></g><g class="label attribute-keys" transform="translate(-126.5, 9.375)" style=""><foreignObject width="0" height="0"><div style="display: table-cell; white-space: nowrap; line-height: 1.5; max-width: 100px; text-align: start;" xmlns="http://www.w3.org/1999/xhtml"><span class="nodeLabel "></span></div></foreignObject></g><g class="label attribute-comment" transform="translate(-126.5, 9.375)" style=""><foreignObject width="0" height="0"><div style="display: table-cell; white-space: nowrap; line-height: 1.5; max-width: 100px; text-align: start;" xmlns="http://www.w3.org/1999/xhtml"><span class="nodeLabel "></span></div></foreignObject></g><g class="label attribute-type" transform="translate(-176.5, 28.125)" style=""><foreignObject width="0" height="0"><div style="display: table-cell; white-space: nowrap; line-height: 1.5; max-width: 204px; text-align: start;" xmlns="http://www.w3.org/1999/xhtml">type&lt;T&gt;</div></foreignObject></g><g class="label attribute-name" transform="translate(-151.5, 28.125)" style=""><foreignObject width="0" height="0"><div style="display: table-cell; white-space: nowrap; line-height: 1.5; max-width: 132px; text-align: start;" xmlns="http://www.w3.org/1999/xhtml"><span class="nodeLabel "><p>type</p></span></div></foreignObject></g><g class="label attribute-keys" transform="translate(-126.5, 28.125)" style=""><foreignObject width="0" height="0"><div style="display: table-cell; white-space: nowrap; line-height: 1.5; max-width: 100px; text-align: start;" xmlns="http://www.w3.org/1999/xhtml"><span class="nodeLabel "></span></div></foreignObject></g><g class="label attribute-comment" transform="translate(-126.5, 28.125)" style=""><foreignObject width="0" height="0"><div style="display: table-cell; white-space: nowrap; line-height: 1.5; max-width: 100px; text-align: start;" xmlns="http://www.w3.org/1999/xhtml"><span class="nodeLabel "></span></div></foreignObject></g><g class="divider"><path d="M-189 -18.75005 L-189 -18.74995 L189 -18.74995 L189 -18.75005" stroke="none" stroke-width="0" fill="#ECECFF" fill-rule="evenodd"></path><path d="M-189 -18.75005 C-189 -18.750017751035816, -189 -18.74998550207163, -189 -18.74995 M-189 -18.75005 C-189 -18.750024610947133, -189 -18.74999922189426, -189 -18.74995 M-189 -18.74995 C-60.12867389976577 -18.74995, 68.74265220046846 -18.74995, 189 -18.74995 M-189 -18.74995 C-85.26118585821938 -18.74995, 18.477628283561245 -18.74995, 189 -18.74995 M189 -18.74995 C189 -18.74997129233867, 189 -18.749992584677347, 189 -18.75005 M189 -18.74995 C189 -18.74998822499188, 189 -18.750026449983764, 189 -18.75005 M189 -18.75005 C87.66124035260475 -18.75005, -13.6775192947905 -18.75005, -189 -18.75005 M189 -18.75005 C66.44010138833546 -18.75005, -56.11979722332907 -18.75005, -189 -18.75005" stroke="#9370DB" stroke-width="1.3" fill="none" stroke-dasharray="0 0"></path></g><g class="divider"><path d="M-164.00005 -18.75 L-163.99995 -18.75 L-163.99995 37.5 L-164.00005 37.5" stroke="none" stroke-width="0" fill="#ECECFF" fill-rule="evenodd"></path><path d="M-164.00005 -18.75 C-164.0000262460814 -18.75, -164.0000024921628 -18.75, -163.99995 -18.75 M-164.00005 -18.75 C-164.00002703523322 -18.75, -164.00000407046642 -18.75, -163.99995 -18.75 M-163.99995 -18.75 C-163.99995 -2.5879430209460352, -163.99995 13.57411395810793, -163.99995 37.5 M-163.99995 -18.75 C-163.99995 1.0107723129654467, -163.99995 20.771544625930893, -163.99995 37.5 M-163.99995 37.5 C-163.99998428229065 37.5, -164.0000185645813 37.5, -164.00005 37.5 M-163.99995 37.5 C-163.999988633035 37.5, -164.00002726607002 37.5, -164.00005 37.5 M-164.00005 37.5 C-164.00005 17.692308103644432, -164.00005 -2.1153837927111354, -164.00005 -18.75 M-164.00005 37.5 C-164.00005 16.627995386293126, -164.00005 -4.244009227413748, -164.00005 -18.75" stroke="#9370DB" stroke-width="1.3" fill="none" stroke-dasharray="0 0"></path></g><g class="divider"><path d="M-189 -18.75005 L-189 -18.74995 L189 -18.74995 L189 -18.75005" stroke="none" stroke-width="0" fill="#ECECFF" fill-rule="evenodd"></path><path d="M-189 -18.75005 C-189 -18.750016107119603, -189 -18.749982214239203, -189 -18.74995 M-189 -18.75005 C-189 -18.750029281843336, -189 -18.75000856368667, -189 -18.74995 M-189 -18.74995 C-45.915220699491954 -18.74995, 97.16955860101609 -18.74995, 189 -18.74995 M-189 -18.74995 C-69.17785712224949 -18.74995, 50.644285755501016 -18.74995, 189 -18.74995 M189 -18.74995 C189 -18.749989432606533, 189 -18.750028865213064, 189 -18.75005 M189 -18.74995 C189 -18.749972126861984, 189 -18.749994253723973, 189 -18.75005 M189 -18.75005 C109.05271294250961 -18.75005, 29.10542588501923 -18.75005, -189 -18.75005 M189 -18.75005 C87.26203332693181 -18.75005, -14.475933346136372 -18.75005, -189 -18.75005" stroke="#9370DB" stroke-width="1.3" fill="none" stroke-dasharray="0 0"></path></g></g></g></g></g><defs><filter id="ref-ext-fixtures-cypress-er-13-drop-shadow" height="130%" width="130%"><feDropShadow dx="4" dy="4" stdDeviation="0" flood-opacity="0.06" flood-color="#000000"></feDropShadow></filter></defs><defs><filter id="ref-ext-fixtures-cypress-er-13-drop-shadow-small" height="150%" width="150%"><feDropShadow dx="2" dy="2" stdDeviation="0" flood-opacity="0.06" flood-color="#000000"></feDropShadow></filter></defs></svg>