<svg id="ref-ext-fixtures-cypress-er-53" width="100%" xmlns="http://www.w3.org/2000/svg" class="erDiagram" style="max-width: 182.716796875px;" viewBox="-91.3583984375 -78.09375 182.716796875 156.1875" role="graphics-document document" aria-roledescription="er"><style>#ref-ext-fixtures-cypress-er-53{font-family:"trebuchet ms",verdana,arial,sans-serif;font-size:16px;fill:#333;}@keyframes edge-animation-frame{from{stroke-dashoffset:0;}}@keyframes dash{to{stroke-dashoffset:0;}}#ref-ext-fixtures-cypress-er-53 .edge-animation-slow{stroke-dasharray:9,5!important;stroke-dashoffset:900;animation:dash 50s linear infinite;stroke-linecap:round;}#ref-ext-fixtures-cypress-er-53 .edge-animation-fast{stroke-dasharray:9,5!important;stroke-dashoffset:900;animation:dash 20s linear infinite;stroke-linecap:round;}#ref-ext-fixtures-cypress-er-53 .error-icon{fill:#552222;}#ref-ext-fixtures-cypress-er-53 .error-text{fill:#552222;stroke:#552222;}#ref-ext-fixtures-cypress-er-53 .edge-thickness-normal{stroke-width:1px;}#ref-ext-fixtures-cypress-er-53 .edge-thickness-thick{stroke-width:3.5px;}#ref-ext-fixtures-cypress-er-53 .edge-pattern-solid{stroke-dasharray:0;}#ref-ext-fixtures-cypress-er-53 .edge-thickness-invisible{stroke-width:0;fill:none;}#ref-ext-fixtures-cypress-er-53 .edge-pattern-dashed{stroke-dasharray:3;}#ref-ext-fixtures-cypress-er-53 .edge-pattern-dotted{stroke-dasharray:2;}#ref-ext-fixtures-cypress-er-53 .marker{fill:#333333;stroke:#333333;}#ref-ext-fixtures-cypress-er-53 .marker.cross{stroke:#333333;}#ref-ext-fixtures-cypress-er-53 svg{font-family:"trebuchet ms",verdana,arial,sans-serif;font-size:16px;}#ref-ext-fixtures-cypress-er-53 p{margin:0;}#ref-ext-fixtures-cypress-er-53 .entityBox{fill:#ECECFF;stroke:#9370DB;}#ref-ext-fixtures-cypress-er-53 .relationshipLabelBox{fill:hsl(80, 100%, 96.2745098039%);opacity:0.7;background-color:hsl(80, 100%, 96.2745098039%);}#ref-ext-fixtures-cypress-er-53 .relationshipLabelBox rect{opacity:0.5;}#ref-ext-fixtures-cypress-er-53 .labelBkg{background-color:rgba(248.6666666666, 255, 235.9999999999, 0.5);}#ref-ext-fixtures-cypress-er-53 .edgeLabel{background-color:rgba(232,232,232, 0.8);}#ref-ext-fixtures-cypress-er-53 .edgeLabel .label rect{fill:rgba(232,232,232, 0.8);}#ref-ext-fixtures-cypress-er-53 .edgeLabel .label text{fill:#333;}#ref-ext-fixtures-cypress-er-53 .edgeLabel .label{fill:#9370DB;font-size:14px;}#ref-ext-fixtures-cypress-er-53 .label{font-family:"trebuchet ms",verdana,arial,sans-serif;color:#333;}#ref-ext-fixtures-cypress-er-53 .edge-pattern-dashed{stroke-dasharray:8,8;}#ref-ext-fixtures-cypress-er-53 .node rect,#ref-ext-fixtures-cypress-er-53 .node circle,#ref-ext-fixtures-cypress-er-53 .node ellipse,#ref-ext-fixtures-cypress-er-53 .node polygon{fill:#ECECFF;stroke:#9370DB;stroke-width:1px;}#ref-ext-fixtures-cypress-er-53 .relationshipLine{stroke:#333333;stroke-width:1px;fill:none;}#ref-ext-fixtures-cypress-er-53 .marker{fill:none!important;stroke:#333333!important;stroke-width:1;}#ref-ext-fixtures-cypress-er-53 [data-look=neo].labelBkg{background-color:rgba(248.6666666666, 255, 235.9999999999, 0.5);}#ref-ext-fixtures-cypress-er-53 .node .neo-node{stroke:#9370DB;}#ref-ext-fixtures-cypress-er-53 [data-look="neo"].node rect,#ref-ext-fixtures-cypress-er-53 [data-look="neo"].cluster rect,#ref-ext-fixtures-cypress-er-53 [data-look="neo"].node polygon{stroke:#9370DB;filter:drop-shadow(1px 2px 2px rgba(185, 185, 185, 1));}#ref-ext-fixtures-cypress-er-53 [data-look="neo"].node path{stroke:#9370DB;stroke-width:1px;}#ref-ext-fixtures-cypress-er-53 [data-look="neo"].node .outer-path{filter:drop-shadow(1px 2px 2px rgba(185, 185, 185, 1));}#ref-ext-fixtures-cypress-er-53 [data-look="neo"].node .neo-line path{stroke:#9370DB;filter:none;}#ref-ext-fixtures-cypress-er-53 [data-look="neo"].node circle{stroke:#9370DB;filter:drop-shadow(1px 2px 2px rgba(185, 185, 185, 1));}#ref-ext-fixtures-cypress-er-53 [data-look="neo"].node circle .state-start{fill:#000000;}#ref-ext-fixtures-cypress-er-53 [data-look="neo"].icon-shape .icon{fill:#9370DB;filter:drop-shadow(1px 2px 2px rgba(185, 185, 185, 1));}#ref-ext-fixtures-cypress-er-53 [data-look="neo"].icon-shape .icon-neo path{stroke:#9370DB;filter:drop-shadow(1px 2px 2px rgba(185, 185, 185, 1));}#ref-ext-fixtures-cypress-er-53 :root{--mermaid-font-family:"trebuchet ms",verdana,arial,sans-serif;}</style><g><defs><marker id="ref-ext-fixtures-cypress-er-53_er-onlyOneStart" class="marker onlyOne er" refX="0" refY="9" markerWidth="18" markerHeight="18" orient="auto"><path d="M9,0 L9,18 M15,0 L15,18"></path></marker></defs><defs><marker id="ref-ext-fixtures-cypress-er-53_er-onlyOneEnd" class="marker onlyOne er" refX="18" refY="9" markerWidth="18" markerHeight="18" orient="auto"><path d="M3,0 L3,18 M9,0 L9,18"></path></marker></defs><defs><marker id="ref-ext-fixtures-cypress-er-53_er-zeroOrOneStart" class="marker zeroOrOne er" refX="0" refY="9" markerWidth="30" markerHeight="18" orient="auto"><circle fill="white" cx="21" cy="9" r="6"></circle><path d="M9,0 L9,18"></path></marker></defs><defs><marker id="ref-ext-fixtures-cypress-er-53_er-zeroOrOneEnd" class="marker zeroOrOne er" refX="30" refY="9" markerWidth="30" markerHeight="18" orient="auto"><circle fill="white" cx="9" cy="9" r="6"></circle><path d="M21,0 L21,18"></path></marker></defs><defs><marker id="ref-ext-fixtures-cypress-er-53_er-oneOrMoreStart" class="marker oneOrMore er" refX="18" refY="18" markerWidth="45" markerHeight="36" orient="auto"><path d="M0,18 Q 18,0 36,18 Q 18,36 0,18 M42,9 L42,27"></path></marker></defs><defs><marker id="ref-ext-fixtures-cypress-er-53_er-oneOrMoreEnd" class="marker oneOrMore er" refX="27" refY="18" markerWidth="45" markerHeight="36" orient="auto"><path d="M3,9 L3,27 M9,18 Q27,0 45,18 Q27,36 9,18"></path></marker></defs><defs><marker id="ref-ext-fixtures-cypress-er-53_er-zeroOrMoreStart" class="marker zeroOrMore er" refX="18" refY="18" markerWidth="57" markerHeight="36" orient="auto"><circle fill="white" cx="48" cy="18" r="6"></circle><path d="M0,18 Q18,0 36,18 Q18,36 0,18"></path></marker></defs><defs><marker id="ref-ext-fixtures-cypress-er-53_er-zeroOrMoreEnd" class="marker zeroOrMore er" refX="39" refY="18" markerWidth="57" markerHeight="36" orient="auto"><circle fill="white" cx="9" cy="18" r="6"></circle><path d="M21,18 Q39,0 57,18 Q39,36 21,18"></path></marker></defs><g class="root"><g class="clusters"></g><g class="edgePaths"></g><g class="edgeLabels"></g><g class="nodes"><g class="node default " id="ref-ext-fixtures-cypress-er-53-entity-BOOK-0" data-look="classic" transform="translate(91.3583984375, 78.09375)"><g class="outer-path" style=""><path d="M-83.3583984375 -70.09375 L83.3583984375 -70.09375 L83.3583984375 70.09375 L-83.3583984375 70.09375" stroke="none" stroke-width="0" fill="#ECECFF"></path><path d="M-83.3583984375 -70.09375 C-50.01428957260195 -70.09375, -16.670180707703906 -70.09375, 83.3583984375 -70.09375 M-83.3583984375 -70.09375 C-46.45532004618162 -70.09375, -9.552241654863238 -70.09375, 83.3583984375 -70.09375 M83.3583984375 -70.09375 C83.3583984375 -39.60264543436351, 83.3583984375 -9.111540868727019, 83.3583984375 70.09375 M83.3583984375 -70.09375 C83.3583984375 -32.46802012564731, 83.3583984375 5.157709748705386, 83.3583984375 70.09375 M83.3583984375 70.09375 C47.40217398189689 70.09375, 11.445949526293774 70.09375, -83.3583984375 70.09375 M83.3583984375 70.09375 C20.68745670016233 70.09375, -41.98348503717534 70.09375, -83.3583984375 70.09375 M-83.3583984375 70.09375 C-83.3583984375 29.886668778507733, -83.3583984375 -10.320412442984534, -83.3583984375 -70.09375 M-83.3583984375 70.09375 C-83.3583984375 19.09826630631578, -83.3583984375 -31.897217387368443, -83.3583984375 -70.09375" stroke="#9370DB" stroke-width="1.3" fill="none" stroke-dasharray="0 0"></path></g><g style="" class="row-rect-odd"><path d="M-83.3583984375 -35.046875 L83.3583984375 -35.046875 L83.3583984375 0 L-83.3583984375 0" stroke="none" stroke-width="0" fill="hsl(240, 100%, 100%)"></path><path d="M-83.3583984375 -35.046875 C-50.01428957260195 -35.046875, -16.670180707703906 -35.046875, 83.3583984375 -35.046875 M-83.3583984375 -35.046875 C-46.45532004618162 -35.046875, -9.552241654863238 -35.046875, 83.3583984375 -35.046875 M83.3583984375 -35.046875 C83.3583984375 -27.424098858590877, 83.3583984375 -19.801322717181755, 83.3583984375 0 M83.3583984375 -35.046875 C83.3583984375 -25.64044253141183, 83.3583984375 -16.234010062823653, 83.3583984375 0 M83.3583984375 0 C47.40217398189689 0, 11.445949526293774 0, -83.3583984375 0 M83.3583984375 0 C20.68745670016233 0, -41.98348503717534 0, -83.3583984375 0 M-83.3583984375 0 C-83.3583984375 -10.051770305373067, -83.3583984375 -20.103540610746133, -83.3583984375 -35.046875 M-83.3583984375 0 C-83.3583984375 -12.748870923421055, -83.3583984375 -25.49774184684211, -83.3583984375 -35.046875" stroke="#9370DB" stroke-width="1.3" fill="none" stroke-dasharray="0 0"></path></g><g style="" class="row-rect-even"><path d="M-83.3583984375 0 L83.3583984375 0 L83.3583984375 35.046875 L-83.3583984375 35.046875" stroke="none" stroke-width="0" fill="hsl(240, 100%, 97.2745098039%)"></path><path d="M-83.3583984375 0 C-50.01428957260195 0, -16.670180707703906 0, 83.3583984375 0 M-83.3583984375 0 C-46.45532004618162 0, -9.552241654863238 0, 83.3583984375 0 M83.3583984375 0 C83.3583984375 7.622776141409123, 83.3583984375 15.245552282818245, 83.3583984375 35.046875 M83.3583984375 0 C83.3583984375 9.406432468588173, 83.3583984375 18.812864937176347, 83.3583984375 35.046875 M83.3583984375 35.046875 C47.40217398189689 35.046875, 11.445949526293774 35.046875, -83.3583984375 35.046875 M83.3583984375 35.046875 C20.68745670016233 35.046875, -41.98348503717534 35.046875, -83.3583984375 35.046875 M-83.3583984375 35.046875 C-83.3583984375 24.99510469462693, -83.3583984375 14.943334389253867, -83.3583984375 0 M-83.3583984375 35.046875 C-83.3583984375 22.298004076578945, -83.3583984375 9.54913315315789, -83.3583984375 0" stroke="#9370DB" stroke-width="1.3" fill="none" stroke-dasharray="0 0"></path></g><g style="" class="row-rect-odd"><path d="M-83.3583984375 35.046875 L83.3583984375 35.046875 L83.3583984375 70.09375 L-83.3583984375 70.09375" stroke="none" stroke-width="0" fill="hsl(240, 100%, 100%)"></path><path d="M-83.3583984375 35.046875 C-50.01428957260195 35.046875, -16.670180707703906 35.046875, 83.3583984375 35.046875 M-83.3583984375 35.046875 C-46.45532004618162 35.046875, -9.552241654863238 35.046875, 83.3583984375 35.046875 M83.3583984375 35.046875 C83.3583984375 42.66965114140912, 83.3583984375 50.292427282818245, 83.3583984375 70.09375 M83.3583984375 35.046875 C83.3583984375 44.45330746858817, 83.3583984375 53.85973993717634, 83.3583984375 70.09375 M83.3583984375 70.09375 C47.40217398189689 70.09375, 11.445949526293774 70.09375, -83.3583984375 70.09375 M83.3583984375 70.09375 C20.68745670016233 70.09375, -41.98348503717534 70.09375, -83.3583984375 70.09375 M-83.3583984375 70.09375 C-83.3583984375 60.04197969462693, -83.3583984375 49.99020938925386, -83.3583984375 35.046875 M-83.3583984375 70.09375 C-83.3583984375 57.34487907657895, -83.3583984375 44.59600815315789, -83.3583984375 35.046875" stroke="#9370DB" stroke-width="1.3" fill="none" stroke-dasharray="0 0"></path></g><g class="label name" transform="translate(-20.412109375, -60.71875)" style=""><foreignObject width="40.82421875" height="16.296875"><div style="display: table-cell; white-space: nowrap; line-height: 1.5; max-width: 147px; text-align: start;" xmlns="http://www.w3.org/1999/xhtml"><span class="nodeLabel "><p>BOOK</p></span></div></foreignObject></g><g class="label attribute-type" transform="translate(-70.8583984375, -25.671875)" style=""><foreignObject width="40.1884765625" height="16.296875"><div style="display: table-cell; white-space: nowrap; line-height: 1.5; max-width: 146px; text-align: start;" xmlns="http://www.w3.org/1999/xhtml"><span class="nodeLabel "><p>string</p></span></div></foreignObject></g><g class="label attribute-name" transform="translate(17.4287109375, -25.671875)" style=""><foreignObject width="27.37109375" height="16.296875"><div style="display: table-cell; white-space: nowrap; line-height: 1.5; max-width: 131px; text-align: start;" xmlns="http://www.w3.org/1999/xhtml"><span class="nodeLabel "><p>title</p></span></div></foreignObject></g><g class="label attribute-keys" transform="translate(95.8583984375, -25.671875)" style=""><foreignObject width="0" height="16.296875"><div style="display: table-cell; white-space: nowrap; line-height: 1.5; max-width: 100px; text-align: start;" xmlns="http://www.w3.org/1999/xhtml"><span class="nodeLabel "></span></div></foreignObject></g><g class="label attribute-comment" transform="translate(95.8583984375, -25.671875)" style=""><foreignObject width="0" height="16.296875"><div style="display: table-cell; white-space: nowrap; line-height: 1.5; max-width: 100px; text-align: start;" xmlns="http://www.w3.org/1999/xhtml"><span class="nodeLabel "></span></div></foreignObject></g><g class="label attribute-type" transform="translate(-70.8583984375, 9.375)" style=""><foreignObject width="51.1123046875" height="16.296875"><div style="display: table-cell; white-space: nowrap; line-height: 1.5; max-width: 158px; text-align: start;" xmlns="http://www.w3.org/1999/xhtml"><span class="nodeLabel "><p>string[]</p></span></div></foreignObject></g><g class="label attribute-name" transform="translate(17.4287109375, 9.375)" style=""><foreignObject width="53.4296875" height="16.296875"><div style="display: table-cell; white-space: nowrap; line-height: 1.5; max-width: 161px; text-align: start;" xmlns="http://www.w3.org/1999/xhtml"><span class="nodeLabel "><p>authors</p></span></div></foreignObject></g><g class="label attribute-keys" transform="translate(95.8583984375, 9.375)" style=""><foreignObject width="0" height="16.296875"><div style="display: table-cell; white-space: nowrap; line-height: 1.5; max-width: 100px; text-align: start;" xmlns="http://www.w3.org/1999/xhtml"><span class="nodeLabel "></span></div></foreignObject></g><g class="label attribute-comment" transform="translate(95.8583984375, 9.375)" style=""><foreignObject width="0" height="16.296875"><div style="display: table-cell; white-space: nowrap; line-height: 1.5; max-width: 100px; text-align: start;" xmlns="http://www.w3.org/1999/xhtml"><span class="nodeLabel "></span></div></foreignObject></g><g class="label attribute-type" transform="translate(-70.8583984375, 44.421875)" style=""><foreignObject width="63.287109375" height="16.296875"><div style="display: table-cell; white-space: nowrap; line-height: 1.5; max-width: 208px; text-align: start;" xmlns="http://www.w3.org/1999/xhtml">type&lt;T&gt;</div></foreignObject></g><g class="label attribute-name" transform="translate(17.4287109375, 44.421875)" style=""><foreignObject width="31.2744140625" height="16.296875"><div style="display: table-cell; white-space: nowrap; line-height: 1.5; max-width: 136px; text-align: start;" xmlns="http://www.w3.org/1999/xhtml"><span class="nodeLabel "><p>type</p></span></div></foreignObject></g><g class="label attribute-keys" transform="translate(95.8583984375, 44.421875)" style=""><foreignObject width="0" height="16.296875"><div style="display: table-cell; white-space: nowrap; line-height: 1.5; max-width: 100px; text-align: start;" xmlns="http://www.w3.org/1999/xhtml"><span class="nodeLabel "></span></div></foreignObject></g><g class="label attribute-comment" transform="translate(95.8583984375, 44.421875)" style=""><foreignObject width="0" height="16.296875"><div style="display: table-cell; white-space: nowrap; line-height: 1.5; max-width: 100px; text-align: start;" xmlns="http://www.w3.org/1999/xhtml"><span class="nodeLabel "></span></div></foreignObject></g><g class="divider"><path d="M-83.3583984375 -35.046925 L-83.3583984375 -35.046825 L83.3583984375 -35.046825 L83.3583984375 -35.046925" stroke="none" stroke-width="0" fill="#ECECFF" fill-rule="evenodd"></path><path d="M-83.3583984375 -35.046925 C-83.3583984375 -35.04690499955044, -83.3583984375 -35.04688499910088, -83.3583984375 -35.046825 M-83.3583984375 -35.046925 C-83.3583984375 -35.04690286481082, -83.3583984375 -35.04688072962163, -83.3583984375 -35.046825 M-83.3583984375 -35.046825 C-47.097110616805544 -35.046825, -10.835822796111088 -35.046825, 83.3583984375 -35.046825 M-83.3583984375 -35.046825 C-38.612317904384874 -35.046825, 6.133762628730253 -35.046825, 83.3583984375 -35.046825 M83.3583984375 -35.046825 C83.3583984375 -35.04684656724765, 83.3583984375 -35.0468681344953, 83.3583984375 -35.046925 M83.3583984375 -35.046825 C83.3583984375 -35.0468625912583, 83.3583984375 -35.046900182516595, 83.3583984375 -35.046925 M83.3583984375 -35.046925 C35.54246768090506 -35.046925, -12.273463075689875 -35.046925, -83.3583984375 -35.046925 M83.3583984375 -35.046925 C22.712451427229276 -35.046925, -37.93349558304145 -35.046925, -83.3583984375 -35.046925" stroke="#9370DB" stroke-width="1.3" fill="none" stroke-dasharray="0 0"></path></g><g class="divider"><path d="M4.9286609375 -35.046875 L4.9287609375 -35.046875 L4.9287609375 70.09375 L4.9286609375 70.09375" stroke="none" stroke-width="0" fill="#ECECFF" fill-rule="evenodd"></path><path d="M4.9286609375 -35.046875 C4.928680937949559 -35.046875, 4.928700938399118 -35.046875, 4.9287609375 -35.046875 M4.9286609375 -35.046875 C4.928683072689185 -35.046875, 4.9287052078783695 -35.046875, 4.9287609375 -35.046875 M4.9287609375 -35.046875 C4.9287609375 -12.178546575772632, 4.9287609375 10.689781848454736, 4.9287609375 70.09375 M4.9287609375 -35.046875 C4.9287609375 -6.827577594235478, 4.9287609375 21.391719811529043, 4.9287609375 70.09375 M4.9287609375 70.09375 C4.92873937025235 70.09375, 4.928717803004701 70.09375, 4.9286609375 70.09375 M4.9287609375 70.09375 C4.9287233462417035 70.09375, 4.928685754983406 70.09375, 4.9286609375 70.09375 M4.9286609375 70.09375 C4.9286609375 39.938439083880795, 4.9286609375 9.783128167761596, 4.9286609375 -35.046875 M4.9286609375 70.09375 C4.9286609375 31.84713722973683, 4.9286609375 -6.399475540526339, 4.9286609375 -35.046875" stroke="#9370DB" stroke-width="1.3" fill="none" stroke-dasharray="0 0"></path></g><g class="divider"><path d="M-83.3583984375 -35.046925 L-83.3583984375 -35.046825 L83.3583984375 -35.046825 L83.3583984375 -35.046925" stroke="none" stroke-width="0" fill="#ECECFF" fill-rule="evenodd"></path><path d="M-83.3583984375 -35.046925 C-83.3583984375 -35.04690499955044, -83.3583984375 -35.04688499910088, -83.3583984375 -35.046825 M-83.3583984375 -35.046925 C-83.3583984375 -35.04690286481082, -83.3583984375 -35.04688072962163, -83.3583984375 -35.046825 M-83.3583984375 -35.046825 C-47.097110616805544 -35.046825, -10.835822796111088 -35.046825, 83.3583984375 -35.046825 M-83.3583984375 -35.046825 C-38.612317904384874 -35.046825, 6.133762628730253 -35.046825, 83.3583984375 -35.046825 M83.3583984375 -35.046825 C83.3583984375 -35.04684656724765, 83.3583984375 -35.0468681344953, 83.3583984375 -35.046925 M83.3583984375 -35.046825 C83.3583984375 -35.0468625912583, 83.3583984375 -35.046900182516595, 83.3583984375 -35.046925 M83.3583984375 -35.046925 C35.54246768090506 -35.046925, -12.273463075689875 -35.046925, -83.3583984375 -35.046925 M83.3583984375 -35.046925 C22.712451427229276 -35.046925, -37.93349558304145 -35.046925, -83.3583984375 -35.046925" stroke="#9370DB" stroke-width="1.3" fill="none" stroke-dasharray="0 0"></path></g></g></g></g></g><defs><filter id="ref-ext-fixtures-cypress-er-53-drop-shadow" height="130%" width="130%"><feDropShadow dx="4" dy="4" stdDeviation="0" flood-opacity="0.06" flood-color="#000000"></feDropShadow></filter></defs><defs><filter id="ref-ext-fixtures-cypress-er-53-drop-shadow-small" height="150%" width="150%"><feDropShadow dx="2" dy="2" stdDeviation="0" flood-opacity="0.06" flood-color="#000000"></feDropShadow></filter></defs></svg>