<svg id="ref-ext-fixtures-cypress-gitGraph-68" width="100%" xmlns="http://www.w3.org/2000/svg" style="max-width: 80368px;" viewBox="-8 -8 80368 30" role="graphics-document document" aria-roledescription="gitGraph"><style>#ref-ext-fixtures-cypress-gitGraph-68{font-family:"trebuchet ms",verdana,arial,sans-serif;font-size:16px;fill:#333;}@keyframes edge-animation-frame{from{stroke-dashoffset:0;}}@keyframes dash{to{stroke-dashoffset:0;}}#ref-ext-fixtures-cypress-gitGraph-68 .edge-animation-slow{stroke-dasharray:9,5!important;stroke-dashoffset:900;animation:dash 50s linear infinite;stroke-linecap:round;}#ref-ext-fixtures-cypress-gitGraph-68 .edge-animation-fast{stroke-dasharray:9,5!important;stroke-dashoffset:900;animation:dash 20s linear infinite;stroke-linecap:round;}#ref-ext-fixtures-cypress-gitGraph-68 .error-icon{fill:#552222;}#ref-ext-fixtures-cypress-gitGraph-68 .error-text{fill:#552222;stroke:#552222;}#ref-ext-fixtures-cypress-gitGraph-68 .edge-thickness-normal{stroke-width:1px;}#ref-ext-fixtures-cypress-gitGraph-68 .edge-thickness-thick{stroke-width:3.5px;}#ref-ext-fixtures-cypress-gitGraph-68 .edge-pattern-solid{stroke-dasharray:0;}#ref-ext-fixtures-cypress-gitGraph-68 .edge-thickness-invisible{stroke-width:0;fill:none;}#ref-ext-fixtures-cypress-gitGraph-68 .edge-pattern-dashed{stroke-dasharray:3;}#ref-ext-fixtures-cypress-gitGraph-68 .edge-pattern-dotted{stroke-dasharray:2;}#ref-ext-fixtures-cypress-gitGraph-68 .marker{fill:#333333;stroke:#333333;}#ref-ext-fixtures-cypress-gitGraph-68 .marker.cross{stroke:#333333;}#ref-ext-fixtures-cypress-gitGraph-68 svg{font-family:"trebuchet ms",verdana,arial,sans-serif;font-size:16px;}#ref-ext-fixtures-cypress-gitGraph-68 p{margin:0;}#ref-ext-fixtures-cypress-gitGraph-68 .commit-id,#ref-ext-fixtures-cypress-gitGraph-68 .commit-msg,#ref-ext-fixtures-cypress-gitGraph-68 .branch-label{fill:lightgrey;color:lightgrey;font-family:'trebuchet ms',verdana,arial,sans-serif;font-family:var(--mermaid-font-family);}#ref-ext-fixtures-cypress-gitGraph-68 .branch-label0{fill:#ffffff;}#ref-ext-fixtures-cypress-gitGraph-68 .commit0{stroke:hsl(240, 100%, 46.2745098039%);fill:hsl(240, 100%, 46.2745098039%);}#ref-ext-fixtures-cypress-gitGraph-68 .commit-highlight0{stroke:hsl(60, 100%, 3.7254901961%);fill:hsl(60, 100%, 3.7254901961%);}#ref-ext-fixtures-cypress-gitGraph-68 .label0{fill:hsl(240, 100%, 46.2745098039%);}#ref-ext-fixtures-cypress-gitGraph-68 .arrow0{stroke:hsl(240, 100%, 46.2745098039%);}#ref-ext-fixtures-cypress-gitGraph-68 .branch-label1{fill:black;}#ref-ext-fixtures-cypress-gitGraph-68 .commit1{stroke:hsl(60, 100%, 43.5294117647%);fill:hsl(60, 100%, 43.5294117647%);}#ref-ext-fixtures-cypress-gitGraph-68 .commit-highlight1{stroke:rgb(0, 0, 160.5);fill:rgb(0, 0, 160.5);}#ref-ext-fixtures-cypress-gitGraph-68 .label1{fill:hsl(60, 100%, 43.5294117647%);}#ref-ext-fixtures-cypress-gitGraph-68 .arrow1{stroke:hsl(60, 100%, 43.5294117647%);}#ref-ext-fixtures-cypress-gitGraph-68 .branch-label2{fill:black;}#ref-ext-fixtures-cypress-gitGraph-68 .commit2{stroke:hsl(80, 100%, 46.2745098039%);fill:hsl(80, 100%, 46.2745098039%);}#ref-ext-fixtures-cypress-gitGraph-68 .commit-highlight2{stroke:rgb(48.8333333334, 0, 146.5000000001);fill:rgb(48.8333333334, 0, 146.5000000001);}#ref-ext-fixtures-cypress-gitGraph-68 .label2{fill:hsl(80, 100%, 46.2745098039%);}#ref-ext-fixtures-cypress-gitGraph-68 .arrow2{stroke:hsl(80, 100%, 46.2745098039%);}#ref-ext-fixtures-cypress-gitGraph-68 .branch-label3{fill:#ffffff;}#ref-ext-fixtures-cypress-gitGraph-68 .commit3{stroke:hsl(210, 100%, 46.2745098039%);fill:hsl(210, 100%, 46.2745098039%);}#ref-ext-fixtures-cypress-gitGraph-68 .commit-highlight3{stroke:rgb(146.5000000001, 73.2500000001, 0);fill:rgb(146.5000000001, 73.2500000001, 0);}#ref-ext-fixtures-cypress-gitGraph-68 .label3{fill:hsl(210, 100%, 46.2745098039%);}#ref-ext-fixtures-cypress-gitGraph-68 .arrow3{stroke:hsl(210, 100%, 46.2745098039%);}#ref-ext-fixtures-cypress-gitGraph-68 .branch-label4{fill:black;}#ref-ext-fixtures-cypress-gitGraph-68 .commit4{stroke:hsl(180, 100%, 46.2745098039%);fill:hsl(180, 100%, 46.2745098039%);}#ref-ext-fixtures-cypress-gitGraph-68 .commit-highlight4{stroke:rgb(146.5000000001, 0, 0);fill:rgb(146.5000000001, 0, 0);}#ref-ext-fixtures-cypress-gitGraph-68 .label4{fill:hsl(180, 100%, 46.2745098039%);}#ref-ext-fixtures-cypress-gitGraph-68 .arrow4{stroke:hsl(180, 100%, 46.2745098039%);}#ref-ext-fixtures-cypress-gitGraph-68 .branch-label5{fill:black;}#ref-ext-fixtures-cypress-gitGraph-68 .commit5{stroke:hsl(150, 100%, 46.2745098039%);fill:hsl(150, 100%, 46.2745098039%);}#ref-ext-fixtures-cypress-gitGraph-68 .commit-highlight5{stroke:rgb(146.5000000001, 0, 73.2500000001);fill:rgb(146.5000000001, 0, 73.2500000001);}#ref-ext-fixtures-cypress-gitGraph-68 .label5{fill:hsl(150, 100%, 46.2745098039%);}#ref-ext-fixtures-cypress-gitGraph-68 .arrow5{stroke:hsl(150, 100%, 46.2745098039%);}#ref-ext-fixtures-cypress-gitGraph-68 .branch-label6{fill:black;}#ref-ext-fixtures-cypress-gitGraph-68 .commit6{stroke:hsl(300, 100%, 46.2745098039%);fill:hsl(300, 100%, 46.2745098039%);}#ref-ext-fixtures-cypress-gitGraph-68 .commit-highlight6{stroke:rgb(0, 146.5000000001, 0);fill:rgb(0, 146.5000000001, 0);}#ref-ext-fixtures-cypress-gitGraph-68 .label6{fill:hsl(300, 100%, 46.2745098039%);}#ref-ext-fixtures-cypress-gitGraph-68 .arrow6{stroke:hsl(300, 100%, 46.2745098039%);}#ref-ext-fixtures-cypress-gitGraph-68 .branch-label7{fill:black;}#ref-ext-fixtures-cypress-gitGraph-68 .commit7{stroke:hsl(0, 100%, 46.2745098039%);fill:hsl(0, 100%, 46.2745098039%);}#ref-ext-fixtures-cypress-gitGraph-68 .commit-highlight7{stroke:rgb(0, 146.5000000001, 146.5000000001);fill:rgb(0, 146.5000000001, 146.5000000001);}#ref-ext-fixtures-cypress-gitGraph-68 .label7{fill:hsl(0, 100%, 46.2745098039%);}#ref-ext-fixtures-cypress-gitGraph-68 .arrow7{stroke:hsl(0, 100%, 46.2745098039%);}#ref-ext-fixtures-cypress-gitGraph-68 .branch-label8{fill:#ffffff;}#ref-ext-fixtures-cypress-gitGraph-68 .commit8{stroke:hsl(240, 100%, 46.2745098039%);fill:hsl(240, 100%, 46.2745098039%);}#ref-ext-fixtures-cypress-gitGraph-68 .commit-highlight8{stroke:hsl(60, 100%, 3.7254901961%);fill:hsl(60, 100%, 3.7254901961%);}#ref-ext-fixtures-cypress-gitGraph-68 .label8{fill:hsl(240, 100%, 46.2745098039%);}#ref-ext-fixtures-cypress-gitGraph-68 .arrow8{stroke:hsl(240, 100%, 46.2745098039%);}#ref-ext-fixtures-cypress-gitGraph-68 .branch-label9{fill:black;}#ref-ext-fixtures-cypress-gitGraph-68 .commit9{stroke:hsl(60, 100%, 43.5294117647%);fill:hsl(60, 100%, 43.5294117647%);}#ref-ext-fixtures-cypress-gitGraph-68 .commit-highlight9{stroke:rgb(0, 0, 160.5);fill:rgb(0, 0, 160.5);}#ref-ext-fixtures-cypress-gitGraph-68 .label9{fill:hsl(60, 100%, 43.5294117647%);}#ref-ext-fixtures-cypress-gitGraph-68 .arrow9{stroke:hsl(60, 100%, 43.5294117647%);}#ref-ext-fixtures-cypress-gitGraph-68 .branch-label10{fill:black;}#ref-ext-fixtures-cypress-gitGraph-68 .commit10{stroke:hsl(80, 100%, 46.2745098039%);fill:hsl(80, 100%, 46.2745098039%);}#ref-ext-fixtures-cypress-gitGraph-68 .commit-highlight10{stroke:rgb(48.8333333334, 0, 146.5000000001);fill:rgb(48.8333333334, 0, 146.5000000001);}#ref-ext-fixtures-cypress-gitGraph-68 .label10{fill:hsl(80, 100%, 46.2745098039%);}#ref-ext-fixtures-cypress-gitGraph-68 .arrow10{stroke:hsl(80, 100%, 46.2745098039%);}#ref-ext-fixtures-cypress-gitGraph-68 .branch-label11{fill:#ffffff;}#ref-ext-fixtures-cypress-gitGraph-68 .commit11{stroke:hsl(210, 100%, 46.2745098039%);fill:hsl(210, 100%, 46.2745098039%);}#ref-ext-fixtures-cypress-gitGraph-68 .commit-highlight11{stroke:rgb(146.5000000001, 73.2500000001, 0);fill:rgb(146.5000000001, 73.2500000001, 0);}#ref-ext-fixtures-cypress-gitGraph-68 .label11{fill:hsl(210, 100%, 46.2745098039%);}#ref-ext-fixtures-cypress-gitGraph-68 .arrow11{stroke:hsl(210, 100%, 46.2745098039%);}#ref-ext-fixtures-cypress-gitGraph-68 .branch{stroke-width:1;stroke:#333333;stroke-dasharray:2;}#ref-ext-fixtures-cypress-gitGraph-68 .commit-label{font-size:10px;fill:#000021;}#ref-ext-fixtures-cypress-gitGraph-68 .commit-label-bkg{font-size:10px;fill:#ffffde;opacity:0.5;}#ref-ext-fixtures-cypress-gitGraph-68 .tag-label{font-size:10px;fill:#131300;}#ref-ext-fixtures-cypress-gitGraph-68 .tag-label-bkg{fill:#ECECFF;stroke:hsl(240, 60%, 86.2745098039%);}#ref-ext-fixtures-cypress-gitGraph-68 .tag-hole{fill:#333;}#ref-ext-fixtures-cypress-gitGraph-68 .commit-merge{stroke:#ECECFF;fill:#ECECFF;}#ref-ext-fixtures-cypress-gitGraph-68 .commit-reverse{stroke:#ECECFF;fill:#ECECFF;stroke-width:3;}#ref-ext-fixtures-cypress-gitGraph-68 .commit-highlight-inner{stroke:#ECECFF;fill:#ECECFF;}#ref-ext-fixtures-cypress-gitGraph-68 .arrow{stroke-width:8;stroke-linecap:round;fill:none;}#ref-ext-fixtures-cypress-gitGraph-68 .gitTitleText{text-anchor:middle;font-size:18px;fill:#333;}#ref-ext-fixtures-cypress-gitGraph-68 .node .neo-node{stroke:#9370DB;}#ref-ext-fixtures-cypress-gitGraph-68 [data-look="neo"].node rect,#ref-ext-fixtures-cypress-gitGraph-68 [data-look="neo"].cluster rect,#ref-ext-fixtures-cypress-gitGraph-68 [data-look="neo"].node polygon{stroke:#9370DB;filter:drop-shadow(1px 2px 2px rgba(185, 185, 185, 1));}#ref-ext-fixtures-cypress-gitGraph-68 [data-look="neo"].node path{stroke:#9370DB;stroke-width:1px;}#ref-ext-fixtures-cypress-gitGraph-68 [data-look="neo"].node .outer-path{filter:drop-shadow(1px 2px 2px rgba(185, 185, 185, 1));}#ref-ext-fixtures-cypress-gitGraph-68 [data-look="neo"].node .neo-line path{stroke:#9370DB;filter:none;}#ref-ext-fixtures-cypress-gitGraph-68 [data-look="neo"].node circle{stroke:#9370DB;filter:drop-shadow(1px 2px 2px rgba(185, 185, 185, 1));}#ref-ext-fixtures-cypress-gitGraph-68 [data-look="neo"].node circle .state-start{fill:#000000;}#ref-ext-fixtures-cypress-gitGraph-68 [data-look="neo"].icon-shape .icon{fill:#9370DB;filter:drop-shadow(1px 2px 2px rgba(185, 185, 185, 1));}#ref-ext-fixtures-cypress-gitGraph-68 [data-look="neo"].icon-shape .icon-neo path{stroke:#9370DB;filter:drop-shadow(1px 2px 2px rgba(185, 185, 185, 1));}#ref-ext-fixtures-cypress-gitGraph-68 :root{--mermaid-font-family:"trebuchet ms",verdana,arial,sans-serif;}</style><g></g><g class="commit-bullets"></g><g class="commit-labels"></g><g><line x1="0" y1="930" x2="0" y2="30" class="branch branch0"></line><rect class="branchLabelBkg label0" style="" rx="4" ry="4" x="-26" y="930" width="50" height="18"></rect><g class="branchLabel"><g class="label branch-label0" transform="translate(-21, 930)"><text><tspan xml:space="preserve" dy="1em" x="0" class="row">main</tspan></text></g></g><line x1="106" y1="930" x2="106" y2="30" class="branch branch1"></line><rect class="branchLabelBkg label1" style="" rx="4" ry="4" x="68" y="930" width="74" height="18"></rect><g class="branchLabel"><g class="label branch-label1" transform="translate(73, 930)"><text><tspan xml:space="preserve" dy="1em" x="0" class="row">branch1</tspan></text></g></g><line x1="224" y1="930" x2="224" y2="30" class="branch branch2"></line><rect class="branchLabelBkg label2" style="" rx="4" ry="4" x="186" y="930" width="74" height="18"></rect><g class="branchLabel"><g class="label branch-label2" transform="translate(191, 930)"><text><tspan xml:space="preserve" dy="1em" x="0" class="row">branch2</tspan></text></g></g><line x1="342" y1="930" x2="342" y2="30" class="branch branch3"></line><rect class="branchLabelBkg label3" style="" rx="4" ry="4" x="304" y="930" width="74" height="18"></rect><g class="branchLabel"><g class="label branch-label3" transform="translate(309, 930)"><text><tspan xml:space="preserve" dy="1em" x="0" class="row">branch3</tspan></text></g></g><line x1="460" y1="930" x2="460" y2="30" class="branch branch4"></line><rect class="branchLabelBkg label4" style="" rx="4" ry="4" x="422" y="930" width="74" height="18"></rect><g class="branchLabel"><g class="label branch-label4" transform="translate(427, 930)"><text><tspan xml:space="preserve" dy="1em" x="0" class="row">branch4</tspan></text></g></g><line x1="578" y1="930" x2="578" y2="30" class="branch branch5"></line><rect class="branchLabelBkg label5" style="" rx="4" ry="4" x="540" y="930" width="74" height="18"></rect><g class="branchLabel"><g class="label branch-label5" transform="translate(545, 930)"><text><tspan xml:space="preserve" dy="1em" x="0" class="row">branch5</tspan></text></g></g><line x1="696" y1="930" x2="696" y2="30" class="branch branch6"></line><rect class="branchLabelBkg label6" style="" rx="4" ry="4" x="658" y="930" width="74" height="18"></rect><g class="branchLabel"><g class="label branch-label6" transform="translate(663, 930)"><text><tspan xml:space="preserve" dy="1em" x="0" class="row">branch6</tspan></text></g></g><line x1="814" y1="930" x2="814" y2="30" class="branch branch7"></line><rect class="branchLabelBkg label7" style="" rx="4" ry="4" x="776" y="930" width="74" height="18"></rect><g class="branchLabel"><g class="label branch-label7" transform="translate(781, 930)"><text><tspan xml:space="preserve" dy="1em" x="0" class="row">branch7</tspan></text></g></g><line x1="932" y1="930" x2="932" y2="30" class="branch branch0"></line><rect class="branchLabelBkg label0" style="" rx="4" ry="4" x="894" y="930" width="74" height="18"></rect><g class="branchLabel"><g class="label branch-label0" transform="translate(899, 930)"><text><tspan xml:space="preserve" dy="1em" x="0" class="row">branch8</tspan></text></g></g><line x1="1050" y1="930" x2="1050" y2="30" class="branch branch1"></line><rect class="branchLabelBkg label1" style="" rx="4" ry="4" x="1012" y="930" width="74" height="18"></rect><g class="branchLabel"><g class="label branch-label1" transform="translate(1017, 930)"><text><tspan xml:space="preserve" dy="1em" x="0" class="row">branch9</tspan></text></g></g></g><g class="commit-arrows"><path d="M 0 890 L 86 890 A 20 20, 0, 0, 0, 106 870 L 106 840" class="arrow arrow1"></path><path d="M 0 890 L 0 790" class="arrow arrow0"></path><path d="M 106 840 L 106 810 A 20 20, 0, 0, 0, 86 790 L 0 790" class="arrow arrow1"></path><path d="M 0 790 L 204 790 A 20 20, 0, 0, 0, 224 770 L 224 740" class="arrow arrow2"></path><path d="M 0 790 L 0 690" class="arrow arrow0"></path><path d="M 224 740 L 224 710 A 20 20, 0, 0, 0, 204 690 L 0 690" class="arrow arrow2"></path><path d="M 0 690 L 322 690 A 20 20, 0, 0, 0, 342 670 L 342 640" class="arrow arrow3"></path><path d="M 0 690 L 0 590" class="arrow arrow0"></path><path d="M 342 640 L 342 610 A 20 20, 0, 0, 0, 322 590 L 0 590" class="arrow arrow3"></path><path d="M 0 590 L 440 590 A 20 20, 0, 0, 0, 460 570 L 460 540" class="arrow arrow4"></path><path d="M 0 590 L 0 490" class="arrow arrow0"></path><path d="M 460 540 L 460 510 A 20 20, 0, 0, 0, 440 490 L 0 490" class="arrow arrow4"></path><path d="M 0 490 L 558 490 A 20 20, 0, 0, 0, 578 470 L 578 440" class="arrow arrow5"></path><path d="M 0 490 L 0 390" class="arrow arrow0"></path><path d="M 578 440 L 578 410 A 20 20, 0, 0, 0, 558 390 L 0 390" class="arrow arrow5"></path><path d="M 0 390 L 676 390 A 20 20, 0, 0, 0, 696 370 L 696 340" class="arrow arrow6"></path><path d="M 0 390 L 0 290" class="arrow arrow0"></path><path d="M 696 340 L 696 310 A 20 20, 0, 0, 0, 676 290 L 0 290" class="arrow arrow6"></path><path d="M 0 290 L 794 290 A 20 20, 0, 0, 0, 814 270 L 814 240" class="arrow arrow7"></path><path d="M 0 290 L 0 190" class="arrow arrow0"></path><path d="M 814 240 L 814 210 A 20 20, 0, 0, 0, 794 190 L 0 190" class="arrow arrow7"></path><path d="M 0 190 L 912 190 A 20 20, 0, 0, 0, 932 170 L 932 140" class="arrow arrow0"></path><path d="M 0 190 L 0 90" class="arrow arrow0"></path><path d="M 932 140 L 932 110 A 20 20, 0, 0, 0, 912 90 L 0 90" class="arrow arrow0"></path><path d="M 0 90 L 1030 90 A 20 20, 0, 0, 0, 1050 70 L 1050 40" class="arrow arrow1"></path></g><g class="commit-bullets"><circle cx="1050" cy="40" r="10" class="commit 10-abcdefg commit1"></circle><circle cx="0" cy="90" r="10" class="commit 16-92f2a3e commit0"></circle><circle cx="0" cy="90" r="6" class="commit commit-merge 16-92f2a3e commit0"></circle><circle cx="932" cy="140" r="10" class="commit 9-abcdefg commit0"></circle><circle cx="0" cy="190" r="10" class="commit 14-85d9784 commit0"></circle><circle cx="0" cy="190" r="6" class="commit commit-merge 14-85d9784 commit0"></circle><circle cx="814" cy="240" r="10" class="commit 8-abcdefg commit7"></circle><circle cx="0" cy="290" r="10" class="commit 12-5376b3c commit0"></circle><circle cx="0" cy="290" r="6" class="commit commit-merge 12-5376b3c commit0"></circle><circle cx="696" cy="340" r="10" class="commit 7-abcdefg commit6"></circle><circle cx="0" cy="390" r="10" class="commit 10-6248d8b commit0"></circle><circle cx="0" cy="390" r="6" class="commit commit-merge 10-6248d8b commit0"></circle><circle cx="578" cy="440" r="10" class="commit 6-abcdefg commit5"></circle><circle cx="0" cy="490" r="10" class="commit 8-d821271 commit0"></circle><circle cx="0" cy="490" r="6" class="commit commit-merge 8-d821271 commit0"></circle><circle cx="460" cy="540" r="10" class="commit 5-abcdefg commit4"></circle><circle cx="0" cy="590" r="10" class="commit 6-60351b1 commit0"></circle><circle cx="0" cy="590" r="6" class="commit commit-merge 6-60351b1 commit0"></circle><circle cx="342" cy="640" r="10" class="commit 4-abcdefg commit3"></circle><circle cx="0" cy="690" r="10" class="commit 4-9d021a2 commit0"></circle><circle cx="0" cy="690" r="6" class="commit commit-merge 4-9d021a2 commit0"></circle><circle cx="224" cy="740" r="10" class="commit 3-abcdefg commit2"></circle><circle cx="0" cy="790" r="10" class="commit 2-a738852 commit0"></circle><circle cx="0" cy="790" r="6" class="commit commit-merge 2-a738852 commit0"></circle><circle cx="106" cy="840" r="10" class="commit 2-abcdefg commit1"></circle><circle cx="0" cy="890" r="10" class="commit 1-abcdefg commit0"></circle></g><g class="commit-labels"><g><rect class="commit-label-bkg" x="949" y="28" width="84" height="18" transform="rotate(-45, 1050, 40)"></rect><text x="954" y="42" class="commit-label" transform="rotate(-45, 1050, 40)">10-abcdefg</text></g><g><rect class="commit-label-bkg" x="839" y="128" width="76" height="18" transform="rotate(-45, 932, 140)"></rect><text x="844" y="142" class="commit-label" transform="rotate(-45, 932, 140)">9-abcdefg</text></g><g><rect class="commit-label-bkg" x="721" y="228" width="76" height="18" transform="rotate(-45, 814, 240)"></rect><text x="726" y="242" class="commit-label" transform="rotate(-45, 814, 240)">8-abcdefg</text></g><g><rect class="commit-label-bkg" x="603" y="328" width="76" height="18" transform="rotate(-45, 696, 340)"></rect><text x="608" y="342" class="commit-label" transform="rotate(-45, 696, 340)">7-abcdefg</text></g><g><rect class="commit-label-bkg" x="485" y="428" width="76" height="18" transform="rotate(-45, 578, 440)"></rect><text x="490" y="442" class="commit-label" transform="rotate(-45, 578, 440)">6-abcdefg</text></g><g><rect class="commit-label-bkg" x="367" y="528" width="76" height="18" transform="rotate(-45, 460, 540)"></rect><text x="372" y="542" class="commit-label" transform="rotate(-45, 460, 540)">5-abcdefg</text></g><g><rect class="commit-label-bkg" x="249" y="628" width="76" height="18" transform="rotate(-45, 342, 640)"></rect><text x="254" y="642" class="commit-label" transform="rotate(-45, 342, 640)">4-abcdefg</text></g><g><rect class="commit-label-bkg" x="131" y="728" width="76" height="18" transform="rotate(-45, 224, 740)"></rect><text x="136" y="742" class="commit-label" transform="rotate(-45, 224, 740)">3-abcdefg</text></g><g><rect class="commit-label-bkg" x="13" y="828" width="76" height="18" transform="rotate(-45, 106, 840)"></rect><text x="18" y="842" class="commit-label" transform="rotate(-45, 106, 840)">2-abcdefg</text></g><g><rect class="commit-label-bkg" x="-93" y="878" width="76" height="18" transform="rotate(-45, 0, 890)"></rect><text x="-88" y="892" class="commit-label" transform="rotate(-45, 0, 890)">1-abcdefg</text></g></g></svg>