<svg id="ref-ext-fixtures-demos-er-03" width="100%" xmlns="http://www.w3.org/2000/svg" class="erDiagram" style="max-width: 32568px;" viewBox="-8 -8 32568 30" role="graphics-document document" aria-roledescription="er"><style>#ref-ext-fixtures-demos-er-03{font-family:"trebuchet ms",verdana,arial,sans-serif;font-size:16px;fill:#333;}@keyframes edge-animation-frame{from{stroke-dashoffset:0;}}@keyframes dash{to{stroke-dashoffset:0;}}#ref-ext-fixtures-demos-er-03 .edge-animation-slow{stroke-dasharray:9,5!important;stroke-dashoffset:900;animation:dash 50s linear infinite;stroke-linecap:round;}#ref-ext-fixtures-demos-er-03 .edge-animation-fast{stroke-dasharray:9,5!important;stroke-dashoffset:900;animation:dash 20s linear infinite;stroke-linecap:round;}#ref-ext-fixtures-demos-er-03 .error-icon{fill:#552222;}#ref-ext-fixtures-demos-er-03 .error-text{fill:#552222;stroke:#552222;}#ref-ext-fixtures-demos-er-03 .edge-thickness-normal{stroke-width:1px;}#ref-ext-fixtures-demos-er-03 .edge-thickness-thick{stroke-width:3.5px;}#ref-ext-fixtures-demos-er-03 .edge-pattern-solid{stroke-dasharray:0;}#ref-ext-fixtures-demos-er-03 .edge-thickness-invisible{stroke-width:0;fill:none;}#ref-ext-fixtures-demos-er-03 .edge-pattern-dashed{stroke-dasharray:3;}#ref-ext-fixtures-demos-er-03 .edge-pattern-dotted{stroke-dasharray:2;}#ref-ext-fixtures-demos-er-03 .marker{fill:#333333;stroke:#333333;}#ref-ext-fixtures-demos-er-03 .marker.cross{stroke:#333333;}#ref-ext-fixtures-demos-er-03 svg{font-family:"trebuchet ms",verdana,arial,sans-serif;font-size:16px;}#ref-ext-fixtures-demos-er-03 p{margin:0;}#ref-ext-fixtures-demos-er-03 .entityBox{fill:#ECECFF;stroke:#9370DB;}#ref-ext-fixtures-demos-er-03 .relationshipLabelBox{fill:hsl(80, 100%, 96.2745098039%);opacity:0.7;background-color:hsl(80, 100%, 96.2745098039%);}#ref-ext-fixtures-demos-er-03 .relationshipLabelBox rect{opacity:0.5;}#ref-ext-fixtures-demos-er-03 .labelBkg{background-color:rgba(248.6666666666, 255, 235.9999999999, 0.5);}#ref-ext-fixtures-demos-er-03 .edgeLabel{background-color:rgba(232,232,232, 0.8);}#ref-ext-fixtures-demos-er-03 .edgeLabel .label rect{fill:rgba(232,232,232, 0.8);}#ref-ext-fixtures-demos-er-03 .edgeLabel .label text{fill:#333;}#ref-ext-fixtures-demos-er-03 .edgeLabel .label{fill:#9370DB;font-size:14px;}#ref-ext-fixtures-demos-er-03 .label{font-family:"trebuchet ms",verdana,arial,sans-serif;color:#333;}#ref-ext-fixtures-demos-er-03 .edge-pattern-dashed{stroke-dasharray:8,8;}#ref-ext-fixtures-demos-er-03 .node rect,#ref-ext-fixtures-demos-er-03 .node circle,#ref-ext-fixtures-demos-er-03 .node ellipse,#ref-ext-fixtures-demos-er-03 .node polygon{fill:#ECECFF;stroke:#9370DB;stroke-width:1px;}#ref-ext-fixtures-demos-er-03 .relationshipLine{stroke:#333333;stroke-width:1px;fill:none;}#ref-ext-fixtures-demos-er-03 .marker{fill:none!important;stroke:#333333!important;stroke-width:1;}#ref-ext-fixtures-demos-er-03 [data-look=neo].labelBkg{background-color:rgba(248.6666666666, 255, 235.9999999999, 0.5);}#ref-ext-fixtures-demos-er-03 .node .neo-node{stroke:#9370DB;}#ref-ext-fixtures-demos-er-03 [data-look="neo"].node rect,#ref-ext-fixtures-demos-er-03 [data-look="neo"].cluster rect,#ref-ext-fixtures-demos-er-03 [data-look="neo"].node polygon{stroke:#9370DB;filter:drop-shadow(1px 2px 2px rgba(185, 185, 185, 1));}#ref-ext-fixtures-demos-er-03 [data-look="neo"].node path{stroke:#9370DB;stroke-width:1px;}#ref-ext-fixtures-demos-er-03 [data-look="neo"].node .outer-path{filter:drop-shadow(1px 2px 2px rgba(185, 185, 185, 1));}#ref-ext-fixtures-demos-er-03 [data-look="neo"].node .neo-line path{stroke:#9370DB;filter:none;}#ref-ext-fixtures-demos-er-03 [data-look="neo"].node circle{stroke:#9370DB;filter:drop-shadow(1px 2px 2px rgba(185, 185, 185, 1));}#ref-ext-fixtures-demos-er-03 [data-look="neo"].node circle .state-start{fill:#000000;}#ref-ext-fixtures-demos-er-03 [data-look="neo"].icon-shape .icon{fill:#9370DB;filter:drop-shadow(1px 2px 2px rgba(185, 185, 185, 1));}#ref-ext-fixtures-demos-er-03 [data-look="neo"].icon-shape .icon-neo path{stroke:#9370DB;filter:drop-shadow(1px 2px 2px rgba(185, 185, 185, 1));}#ref-ext-fixtures-demos-er-03 :root{--mermaid-font-family:"trebuchet ms",verdana,arial,sans-serif;}</style><g><defs><marker id="ref-ext-fixtures-demos-er-03_er-onlyOneStart" class="marker onlyOne er" refX="0" refY="9" markerWidth="18" markerHeight="18" orient="auto"><path d="M9,0 L9,18 M15,0 L15,18"></path></marker></defs><defs><marker id="ref-ext-fixtures-demos-er-03_er-onlyOneEnd" class="marker onlyOne er" refX="18" refY="9" markerWidth="18" markerHeight="18" orient="auto"><path d="M3,0 L3,18 M9,0 L9,18"></path></marker></defs><defs><marker id="ref-ext-fixtures-demos-er-03_er-zeroOrOneStart" class="marker zeroOrOne er" refX="0" refY="9" markerWidth="30" markerHeight="18" orient="auto"><circle fill="white" cx="21" cy="9" r="6"></circle><path d="M9,0 L9,18"></path></marker></defs><defs><marker id="ref-ext-fixtures-demos-er-03_er-zeroOrOneEnd" class="marker zeroOrOne er" refX="30" refY="9" markerWidth="30" markerHeight="18" orient="auto"><circle fill="white" cx="9" cy="9" r="6"></circle><path d="M21,0 L21,18"></path></marker></defs><defs><marker id="ref-ext-fixtures-demos-er-03_er-oneOrMoreStart" class="marker oneOrMore er" refX="18" refY="18" markerWidth="45" markerHeight="36" orient="auto"><path d="M0,18 Q 18,0 36,18 Q 18,36 0,18 M42,9 L42,27"></path></marker></defs><defs><marker id="ref-ext-fixtures-demos-er-03_er-oneOrMoreEnd" class="marker oneOrMore er" refX="27" refY="18" markerWidth="45" markerHeight="36" orient="auto"><path d="M3,9 L3,27 M9,18 Q27,0 45,18 Q27,36 9,18"></path></marker></defs><defs><marker id="ref-ext-fixtures-demos-er-03_er-zeroOrMoreStart" class="marker zeroOrMore er" refX="18" refY="18" markerWidth="57" markerHeight="36" orient="auto"><circle fill="white" cx="48" cy="18" r="6"></circle><path d="M0,18 Q18,0 36,18 Q18,36 0,18"></path></marker></defs><defs><marker id="ref-ext-fixtures-demos-er-03_er-zeroOrMoreEnd" class="marker zeroOrMore er" refX="39" refY="18" markerWidth="57" markerHeight="36" orient="auto"><circle fill="white" cx="9" cy="18" r="6"></circle><path d="M21,18 Q39,0 57,18 Q39,36 21,18"></path></marker></defs><g class="root"><g class="clusters"></g><g class="edgePaths"></g><g class="edgeLabels"></g><g class="nodes"><g class="node default " id="ref-ext-fixtures-demos-er-03-entity-HOSPITAL-0" data-look="classic" transform="translate(8, 15)"><g class="outer-path" style=""><path d="M-377 -65.625 L377 -65.625 L377 65.625 L-377 65.625" stroke="none" stroke-width="0" fill="#ECECFF"></path><path d="M-377 -65.625 C-220.20623654995717 -65.625, -63.41247309991434 -65.625, 377 -65.625 M-377 -65.625 C-79.92391975956019 -65.625, 217.15216048087962 -65.625, 377 -65.625 M377 -65.625 C377 -30.724706096512392, 377 4.175587806975216, 377 65.625 M377 -65.625 C377 -37.74096569525457, 377 -9.85693139050914, 377 65.625 M377 65.625 C137.64528683601756 65.625, -101.70942632796488 65.625, -377 65.625 M377 65.625 C212.26152966636974 65.625, 47.52305933273948 65.625, -377 65.625 M-377 65.625 C-377 23.271520701365482, -377 -19.081958597269036, -377 -65.625 M-377 65.625 C-377 24.185302281702, -377 -17.254395436596, -377 -65.625" stroke="#9370DB" stroke-width="1.3" fill="none" stroke-dasharray="0 0"></path></g><g style="" class="row-rect-odd"><path d="M-377 -46.875 L377 -46.875 L377 -28.125 L-377 -28.125" stroke="none" stroke-width="0" fill="hsl(240, 100%, 100%)"></path><path d="M-377 -46.875 C-99.64018336045342 -46.875, 177.71963327909316 -46.875, 377 -46.875 M-377 -46.875 C-149.86091020231655 -46.875, 77.27817959536691 -46.875, 377 -46.875 M377 -46.875 C377 -42.00153088831917, 377 -37.12806177663834, 377 -28.125 M377 -46.875 C377 -39.45205858404427, 377 -32.02911716808855, 377 -28.125 M377 -28.125 C139.6597492914387 -28.125, -97.68050141712263 -28.125, -377 -28.125 M377 -28.125 C189.79808709624808 -28.125, 2.5961741924961643 -28.125, -377 -28.125 M-377 -28.125 C-377 -33.421582360847154, -377 -38.71816472169431, -377 -46.875 M-377 -28.125 C-377 -34.21854435381384, -377 -40.31208870762768, -377 -46.875" stroke="#9370DB" stroke-width="1.3" fill="none" stroke-dasharray="0 0"></path></g><g style="" class="row-rect-even"><path d="M-377 -28.125 L377 -28.125 L377 -9.375 L-377 -9.375" stroke="none" stroke-width="0" fill="hsl(240, 100%, 97.2745098039%)"></path><path d="M-377 -28.125 C-143.05611946155489 -28.125, 90.88776107689023 -28.125, 377 -28.125 M-377 -28.125 C-100.34907487389984 -28.125, 176.30185025220032 -28.125, 377 -28.125 M377 -28.125 C377 -21.463385494087582, 377 -14.80177098817516, 377 -9.375 M377 -28.125 C377 -22.419124888032844, 377 -16.713249776065688, 377 -9.375 M377 -9.375 C141.635516058048 -9.375, -93.72896788390398 -9.375, -377 -9.375 M377 -9.375 C135.46297539209058 -9.375, -106.07404921581883 -9.375, -377 -9.375 M-377 -9.375 C-377 -15.394185746358431, -377 -21.413371492716863, -377 -28.125 M-377 -9.375 C-377 -15.116191182966515, -377 -20.85738236593303, -377 -28.125" stroke="#9370DB" stroke-width="1.3" fill="none" stroke-dasharray="0 0"></path></g><g style="" class="row-rect-odd"><path d="M-377 -9.375 L377 -9.375 L377 9.375 L-377 9.375" stroke="none" stroke-width="0" fill="hsl(240, 100%, 100%)"></path><path d="M-377 -9.375 C-123.0616978513635 -9.375, 130.876604297273 -9.375, 377 -9.375 M-377 -9.375 C-174.25684570225883 -9.375, 28.486308595482342 -9.375, 377 -9.375 M377 -9.375 C377 -2.510278304099158, 377 4.354443391801684, 377 9.375 M377 -9.375 C377 -2.189253043048371, 377 4.996493913903258, 377 9.375 M377 9.375 C209.25378754450838 9.375, 41.50757508901677 9.375, -377 9.375 M377 9.375 C225.60634353785014 9.375, 74.21268707570027 9.375, -377 9.375 M-377 9.375 C-377 5.425085035919356, -377 1.4751700718387113, -377 -9.375 M-377 9.375 C-377 3.115894336917954, -377 -3.143211326164092, -377 -9.375" stroke="#9370DB" stroke-width="1.3" fill="none" stroke-dasharray="0 0"></path></g><g style="" class="row-rect-even"><path d="M-377 9.375 L377 9.375 L377 28.125 L-377 28.125" stroke="none" stroke-width="0" fill="hsl(240, 100%, 97.2745098039%)"></path><path d="M-377 9.375 C-200.01866634606267 9.375, -23.037332692125347 9.375, 377 9.375 M-377 9.375 C-208.85519263959026 9.375, -40.710385279180514 9.375, 377 9.375 M377 9.375 C377 14.515263838606462, 377 19.655527677212923, 377 28.125 M377 9.375 C377 16.05270076885466, 377 22.73040153770932, 377 28.125 M377 28.125 C108.25221520902602 28.125, -160.49556958194796 28.125, -377 28.125 M377 28.125 C121.43694425871527 28.125, -134.12611148256946 28.125, -377 28.125 M-377 28.125 C-377 24.152309668267687, -377 20.17961933653537, -377 9.375 M-377 28.125 C-377 22.550193247554375, -377 16.97538649510875, -377 9.375" stroke="#9370DB" stroke-width="1.3" fill="none" stroke-dasharray="0 0"></path></g><g style="" class="row-rect-odd"><path d="M-377 28.125 L377 28.125 L377 46.875 L-377 46.875" stroke="none" stroke-width="0" fill="hsl(240, 100%, 100%)"></path><path d="M-377 28.125 C-120.13304185855372 28.125, 136.73391628289255 28.125, 377 28.125 M-377 28.125 C-187.04341056648306 28.125, 2.913178867033878 28.125, 377 28.125 M377 28.125 C377 33.859686745844286, 377 39.59437349168857, 377 46.875 M377 28.125 C377 34.49313929346141, 377 40.86127858692282, 377 46.875 M377 46.875 C160.1993900994696 46.875, -56.60121980106078 46.875, -377 46.875 M377 46.875 C163.69671334944763 46.875, -49.60657330110473 46.875, -377 46.875 M-377 46.875 C-377 42.986360928039716, -377 39.09772185607943, -377 28.125 M-377 46.875 C-377 42.38865127170934, -377 37.902302543418685, -377 28.125" stroke="#9370DB" stroke-width="1.3" fill="none" stroke-dasharray="0 0"></path></g><g style="" class="row-rect-even"><path d="M-377 46.875 L377 46.875 L377 65.625 L-377 65.625" stroke="none" stroke-width="0" fill="hsl(240, 100%, 97.2745098039%)"></path><path d="M-377 46.875 C-177.28452710468156 46.875, 22.430945790636883 46.875, 377 46.875 M-377 46.875 C-111.13535494323929 46.875, 154.72929011352142 46.875, 377 46.875 M377 46.875 C377 53.883002510997045, 377 60.89100502199409, 377 65.625 M377 46.875 C377 50.985469410065456, 377 55.09593882013091, 377 65.625 M377 65.625 C122.42397898928041 65.625, -132.15204202143917 65.625, -377 65.625 M377 65.625 C156.21916542724358 65.625, -64.56166914551284 65.625, -377 65.625 M-377 65.625 C-377 58.93437814395878, -377 52.24375628791757, -377 46.875 M-377 65.625 C-377 60.77098912131565, -377 55.9169782426313, -377 46.875" stroke="#9370DB" stroke-width="1.3" fill="none" stroke-dasharray="0 0"></path></g><g class="label name" transform="translate(0, -56.25)" style=""><foreignObject width="0" height="0"><div style="display: table-cell; white-space: nowrap; line-height: 1.5; max-width: 164px; text-align: start;" xmlns="http://www.w3.org/1999/xhtml"><span class="nodeLabel "><p>HOSPITAL</p></span></div></foreignObject></g><g class="label attribute-type" transform="translate(-364.5, -37.5)" style=""><foreignObject width="0" height="0"><div style="display: table-cell; white-space: nowrap; line-height: 1.5; max-width: 124px; text-align: start;" xmlns="http://www.w3.org/1999/xhtml"><span class="nodeLabel "><p>int</p></span></div></foreignObject></g><g class="label attribute-name" transform="translate(-339.5, -37.5)" style=""><foreignObject width="0" height="0"><div style="display: table-cell; white-space: nowrap; line-height: 1.5; max-width: 116px; text-align: start;" xmlns="http://www.w3.org/1999/xhtml"><span class="nodeLabel "><p>id</p></span></div></foreignObject></g><g class="label attribute-keys" transform="translate(-314.5, -37.5)" style=""><foreignObject width="0" height="0"><div style="display: table-cell; white-space: nowrap; line-height: 1.5; max-width: 116px; text-align: start;" xmlns="http://www.w3.org/1999/xhtml"><span class="nodeLabel "><p>PK</p></span></div></foreignObject></g><g class="label attribute-comment" transform="translate(-314.5, -37.5)" style=""><foreignObject width="0" height="0"><div style="display: table-cell; white-space: nowrap; line-height: 1.5; max-width: 100px; text-align: start;" xmlns="http://www.w3.org/1999/xhtml"><span class="nodeLabel "></span></div></foreignObject></g><g class="label attribute-type" transform="translate(-364.5, -18.75)" style=""><foreignObject width="0" height="0"><div style="display: table-cell; white-space: nowrap; line-height: 1.5; max-width: 124px; text-align: start;" xmlns="http://www.w3.org/1999/xhtml"><span class="nodeLabel "><p>int</p></span></div></foreignObject></g><g class="label attribute-name" transform="translate(-339.5, -18.75)" style=""><foreignObject width="0" height="0"><div style="display: table-cell; white-space: nowrap; line-height: 1.5; max-width: 172px; text-align: start;" xmlns="http://www.w3.org/1999/xhtml"><span class="nodeLabel "><p>doctor_id</p></span></div></foreignObject></g><g class="label attribute-keys" transform="translate(-314.5, -18.75)" style=""><foreignObject width="0" height="0"><div style="display: table-cell; white-space: nowrap; line-height: 1.5; max-width: 116px; text-align: start;" xmlns="http://www.w3.org/1999/xhtml"><span class="nodeLabel "><p>FK</p></span></div></foreignObject></g><g class="label attribute-comment" transform="translate(-314.5, -18.75)" style=""><foreignObject width="0" height="0"><div style="display: table-cell; white-space: nowrap; line-height: 1.5; max-width: 100px; text-align: start;" xmlns="http://www.w3.org/1999/xhtml"><span class="nodeLabel "></span></div></foreignObject></g><g class="label attribute-type" transform="translate(-364.5, 0)" style=""><foreignObject width="0" height="0"><div style="display: table-cell; white-space: nowrap; line-height: 1.5; max-width: 148px; text-align: start;" xmlns="http://www.w3.org/1999/xhtml"><span class="nodeLabel "><p>string</p></span></div></foreignObject></g><g class="label attribute-name" transform="translate(-339.5, 0)" style=""><foreignObject width="0" height="0"><div style="display: table-cell; white-space: nowrap; line-height: 1.5; max-width: 156px; text-align: start;" xmlns="http://www.w3.org/1999/xhtml"><span class="nodeLabel "><p>address</p></span></div></foreignObject></g><g class="label attribute-keys" transform="translate(-314.5, 0)" style=""><foreignObject width="0" height="0"><div style="display: table-cell; white-space: nowrap; line-height: 1.5; max-width: 116px; text-align: start;" xmlns="http://www.w3.org/1999/xhtml"><span class="nodeLabel "><p>UK</p></span></div></foreignObject></g><g class="label attribute-comment" transform="translate(-314.5, 0)" style=""><foreignObject width="0" height="0"><div style="display: table-cell; white-space: nowrap; line-height: 1.5; max-width: 100px; text-align: start;" xmlns="http://www.w3.org/1999/xhtml"><span class="nodeLabel "></span></div></foreignObject></g><g class="label attribute-type" transform="translate(-364.5, 18.75)" style=""><foreignObject width="0" height="0"><div style="display: table-cell; white-space: nowrap; line-height: 1.5; max-width: 148px; text-align: start;" xmlns="http://www.w3.org/1999/xhtml"><span class="nodeLabel "><p>string</p></span></div></foreignObject></g><g class="label attribute-name" transform="translate(-339.5, 18.75)" style=""><foreignObject width="0" height="0"><div style="display: table-cell; white-space: nowrap; line-height: 1.5; max-width: 132px; text-align: start;" xmlns="http://www.w3.org/1999/xhtml"><span class="nodeLabel "><p>name</p></span></div></foreignObject></g><g class="label attribute-keys" transform="translate(-314.5, 18.75)" style=""><foreignObject width="0" height="0"><div style="display: table-cell; white-space: nowrap; line-height: 1.5; max-width: 100px; text-align: start;" xmlns="http://www.w3.org/1999/xhtml"><span class="nodeLabel "></span></div></foreignObject></g><g class="label attribute-comment" transform="translate(-314.5, 18.75)" style=""><foreignObject width="0" height="0"><div style="display: table-cell; white-space: nowrap; line-height: 1.5; max-width: 100px; text-align: start;" xmlns="http://www.w3.org/1999/xhtml"><span class="nodeLabel "></span></div></foreignObject></g><g class="label attribute-type" transform="translate(-364.5, 37.5)" style=""><foreignObject width="0" height="0"><div style="display: table-cell; white-space: nowrap; line-height: 1.5; max-width: 148px; text-align: start;" xmlns="http://www.w3.org/1999/xhtml"><span class="nodeLabel "><p>string</p></span></div></foreignObject></g><g class="label attribute-name" transform="translate(-339.5, 37.5)" style=""><foreignObject width="0" height="0"><div style="display: table-cell; white-space: nowrap; line-height: 1.5; max-width: 196px; text-align: start;" xmlns="http://www.w3.org/1999/xhtml"><span class="nodeLabel "><p>phone_number</p></span></div></foreignObject></g><g class="label attribute-keys" transform="translate(-314.5, 37.5)" style=""><foreignObject width="0" height="0"><div style="display: table-cell; white-space: nowrap; line-height: 1.5; max-width: 100px; text-align: start;" xmlns="http://www.w3.org/1999/xhtml"><span class="nodeLabel "></span></div></foreignObject></g><g class="label attribute-comment" transform="translate(-314.5, 37.5)" style=""><foreignObject width="0" height="0"><div style="display: table-cell; white-space: nowrap; line-height: 1.5; max-width: 100px; text-align: start;" xmlns="http://www.w3.org/1999/xhtml"><span class="nodeLabel "></span></div></foreignObject></g><g class="label attribute-type" transform="translate(-364.5, 56.25)" style=""><foreignObject width="0" height="0"><div style="display: table-cell; white-space: nowrap; line-height: 1.5; max-width: 148px; text-align: start;" xmlns="http://www.w3.org/1999/xhtml"><span class="nodeLabel "><p>string</p></span></div></foreignObject></g><g class="label attribute-name" transform="translate(-339.5, 56.25)" style=""><foreignObject width="0" height="0"><div style="display: table-cell; white-space: nowrap; line-height: 1.5; max-width: 180px; text-align: start;" xmlns="http://www.w3.org/1999/xhtml"><span class="nodeLabel "><p>fax_number</p></span></div></foreignObject></g><g class="label attribute-keys" transform="translate(-314.5, 56.25)" style=""><foreignObject width="0" height="0"><div style="display: table-cell; white-space: nowrap; line-height: 1.5; max-width: 100px; text-align: start;" xmlns="http://www.w3.org/1999/xhtml"><span class="nodeLabel "></span></div></foreignObject></g><g class="label attribute-comment" transform="translate(-314.5, 56.25)" style=""><foreignObject width="0" height="0"><div style="display: table-cell; white-space: nowrap; line-height: 1.5; max-width: 100px; text-align: start;" xmlns="http://www.w3.org/1999/xhtml"><span class="nodeLabel "></span></div></foreignObject></g><g class="divider"><path d="M-377 -46.87505 L-377 -46.87495 L377 -46.87495 L377 -46.87505" stroke="none" stroke-width="0" fill="#ECECFF" fill-rule="evenodd"></path><path d="M-377 -46.87505 C-377 -46.87501134301516, -377 -46.87497268603032, -377 -46.87495 M-377 -46.87505 C-377 -46.87501712292106, -377 -46.87498424584211, -377 -46.87495 M-377 -46.87495 C-171.04766786249905 -46.87495, 34.90466427500189 -46.87495, 377 -46.87495 M-377 -46.87495 C-160.62128705811804 -46.87495, 55.757425883763915 -46.87495, 377 -46.87495 M377 -46.87495 C377 -46.874973462911164, 377 -46.87499692582233, 377 -46.87505 M377 -46.87495 C377 -46.87498165545549, 377 -46.87501331091099, 377 -46.87505 M377 -46.87505 C166.01396827605146 -46.87505, -44.972063447897085 -46.87505, -377 -46.87505 M377 -46.87505 C146.6715795562289 -46.87505, -83.65684088754222 -46.87505, -377 -46.87505" stroke="#9370DB" stroke-width="1.3" fill="none" stroke-dasharray="0 0"></path></g><g class="divider"><path d="M-352.00005 -46.875 L-351.99995 -46.875 L-351.99995 65.625 L-352.00005 65.625" stroke="none" stroke-width="0" fill="#ECECFF" fill-rule="evenodd"></path><path d="M-352.00005 -46.875 C-352.00002803409285 -46.875, -352.00000606818577 -46.875, -351.99995 -46.875 M-352.00005 -46.875 C-352.00002536875866 -46.875, -352.00000073751727 -46.875, -351.99995 -46.875 M-351.99995 -46.875 C-351.99995 -17.122130345552446, -351.99995 12.630739308895109, -351.99995 65.625 M-351.99995 -46.875 C-351.99995 -22.833941820489642, -351.99995 1.2071163590207163, -351.99995 65.625 M-351.99995 65.625 C-351.99997107056663 65.625, -351.99999214113325 65.625, -352.00005 65.625 M-351.99995 65.625 C-351.99998787458753 65.625, -352.00002574917505 65.625, -352.00005 65.625 M-352.00005 65.625 C-352.00005 33.78409670825771, -352.00005 1.9431934165154132, -352.00005 -46.875 M-352.00005 65.625 C-352.00005 20.936700958080728, -352.00005 -23.751598083838545, -352.00005 -46.875" stroke="#9370DB" stroke-width="1.3" fill="none" stroke-dasharray="0 0"></path></g><g class="divider"><path d="M-377 -46.87505 L-377 -46.87495 L377 -46.87495 L377 -46.87505" stroke="none" stroke-width="0" fill="#ECECFF" fill-rule="evenodd"></path><path d="M-377 -46.87505 C-377 -46.87502111005334, -377 -46.87499222010668, -377 -46.87495 M-377 -46.87505 C-377 -46.87501313915455, -377 -46.87497627830909, -377 -46.87495 M-377 -46.87495 C-224.0791371434015 -46.87495, -71.15827428680302 -46.87495, 377 -46.87495 M-377 -46.87495 C-87.25987977486812 -46.87495, 202.48024045026375 -46.87495, 377 -46.87495 M377 -46.87495 C377 -46.87497697276297, 377 -46.87500394552595, 377 -46.87505 M377 -46.87495 C377 -46.87498803975415, 377 -46.8750260795083, 377 -46.87505 M377 -46.87505 C209.85908210151626 -46.87505, 42.71816420303253 -46.87505, -377 -46.87505 M377 -46.87505 C81.79231583170736 -46.87505, -213.4153683365853 -46.87505, -377 -46.87505" stroke="#9370DB" stroke-width="1.3" fill="none" stroke-dasharray="0 0"></path></g></g></g></g></g><defs><filter id="ref-ext-fixtures-demos-er-03-drop-shadow" height="130%" width="130%"><feDropShadow dx="4" dy="4" stdDeviation="0" flood-opacity="0.06" flood-color="#000000"></feDropShadow></filter></defs><defs><filter id="ref-ext-fixtures-demos-er-03-drop-shadow-small" height="150%" width="150%"><feDropShadow dx="2" dy="2" stdDeviation="0" flood-opacity="0.06" flood-color="#000000"></feDropShadow></filter></defs></svg>