<svg id="ref-ext-fixtures-cypress-class-181" width="100%" xmlns="http://www.w3.org/2000/svg" class="classDiagram" style="max-width: 61856px;" viewBox="-8 -8 61856 30" role="graphics-document document" aria-roledescription="class"><style>#ref-ext-fixtures-cypress-class-181{font-family:"trebuchet ms",verdana,arial,sans-serif;font-size:16px;fill:#333;}@keyframes edge-animation-frame{from{stroke-dashoffset:0;}}@keyframes dash{to{stroke-dashoffset:0;}}#ref-ext-fixtures-cypress-class-181 .edge-animation-slow{stroke-dasharray:9,5!important;stroke-dashoffset:900;animation:dash 50s linear infinite;stroke-linecap:round;}#ref-ext-fixtures-cypress-class-181 .edge-animation-fast{stroke-dasharray:9,5!important;stroke-dashoffset:900;animation:dash 20s linear infinite;stroke-linecap:round;}#ref-ext-fixtures-cypress-class-181 .error-icon{fill:#552222;}#ref-ext-fixtures-cypress-class-181 .error-text{fill:#552222;stroke:#552222;}#ref-ext-fixtures-cypress-class-181 .edge-thickness-normal{stroke-width:1px;}#ref-ext-fixtures-cypress-class-181 .edge-thickness-thick{stroke-width:3.5px;}#ref-ext-fixtures-cypress-class-181 .edge-pattern-solid{stroke-dasharray:0;}#ref-ext-fixtures-cypress-class-181 .edge-thickness-invisible{stroke-width:0;fill:none;}#ref-ext-fixtures-cypress-class-181 .edge-pattern-dashed{stroke-dasharray:3;}#ref-ext-fixtures-cypress-class-181 .edge-pattern-dotted{stroke-dasharray:2;}#ref-ext-fixtures-cypress-class-181 .marker{fill:#333333;stroke:#333333;}#ref-ext-fixtures-cypress-class-181 .marker.cross{stroke:#333333;}#ref-ext-fixtures-cypress-class-181 svg{font-family:"trebuchet ms",verdana,arial,sans-serif;font-size:16px;}#ref-ext-fixtures-cypress-class-181 p{margin:0;}#ref-ext-fixtures-cypress-class-181 g.classGroup text{fill:#9370DB;stroke:none;font-family:"trebuchet ms",verdana,arial,sans-serif;font-size:10px;}#ref-ext-fixtures-cypress-class-181 g.classGroup text .title{font-weight:bolder;}#ref-ext-fixtures-cypress-class-181 .cluster-label text{fill:#333;}#ref-ext-fixtures-cypress-class-181 .cluster-label span{color:#333;}#ref-ext-fixtures-cypress-class-181 .cluster-label span p{background-color:transparent;}#ref-ext-fixtures-cypress-class-181 .cluster rect{fill:#ffffde;stroke:#aaaa33;stroke-width:1px;}#ref-ext-fixtures-cypress-class-181 .cluster text{fill:#333;}#ref-ext-fixtures-cypress-class-181 .cluster span{color:#333;}#ref-ext-fixtures-cypress-class-181 .nodeLabel,#ref-ext-fixtures-cypress-class-181 .edgeLabel{color:#131300;}#ref-ext-fixtures-cypress-class-181 .noteLabel .nodeLabel,#ref-ext-fixtures-cypress-class-181 .noteLabel .edgeLabel{color:black;}#ref-ext-fixtures-cypress-class-181 .edgeLabel .label rect{fill:#ECECFF;}#ref-ext-fixtures-cypress-class-181 .label text{fill:#131300;}#ref-ext-fixtures-cypress-class-181 .labelBkg{background:#ECECFF;}#ref-ext-fixtures-cypress-class-181 .edgeLabel .label span{background:#ECECFF;}#ref-ext-fixtures-cypress-class-181 .classTitle{font-weight:bolder;}#ref-ext-fixtures-cypress-class-181 .node rect,#ref-ext-fixtures-cypress-class-181 .node circle,#ref-ext-fixtures-cypress-class-181 .node ellipse,#ref-ext-fixtures-cypress-class-181 .node polygon,#ref-ext-fixtures-cypress-class-181 .node path{fill:#ECECFF;stroke:#9370DB;stroke-width:1;}#ref-ext-fixtures-cypress-class-181 .divider{stroke:#9370DB;stroke-width:1;}#ref-ext-fixtures-cypress-class-181 g.clickable{cursor:pointer;}#ref-ext-fixtures-cypress-class-181 g.classGroup rect{fill:#ECECFF;stroke:#9370DB;}#ref-ext-fixtures-cypress-class-181 g.classGroup line{stroke:#9370DB;stroke-width:1;}#ref-ext-fixtures-cypress-class-181 .classLabel .box{stroke:none;stroke-width:0;fill:#ECECFF;opacity:0.5;}#ref-ext-fixtures-cypress-class-181 .classLabel .label{fill:#9370DB;font-size:10px;}#ref-ext-fixtures-cypress-class-181 .relation{stroke:#333333;stroke-width:1;fill:none;}#ref-ext-fixtures-cypress-class-181 .dashed-line{stroke-dasharray:3;}#ref-ext-fixtures-cypress-class-181 .dotted-line{stroke-dasharray:1 2;}#ref-ext-fixtures-cypress-class-181 [id$="-compositionStart"],#ref-ext-fixtures-cypress-class-181 .composition{fill:#333333!important;stroke:#333333!important;stroke-width:1;}#ref-ext-fixtures-cypress-class-181 [id$="-compositionEnd"],#ref-ext-fixtures-cypress-class-181 .composition{fill:#333333!important;stroke:#333333!important;stroke-width:1;}#ref-ext-fixtures-cypress-class-181 [id$="-dependencyStart"],#ref-ext-fixtures-cypress-class-181 .dependency{fill:#333333!important;stroke:#333333!important;stroke-width:1;}#ref-ext-fixtures-cypress-class-181 [id$="-dependencyEnd"],#ref-ext-fixtures-cypress-class-181 .dependency{fill:#333333!important;stroke:#333333!important;stroke-width:1;}#ref-ext-fixtures-cypress-class-181 [id$="-extensionStart"],#ref-ext-fixtures-cypress-class-181 .extension{fill:transparent!important;stroke:#333333!important;stroke-width:1;}#ref-ext-fixtures-cypress-class-181 [id$="-extensionEnd"],#ref-ext-fixtures-cypress-class-181 .extension{fill:transparent!important;stroke:#333333!important;stroke-width:1;}#ref-ext-fixtures-cypress-class-181 [id$="-aggregationStart"],#ref-ext-fixtures-cypress-class-181 .aggregation{fill:transparent!important;stroke:#333333!important;stroke-width:1;}#ref-ext-fixtures-cypress-class-181 [id$="-aggregationEnd"],#ref-ext-fixtures-cypress-class-181 .aggregation{fill:transparent!important;stroke:#333333!important;stroke-width:1;}#ref-ext-fixtures-cypress-class-181 [id$="-lollipopStart"],#ref-ext-fixtures-cypress-class-181 .lollipop{fill:#ECECFF!important;stroke:#333333!important;stroke-width:1;}#ref-ext-fixtures-cypress-class-181 [id$="-lollipopEnd"],#ref-ext-fixtures-cypress-class-181 .lollipop{fill:#ECECFF!important;stroke:#333333!important;stroke-width:1;}#ref-ext-fixtures-cypress-class-181 .edgeTerminals{font-size:11px;line-height:initial;}#ref-ext-fixtures-cypress-class-181 .classTitleText{text-anchor:middle;font-size:18px;fill:#333;}#ref-ext-fixtures-cypress-class-181 .edgeLabel[data-look="neo"]{background-color:rgba(232,232,232, 0.8);text-align:center;}#ref-ext-fixtures-cypress-class-181 .edgeLabel[data-look="neo"] p{background-color:rgba(232,232,232, 0.8);}#ref-ext-fixtures-cypress-class-181 .edgeLabel[data-look="neo"] rect{opacity:0.5;background-color:rgba(232,232,232, 0.8);fill:rgba(232,232,232, 0.8);}#ref-ext-fixtures-cypress-class-181 .label-icon{display:inline-block;height:1em;overflow:visible;vertical-align:-0.125em;}#ref-ext-fixtures-cypress-class-181 .node .label-icon path{fill:currentColor;stroke:revert;stroke-width:revert;}#ref-ext-fixtures-cypress-class-181 .node .neo-node{stroke:#9370DB;}#ref-ext-fixtures-cypress-class-181 [data-look="neo"].node rect,#ref-ext-fixtures-cypress-class-181 [data-look="neo"].cluster rect,#ref-ext-fixtures-cypress-class-181 [data-look="neo"].node polygon{stroke:#9370DB;filter:drop-shadow(1px 2px 2px rgba(185, 185, 185, 1));}#ref-ext-fixtures-cypress-class-181 [data-look="neo"].node path{stroke:#9370DB;stroke-width:1px;}#ref-ext-fixtures-cypress-class-181 [data-look="neo"].node .outer-path{filter:drop-shadow(1px 2px 2px rgba(185, 185, 185, 1));}#ref-ext-fixtures-cypress-class-181 [data-look="neo"].node .neo-line path{stroke:#9370DB;filter:none;}#ref-ext-fixtures-cypress-class-181 [data-look="neo"].node circle{stroke:#9370DB;filter:drop-shadow(1px 2px 2px rgba(185, 185, 185, 1));}#ref-ext-fixtures-cypress-class-181 [data-look="neo"].node circle .state-start{fill:#000000;}#ref-ext-fixtures-cypress-class-181 [data-look="neo"].icon-shape .icon{fill:#9370DB;filter:drop-shadow(1px 2px 2px rgba(185, 185, 185, 1));}#ref-ext-fixtures-cypress-class-181 [data-look="neo"].icon-shape .icon-neo path{stroke:#9370DB;filter:drop-shadow(1px 2px 2px rgba(185, 185, 185, 1));}#ref-ext-fixtures-cypress-class-181 :root{--mermaid-font-family:"trebuchet ms",verdana,arial,sans-serif;}</style><g><defs><marker id="ref-ext-fixtures-cypress-class-181_class-aggregationStart" class="marker aggregation class" refX="18" refY="7" markerWidth="190" markerHeight="240" orient="auto"><path d="M 18,7 L9,13 L1,7 L9,1 Z"></path></marker></defs><defs><marker id="ref-ext-fixtures-cypress-class-181_class-aggregationEnd" class="marker aggregation class" refX="1" refY="7" markerWidth="20" markerHeight="28" orient="auto"><path d="M 18,7 L9,13 L1,7 L9,1 Z"></path></marker></defs><defs><marker id="ref-ext-fixtures-cypress-class-181_class-aggregationStart-margin" class="marker aggregation class" refX="15" refY="7" markerWidth="190" markerHeight="240" orient="auto" markerUnits="userSpaceOnUse"><path style="stroke-width: 2;" d="M 18,7 L9,13 L1,7 L9,1 Z"></path></marker></defs><defs><marker id="ref-ext-fixtures-cypress-class-181_class-aggregationEnd-margin" class="marker aggregation class" refX="1" refY="7" markerWidth="20" markerHeight="28" orient="auto" markerUnits="userSpaceOnUse"><path style="stroke-width: 2;" d="M 18,7 L9,13 L1,7 L9,1 Z"></path></marker></defs><defs><marker id="ref-ext-fixtures-cypress-class-181_class-extensionStart" class="marker extension class" refX="18" refY="7" markerWidth="190" markerHeight="240" orient="auto" markerUnits="userSpaceOnUse"><path d="M 1,7 L18,13 V 1 Z"></path></marker></defs><defs><marker id="ref-ext-fixtures-cypress-class-181_class-extensionEnd" class="marker extension class" refX="1" refY="7" markerWidth="20" markerHeight="28" orient="auto"><path d="M 1,1 V 13 L18,7 Z"></path></marker></defs><marker id="ref-ext-fixtures-cypress-class-181_class-extensionStart-margin" class="marker extension class" refX="18" refY="7" markerWidth="20" markerHeight="28" orient="auto" markerUnits="userSpaceOnUse" viewBox="0 0 20 14"><polygon points="10,7 18,13 18,1" style="stroke-width: 2; stroke-dasharray: 0;"></polygon></marker><defs><marker id="ref-ext-fixtures-cypress-class-181_class-extensionEnd-margin" class="marker extension class" refX="9" refY="7" markerWidth="20" markerHeight="28" orient="auto" markerUnits="userSpaceOnUse" viewBox="0 0 20 14"><polygon points="10,1 10,13 18,7" style="stroke-width: 2; stroke-dasharray: 0;"></polygon></marker></defs><defs><marker id="ref-ext-fixtures-cypress-class-181_class-compositionStart" class="marker composition class" refX="18" refY="7" markerWidth="190" markerHeight="240" orient="auto"><path d="M 18,7 L9,13 L1,7 L9,1 Z"></path></marker></defs><defs><marker id="ref-ext-fixtures-cypress-class-181_class-compositionEnd" class="marker composition class" refX="1" refY="7" markerWidth="20" markerHeight="28" orient="auto"><path d="M 18,7 L9,13 L1,7 L9,1 Z"></path></marker></defs><defs><marker id="ref-ext-fixtures-cypress-class-181_class-compositionStart-margin" class="marker composition class" refX="15" refY="7" markerWidth="190" markerHeight="240" orient="auto" markerUnits="userSpaceOnUse"><path style="stroke-width: 0;" viewBox="0 0 15 15" d="M 18,7 L9,13 L1,7 L9,1 Z"></path></marker></defs><defs><marker id="ref-ext-fixtures-cypress-class-181_class-compositionEnd-margin" class="marker composition class" refX="3.5" refY="7" markerWidth="20" markerHeight="28" orient="auto" markerUnits="userSpaceOnUse"><path style="stroke-width: 0;" d="M 18,7 L9,13 L1,7 L9,1 Z"></path></marker></defs><defs><marker id="ref-ext-fixtures-cypress-class-181_class-dependencyStart" class="marker dependency class" refX="6" refY="7" markerWidth="190" markerHeight="240" orient="auto"><path d="M 5,7 L9,13 L1,7 L9,1 Z"></path></marker></defs><defs><marker id="ref-ext-fixtures-cypress-class-181_class-dependencyEnd" class="marker dependency class" refX="13" refY="7" markerWidth="20" markerHeight="28" orient="auto"><path d="M 18,7 L9,13 L14,7 L9,1 Z"></path></marker></defs><defs><marker id="ref-ext-fixtures-cypress-class-181_class-dependencyStart-margin" class="marker dependency class" refX="4" refY="7" markerWidth="190" markerHeight="240" orient="auto" markerUnits="userSpaceOnUse"><path style="stroke-width: 0;" d="M 5,7 L9,13 L1,7 L9,1 Z"></path></marker></defs><defs><marker id="ref-ext-fixtures-cypress-class-181_class-dependencyEnd-margin" class="marker dependency class" refX="16" refY="7" markerWidth="20" markerHeight="28" orient="auto" markerUnits="userSpaceOnUse"><path style="stroke-width: 0;" d="M 18,7 L9,13 L14,7 L9,1 Z"></path></marker></defs><defs><marker id="ref-ext-fixtures-cypress-class-181_class-lollipopStart" class="marker lollipop class" refX="13" refY="7" markerWidth="190" markerHeight="240" orient="auto"><circle fill="transparent" cx="7" cy="7" r="6"></circle></marker></defs><defs><marker id="ref-ext-fixtures-cypress-class-181_class-lollipopEnd" class="marker lollipop class" refX="1" refY="7" markerWidth="190" markerHeight="240" orient="auto"><circle fill="transparent" cx="7" cy="7" r="6"></circle></marker></defs><defs><marker id="ref-ext-fixtures-cypress-class-181_class-lollipopStart-margin" class="marker lollipop class" refX="13" refY="7" markerWidth="190" markerHeight="240" orient="auto" markerUnits="userSpaceOnUse"><circle fill="transparent" cx="7" cy="7" r="6" stroke-width="2"></circle></marker></defs><defs><marker id="ref-ext-fixtures-cypress-class-181_class-lollipopEnd-margin" class="marker lollipop class" refX="1" refY="7" markerWidth="190" markerHeight="240" orient="auto" markerUnits="userSpaceOnUse"><circle fill="transparent" cx="7" cy="7" r="6" stroke-width="2"></circle></marker></defs><g class="root"><g class="clusters"></g><g class="edgePaths"></g><g class="edgeLabels"></g><g class="nodes"><g class="node default " id="ref-ext-fixtures-cypress-class-181-classId-C1-9" data-look="classic" transform="translate(8, 15)"><g class="basic label-container outer-path"><path d="M-40 -37 L40 -37 L40 37 L-40 37" stroke="none" stroke-width="0" fill="#ECECFF" style=""></path><path d="M-40 -37 C-21.49595613108564 -37, -2.991912262171283 -37, 40 -37 M-40 -37 C-13.176119245589799 -37, 13.647761508820402 -37, 40 -37 M40 -37 C40 -8.060128164591749, 40 20.879743670816502, 40 37 M40 -37 C40 -9.85052290478135, 40 17.2989541904373, 40 37 M40 37 C17.69092367049446 37, -4.618152659011081 37, -40 37 M40 37 C9.403386852979864 37, -21.193226294040272 37, -40 37 M-40 37 C-40 15.190105042792911, -40 -6.619789914414177, -40 -37 M-40 37 C-40 20.948513501294546, -40 4.897027002589091, -40 -37" stroke="#9370DB" stroke-width="1.3" fill="none" stroke-dasharray="0 0" style=""></path></g><g class="annotation-group text" transform="translate(0, -13)"></g><g class="label-group text" transform="translate(-28, -13)"><g class="label" style="font-weight: bolder" transform="translate(0,0)"><foreignObject width="0" height="0"><div style="display: table-cell; white-space: nowrap; line-height: 1.5; max-width: 106px; text-align: center;" xmlns="http://www.w3.org/1999/xhtml"><span class="nodeLabel markdown-node-label" style=""><p>OneWord</p></span></div></foreignObject></g></g><g class="members-group text" transform="translate(-28, 25)"></g><g class="methods-group text" transform="translate(-28, 71)"></g><g class="divider" style=""><path d="M0 15 C0 15.000319562249786, 0 15.000639124499573, 0 15.001 M0 15 C0 15.000210183545152, 0 15.000420367090305, 0 15.001" stroke="#9370DB" stroke-width="1.3" fill="none" stroke-dasharray="0 0" style=""></path></g><g class="divider" style=""><path d="M0 47 C0 47.00034665953853, 0 47.00069331907705, 0 47.001 M0 47 C0 47.00035009286435, 0 47.000700185728704, 0 47.001" stroke="#9370DB" stroke-width="1.3" fill="none" stroke-dasharray="0 0" style=""></path></g></g><g class="node default " id="ref-ext-fixtures-cypress-class-181-classId-C2-10" data-look="classic" transform="translate(58, 15)"><g class="basic label-container outer-path"><path d="M-56 -37 L56 -37 L56 37 L-56 37" stroke="none" stroke-width="0" fill="#ECECFF" style=""></path><path d="M-56 -37 C-29.637462935643136 -37, -3.274925871286271 -37, 56 -37 M-56 -37 C-31.71074475896832 -37, -7.421489517936642 -37, 56 -37 M56 -37 C56 -10.180921963933244, 56 16.638156072133512, 56 37 M56 -37 C56 -19.416090612472125, 56 -1.8321812249442502, 56 37 M56 37 C19.747347802101608 37, -16.505304395796784 37, -56 37 M56 37 C30.648816198989955 37, 5.2976323979799105 37, -56 37 M-56 37 C-56 9.567354074504028, -56 -17.865291850991945, -56 -37 M-56 37 C-56 14.790156729841588, -56 -7.419686540316825, -56 -37" stroke="#9370DB" stroke-width="1.3" fill="none" stroke-dasharray="0 0" style=""></path></g><g class="annotation-group text" transform="translate(0, -13)"></g><g class="label-group text" transform="translate(-44, -13)"><g class="label" style="font-weight: bolder" transform="translate(0,0)"><foreignObject width="0" height="0"><div style="display: table-cell; white-space: nowrap; line-height: 1.5; max-width: 138px; text-align: center;" xmlns="http://www.w3.org/1999/xhtml"><span class="nodeLabel markdown-node-label" style=""><p>With, Comma</p></span></div></foreignObject></g></g><g class="members-group text" transform="translate(-44, 25)"></g><g class="methods-group text" transform="translate(-44, 71)"></g><g class="divider" style=""><path d="M0 15 C0 15.000204444734456, 0 15.000408889468911, 0 15.001 M0 15 C0 15.000317052014495, 0 15.00063410402899, 0 15.001" stroke="#9370DB" stroke-width="1.3" fill="none" stroke-dasharray="0 0" style=""></path></g><g class="divider" style=""><path d="M0 47 C0 47.00021027308535, 0 47.000420546170695, 0 47.001 M0 47 C0 47.00027406771203, 0 47.00054813542406, 0 47.001" stroke="#9370DB" stroke-width="1.3" fill="none" stroke-dasharray="0 0" style=""></path></g></g><g class="node default " id="ref-ext-fixtures-cypress-class-181-classId-C3-11" data-look="classic" transform="translate(108, 15)"><g class="basic label-container outer-path"><path d="M-72 -37 L72 -37 L72 37 L-72 37" stroke="none" stroke-width="0" fill="#ECECFF" style=""></path><path d="M-72 -37 C-39.12102634384523 -37, -6.24205268769046 -37, 72 -37 M-72 -37 C-39.74526319200958 -37, -7.490526384019162 -37, 72 -37 M72 -37 C72 -14.154388073797172, 72 8.691223852405656, 72 37 M72 -37 C72 -17.53824358731943, 72 1.9235128253611435, 72 37 M72 37 C23.04259534875625 37, -25.914809302487498 37, -72 37 M72 37 C30.783000967277935 37, -10.433998065444129 37, -72 37 M-72 37 C-72 16.409292012471447, -72 -4.1814159750571065, -72 -37 M-72 37 C-72 16.49039499241478, -72 -4.019210015170437, -72 -37" stroke="#9370DB" stroke-width="1.3" fill="none" stroke-dasharray="0 0" style=""></path></g><g class="annotation-group text" transform="translate(0, -13)"></g><g class="label-group text" transform="translate(-60, -13)"><g class="label" style="font-weight: bolder" transform="translate(0,0)"><foreignObject width="0" height="0"><div style="display: table-cell; white-space: nowrap; line-height: 1.5; max-width: 170px; text-align: center;" xmlns="http://www.w3.org/1999/xhtml"><span class="nodeLabel markdown-node-label" style=""><p>With (Brackets)</p></span></div></foreignObject></g></g><g class="members-group text" transform="translate(-60, 25)"></g><g class="methods-group text" transform="translate(-60, 71)"></g><g class="divider" style=""><path d="M0 15 C0 15.000297774185519, 0 15.000595548371038, 0 15.001 M0 15 C0 15.000229559943394, 0 15.00045911988679, 0 15.001" stroke="#9370DB" stroke-width="1.3" fill="none" stroke-dasharray="0 0" style=""></path></g><g class="divider" style=""><path d="M0 47 C0 47.00029347255187, 0 47.00058694510374, 0 47.001 M0 47 C0 47.00038709251815, 0 47.000774185036306, 0 47.001" stroke="#9370DB" stroke-width="1.3" fill="none" stroke-dasharray="0 0" style=""></path></g></g><g class="node default " id="ref-ext-fixtures-cypress-class-181-classId-C4-12" data-look="classic" transform="translate(158, 15)"><g class="basic label-container outer-path"><path d="M-72 -37 L72 -37 L72 37 L-72 37" stroke="none" stroke-width="0" fill="#ECECFF" style=""></path><path d="M-72 -37 C-18.836484916678195 -37, 34.32703016664361 -37, 72 -37 M-72 -37 C-23.385586743224067 -37, 25.228826513551866 -37, 72 -37 M72 -37 C72 -17.81952961482488, 72 1.3609407703502399, 72 37 M72 -37 C72 -17.829491738364663, 72 1.3410165232706746, 72 37 M72 37 C40.16588486990227 37, 8.331769739804535 37, -72 37 M72 37 C20.406894717038256 37, -31.18621056592349 37, -72 37 M-72 37 C-72 13.428353280959644, -72 -10.143293438080711, -72 -37 M-72 37 C-72 10.474072097243756, -72 -16.05185580551249, -72 -37" stroke="#9370DB" stroke-width="1.3" fill="none" stroke-dasharray="0 0" style=""></path></g><g class="annotation-group text" transform="translate(0, -13)"></g><g class="label-group text" transform="translate(-60, -13)"><g class="label" style="font-weight: bolder" transform="translate(0,0)"><foreignObject width="0" height="0"><div style="display: table-cell; white-space: nowrap; line-height: 1.5; max-width: 170px; text-align: center;" xmlns="http://www.w3.org/1999/xhtml"><span class="nodeLabel markdown-node-label" style=""><p>With [Brackets]</p></span></div></foreignObject></g></g><g class="members-group text" transform="translate(-60, 25)"></g><g class="methods-group text" transform="translate(-60, 71)"></g><g class="divider" style=""><path d="M0 15 C0 15.000215836150385, 0 15.000431672300769, 0 15.001 M0 15 C0 15.000258642264363, 0 15.000517284528724, 0 15.001" stroke="#9370DB" stroke-width="1.3" fill="none" stroke-dasharray="0 0" style=""></path></g><g class="divider" style=""><path d="M0 47 C0 47.00026412661313, 0 47.000528253226264, 0 47.001 M0 47 C0 47.00023849257574, 0 47.00047698515148, 0 47.001" stroke="#9370DB" stroke-width="1.3" fill="none" stroke-dasharray="0 0" style=""></path></g></g><g class="node default " id="ref-ext-fixtures-cypress-class-181-classId-C5-13" data-look="classic" transform="translate(208, 15)"><g class="basic label-container outer-path"><path d="M-72 -37 L72 -37 L72 37 L-72 37" stroke="none" stroke-width="0" fill="#ECECFF" style=""></path><path d="M-72 -37 C-25.27042268966958 -37, 21.45915462066084 -37, 72 -37 M-72 -37 C-39.02834396011312 -37, -6.0566879202262385 -37, 72 -37 M72 -37 C72 -20.033088290728333, 72 -3.0661765814566664, 72 37 M72 -37 C72 -19.603980086392994, 72 -2.207960172785988, 72 37 M72 37 C17.167612569447122 37, -37.664774861105755 37, -72 37 M72 37 C36.63442472438812 37, 1.268849448776237 37, -72 37 M-72 37 C-72 12.450842453002657, -72 -12.098315093994685, -72 -37 M-72 37 C-72 16.608665167565675, -72 -3.7826696648686493, -72 -37" stroke="#9370DB" stroke-width="1.3" fill="none" stroke-dasharray="0 0" style=""></path></g><g class="annotation-group text" transform="translate(0, -13)"></g><g class="label-group text" transform="translate(-60, -13)"><g class="label" style="font-weight: bolder" transform="translate(0,0)"><foreignObject width="0" height="0"><div style="display: table-cell; white-space: nowrap; line-height: 1.5; max-width: 170px; text-align: center;" xmlns="http://www.w3.org/1999/xhtml"><span class="nodeLabel markdown-node-label" style=""><p>With {Brackets}</p></span></div></foreignObject></g></g><g class="members-group text" transform="translate(-60, 25)"></g><g class="methods-group text" transform="translate(-60, 71)"></g><g class="divider" style=""><path d="M0 15 C0 15.000370733289445, 0 15.000741466578889, 0 15.001 M0 15 C0 15.000372943595384, 0 15.000745887190769, 0 15.001" stroke="#9370DB" stroke-width="1.3" fill="none" stroke-dasharray="0 0" style=""></path></g><g class="divider" style=""><path d="M0 47 C0 47.000257166735146, 0 47.000514333470285, 0 47.001 M0 47 C0 47.000385739337524, 0 47.00077147867504, 0 47.001" stroke="#9370DB" stroke-width="1.3" fill="none" stroke-dasharray="0 0" style=""></path></g></g><g class="node default " id="ref-ext-fixtures-cypress-class-181-classId-C7-14" data-look="classic" transform="translate(258, 15)"><g class="basic label-container outer-path"><path d="M-64 -37 L64 -37 L64 37 L-64 37" stroke="none" stroke-width="0" fill="#ECECFF" style=""></path><path d="M-64 -37 C-29.602063296769913 -37, 4.795873406460174 -37, 64 -37 M-64 -37 C-13.904847305419366 -37, 36.19030538916127 -37, 64 -37 M64 -37 C64 -19.128983198145427, 64 -1.257966396290854, 64 37 M64 -37 C64 -12.444580653866794, 64 12.110838692266412, 64 37 M64 37 C16.488588103318463 37, -31.022823793363074 37, -64 37 M64 37 C23.155314922470225 37, -17.68937015505955 37, -64 37 M-64 37 C-64 11.704387553317513, -64 -13.591224893364974, -64 -37 M-64 37 C-64 8.962441264230609, -64 -19.075117471538782, -64 -37" stroke="#9370DB" stroke-width="1.3" fill="none" stroke-dasharray="0 0" style=""></path></g><g class="annotation-group text" transform="translate(0, -13)"></g><g class="label-group text" transform="translate(-52, -13)"><g class="label" style="font-weight: bolder" transform="translate(0,0)"><foreignObject width="0" height="0"><div style="display: table-cell; white-space: nowrap; line-height: 1.5; max-width: 154px; text-align: center;" xmlns="http://www.w3.org/1999/xhtml"><span class="nodeLabel markdown-node-label" style=""><p>With 1 number</p></span></div></foreignObject></g></g><g class="members-group text" transform="translate(-52, 25)"></g><g class="methods-group text" transform="translate(-52, 71)"></g><g class="divider" style=""><path d="M0 15 C0 15.000240928260117, 0 15.000481856520235, 0 15.001 M0 15 C0 15.00027107407994, 0 15.000542148159878, 0 15.001" stroke="#9370DB" stroke-width="1.3" fill="none" stroke-dasharray="0 0" style=""></path></g><g class="divider" style=""><path d="M0 47 C0 47.00027458389831, 0 47.00054916779661, 0 47.001 M0 47 C0 47.000237834028404, 0 47.0004756680568, 0 47.001" stroke="#9370DB" stroke-width="1.3" fill="none" stroke-dasharray="0 0" style=""></path></g></g><g class="node default " id="ref-ext-fixtures-cypress-class-181-classId-C8-15" data-look="classic" transform="translate(308, 15)"><g class="basic label-container outer-path"><path d="M-76 -37 L76 -37 L76 37 L-76 37" stroke="none" stroke-width="0" fill="#ECECFF" style=""></path><path d="M-76 -37 C-26.736447927654062 -37, 22.527104144691876 -37, 76 -37 M-76 -37 C-20.940393744705595 -37, 34.11921251058881 -37, 76 -37 M76 -37 C76 -15.817896235442902, 76 5.364207529114196, 76 37 M76 -37 C76 -12.045996708608165, 76 12.90800658278367, 76 37 M76 37 C29.24510339193072 37, -17.50979321613856 37, -76 37 M76 37 C33.54601471681015 37, -8.907970566379703 37, -76 37 M-76 37 C-76 20.236280098818415, -76 3.472560197636831, -76 -37 M-76 37 C-76 14.060198958254823, -76 -8.879602083490354, -76 -37" stroke="#9370DB" stroke-width="1.3" fill="none" stroke-dasharray="0 0" style=""></path></g><g class="annotation-group text" transform="translate(0, -13)"></g><g class="label-group text" transform="translate(-64, -13)"><g class="label" style="font-weight: bolder" transform="translate(0,0)"><foreignObject width="0" height="0"><div style="display: table-cell; white-space: nowrap; line-height: 1.5; max-width: 178px; text-align: center;" xmlns="http://www.w3.org/1999/xhtml"><span class="nodeLabel markdown-node-label" style=""><p>With . period...</p></span></div></foreignObject></g></g><g class="members-group text" transform="translate(-64, 25)"></g><g class="methods-group text" transform="translate(-64, 71)"></g><g class="divider" style=""><path d="M0 15 C0 15.000329498506744, 0 15.000658997013488, 0 15.001 M0 15 C0 15.000225586512384, 0 15.00045117302477, 0 15.001" stroke="#9370DB" stroke-width="1.3" fill="none" stroke-dasharray="0 0" style=""></path></g><g class="divider" style=""><path d="M0 47 C0 47.00023602380283, 0 47.000472047605655, 0 47.001 M0 47 C0 47.00038170522443, 0 47.00076341044885, 0 47.001" stroke="#9370DB" stroke-width="1.3" fill="none" stroke-dasharray="0 0" style=""></path></g></g><g class="node default " id="ref-ext-fixtures-cypress-class-181-classId-C9-16" data-look="classic" transform="translate(358, 15)"><g class="basic label-container outer-path"><path d="M-56 -37 L56 -37 L56 37 L-56 37" stroke="none" stroke-width="0" fill="#ECECFF" style=""></path><path d="M-56 -37 C-30.928376993222642 -37, -5.856753986445284 -37, 56 -37 M-56 -37 C-23.23558368302635 -37, 9.528832633947303 -37, 56 -37 M56 -37 C56 -10.628954834115838, 56 15.742090331768324, 56 37 M56 -37 C56 -9.598835566482592, 56 17.802328867034817, 56 37 M56 37 C22.406987088599593 37, -11.186025822800815 37, -56 37 M56 37 C30.268179061304473 37, 4.536358122608945 37, -56 37 M-56 37 C-56 9.639780473952069, -56 -17.720439052095863, -56 -37 M-56 37 C-56 18.65400502416212, -56 0.30801004832424184, -56 -37" stroke="#9370DB" stroke-width="1.3" fill="none" stroke-dasharray="0 0" style=""></path></g><g class="annotation-group text" transform="translate(0, -13)"></g><g class="label-group text" transform="translate(-44, -13)"><g class="label" style="font-weight: bolder" transform="translate(0,0)"><foreignObject width="0" height="0"><div style="display: table-cell; white-space: nowrap; line-height: 1.5; max-width: 138px; text-align: center;" xmlns="http://www.w3.org/1999/xhtml"><span class="nodeLabel markdown-node-label" style=""><p>With - dash</p></span></div></foreignObject></g></g><g class="members-group text" transform="translate(-44, 25)"></g><g class="methods-group text" transform="translate(-44, 71)"></g><g class="divider" style=""><path d="M0 15 C0 15.000216568820571, 0 15.000433137641142, 0 15.001 M0 15 C0 15.000308791551056, 0 15.000617583102112, 0 15.001" stroke="#9370DB" stroke-width="1.3" fill="none" stroke-dasharray="0 0" style=""></path></g><g class="divider" style=""><path d="M0 47 C0 47.00020489320373, 0 47.00040978640747, 0 47.001 M0 47 C0 47.00039131626759, 0 47.00078263253517, 0 47.001" stroke="#9370DB" stroke-width="1.3" fill="none" stroke-dasharray="0 0" style=""></path></g></g><g class="node default " id="ref-ext-fixtures-cypress-class-181-classId-C10-17" data-look="classic" transform="translate(408, 15)"><g class="basic label-container outer-path"><path d="M-80 -37 L80 -37 L80 37 L-80 37" stroke="none" stroke-width="0" fill="#ECECFF" style=""></path><path d="M-80 -37 C-30.809413117986495 -37, 18.38117376402701 -37, 80 -37 M-80 -37 C-43.33124112371194 -37, -6.662482247423881 -37, 80 -37 M80 -37 C80 -18.245785387549912, 80 0.5084292249001763, 80 37 M80 -37 C80 -17.841053012430073, 80 1.317893975139853, 80 37 M80 37 C21.114648496648144 37, -37.77070300670371 37, -80 37 M80 37 C31.533068672142086 37, -16.933862655715828 37, -80 37 M-80 37 C-80 14.967703410284535, -80 -7.064593179430929, -80 -37 M-80 37 C-80 11.47044914760988, -80 -14.05910170478024, -80 -37" stroke="#9370DB" stroke-width="1.3" fill="none" stroke-dasharray="0 0" style=""></path></g><g class="annotation-group text" transform="translate(0, -13)"></g><g class="label-group text" transform="translate(-68, -13)"><g class="label" style="font-weight: bolder" transform="translate(0,0)"><foreignObject width="0" height="0"><div style="display: table-cell; white-space: nowrap; line-height: 1.5; max-width: 186px; text-align: center;" xmlns="http://www.w3.org/1999/xhtml"><span class="nodeLabel markdown-node-label" style=""><p>With _ underscore</p></span></div></foreignObject></g></g><g class="members-group text" transform="translate(-68, 25)"></g><g class="methods-group text" transform="translate(-68, 71)"></g><g class="divider" style=""><path d="M0 15 C0 15.00026539278194, 0 15.000530785563877, 0 15.001 M0 15 C0 15.00030899754051, 0 15.000617995081017, 0 15.001" stroke="#9370DB" stroke-width="1.3" fill="none" stroke-dasharray="0 0" style=""></path></g><g class="divider" style=""><path d="M0 47 C0 47.00020826884444, 0 47.000416537688885, 0 47.001 M0 47 C0 47.00028636997603, 0 47.00057273995206, 0 47.001" stroke="#9370DB" stroke-width="1.3" fill="none" stroke-dasharray="0 0" style=""></path></g></g><g class="node default " id="ref-ext-fixtures-cypress-class-181-classId-C11-18" data-look="classic" transform="translate(458, 15)"><g class="basic label-container outer-path"><path d="M-88 -37 L88 -37 L88 37 L-88 37" stroke="none" stroke-width="0" fill="#ECECFF" style=""></path><path d="M-88 -37 C-50.93993075765469 -37, -13.879861515309386 -37, 88 -37 M-88 -37 C-38.49699112193768 -37, 11.006017756124635 -37, 88 -37 M88 -37 C88 -20.612230934584023, 88 -4.224461869168046, 88 37 M88 -37 C88 -12.934613049815102, 88 11.130773900369796, 88 37 M88 37 C52.758279130389894 37, 17.51655826077979 37, -88 37 M88 37 C41.853651920983225 37, -4.29269615803355 37, -88 37 M-88 37 C-88 17.847910237672554, -88 -1.3041795246548915, -88 -37 M-88 37 C-88 20.39190774945101, -88 3.7838154989020225, -88 -37" stroke="#9370DB" stroke-width="1.3" fill="none" stroke-dasharray="0 0" style=""></path></g><g class="annotation-group text" transform="translate(0, -13)"></g><g class="label-group text" transform="translate(-76, -13)"><g class="label" style="font-weight: bolder" transform="translate(0,0)"><foreignObject width="0" height="0"><div style="display: table-cell; white-space: nowrap; line-height: 1.5; max-width: 202px; text-align: center;" xmlns="http://www.w3.org/1999/xhtml"><span class="nodeLabel markdown-node-label" style=""><p>With ' single quote</p></span></div></foreignObject></g></g><g class="members-group text" transform="translate(-76, 25)"></g><g class="methods-group text" transform="translate(-76, 71)"></g><g class="divider" style=""><path d="M0 15 C0 15.000385821869372, 0 15.000771643738744, 0 15.001 M0 15 C0 15.000331521454754, 0 15.000663042909506, 0 15.001" stroke="#9370DB" stroke-width="1.3" fill="none" stroke-dasharray="0 0" style=""></path></g><g class="divider" style=""><path d="M0 47 C0 47.00035699460243, 0 47.00071398920485, 0 47.001 M0 47 C0 47.00034508013363, 0 47.000690160267254, 0 47.001" stroke="#9370DB" stroke-width="1.3" fill="none" stroke-dasharray="0 0" style=""></path></g></g><g class="node default " id="ref-ext-fixtures-cypress-class-181-classId-C12-19" data-look="classic" transform="translate(508, 15)"><g class="basic label-container outer-path"><path d="M-100 -37 L100 -37 L100 37 L-100 37" stroke="none" stroke-width="0" fill="#ECECFF" style=""></path><path d="M-100 -37 C-32.549254709658456 -37, 34.90149058068309 -37, 100 -37 M-100 -37 C-41.79477994744916 -37, 16.410440105101685 -37, 100 -37 M100 -37 C100 -15.401668937586841, 100 6.196662124826318, 100 37 M100 -37 C100 -11.814253884399005, 100 13.37149223120199, 100 37 M100 37 C25.003750873316406 37, -49.99249825336719 37, -100 37 M100 37 C39.96456634827281 37, -20.070867303454378 37, -100 37 M-100 37 C-100 20.606283933870703, -100 4.212567867741406, -100 -37 M-100 37 C-100 7.754348992115403, -100 -21.491302015769193, -100 -37" stroke="#9370DB" stroke-width="1.3" fill="none" stroke-dasharray="0 0" style=""></path></g><g class="annotation-group text" transform="translate(0, -13)"></g><g class="label-group text" transform="translate(-88, -13)"><g class="label" style="font-weight: bolder" transform="translate(0,0)"><foreignObject width="0" height="0"><div style="display: table-cell; white-space: nowrap; line-height: 1.5; max-width: 226px; text-align: center;" xmlns="http://www.w3.org/1999/xhtml"><span class="nodeLabel markdown-node-label" style=""><p>With ~!@#$%^&amp;*()_+=-/?</p></span></div></foreignObject></g></g><g class="members-group text" transform="translate(-88, 25)"></g><g class="methods-group text" transform="translate(-88, 71)"></g><g class="divider" style=""><path d="M0 15 C0 15.000367023090018, 0 15.000734046180034, 0 15.001 M0 15 C0 15.000353578664237, 0 15.000707157328474, 0 15.001" stroke="#9370DB" stroke-width="1.3" fill="none" stroke-dasharray="0 0" style=""></path></g><g class="divider" style=""><path d="M0 47 C0 47.000301493642176, 0 47.00060298728435, 0 47.001 M0 47 C0 47.00020993212847, 0 47.00041986425694, 0 47.001" stroke="#9370DB" stroke-width="1.3" fill="none" stroke-dasharray="0 0" style=""></path></g></g><g class="node default " id="ref-ext-fixtures-cypress-class-181-classId-C13-20" data-look="classic" transform="translate(558, 15)"><g class="basic label-container outer-path"><path d="M-120 -37 L120 -37 L120 37 L-120 37" stroke="none" stroke-width="0" fill="#ECECFF" style=""></path><path d="M-120 -37 C-64.0726121825674 -37, -8.145224365134794 -37, 120 -37 M-120 -37 C-29.642127423355788 -37, 60.715745153288424 -37, 120 -37 M120 -37 C120 -22.029635057323365, 120 -7.059270114646729, 120 37 M120 -37 C120 -10.50020980890151, 120 15.999580382196982, 120 37 M120 37 C49.3762867799791 37, -21.247426440041806 37, -120 37 M120 37 C54.4545683939681 37, -11.090863212063795 37, -120 37 M-120 37 C-120 18.81632547974573, -120 0.6326509594914569, -120 -37 M-120 37 C-120 10.929944083106733, -120 -15.140111833786534, -120 -37" stroke="#9370DB" stroke-width="1.3" fill="none" stroke-dasharray="0 0" style=""></path></g><g class="annotation-group text" transform="translate(0, -13)"></g><g class="label-group text" transform="translate(-108, -13)"><g class="label" style="font-weight: bolder" transform="translate(0,0)"><foreignObject width="0" height="0"><div style="display: table-cell; white-space: nowrap; line-height: 1.5; max-width: 266px; text-align: center;" xmlns="http://www.w3.org/1999/xhtml"><span class="nodeLabel markdown-node-label" style=""><p>With Città foreign language</p></span></div></foreignObject></g></g><g class="members-group text" transform="translate(-108, 25)"></g><g class="methods-group text" transform="translate(-108, 71)"></g><g class="divider" style=""><path d="M0 15 C0 15.000397347183677, 0 15.000794694367354, 0 15.001 M0 15 C0 15.000244569742586, 0 15.000489139485172, 0 15.001" stroke="#9370DB" stroke-width="1.3" fill="none" stroke-dasharray="0 0" style=""></path></g><g class="divider" style=""><path d="M0 47 C0 47.00031298432753, 0 47.00062596865505, 0 47.001 M0 47 C0 47.00033671273256, 0 47.000673425465116, 0 47.001" stroke="#9370DB" stroke-width="1.3" fill="none" stroke-dasharray="0 0" style=""></path></g></g></g></g></g><defs><filter id="ref-ext-fixtures-cypress-class-181-drop-shadow" height="130%" width="130%"><feDropShadow dx="4" dy="4" stdDeviation="0" flood-opacity="0.06" flood-color="#000000"></feDropShadow></filter></defs><defs><filter id="ref-ext-fixtures-cypress-class-181-drop-shadow-small" height="150%" width="150%"><feDropShadow dx="2" dy="2" stdDeviation="0" flood-opacity="0.06" flood-color="#000000"></feDropShadow></filter></defs></svg>