<svg id="ref-ext-fixtures-cypress-xychart-04" width="100%" xmlns="http://www.w3.org/2000/svg" style="max-width: 700px;" viewBox="0 0 700 500" role="graphics-document document" aria-roledescription="xychart"><style>#ref-ext-fixtures-cypress-xychart-04{font-family:"trebuchet ms",verdana,arial,sans-serif;font-size:16px;fill:#333;}@keyframes edge-animation-frame{from{stroke-dashoffset:0;}}@keyframes dash{to{stroke-dashoffset:0;}}#ref-ext-fixtures-cypress-xychart-04 .edge-animation-slow{stroke-dasharray:9,5!important;stroke-dashoffset:900;animation:dash 50s linear infinite;stroke-linecap:round;}#ref-ext-fixtures-cypress-xychart-04 .edge-animation-fast{stroke-dasharray:9,5!important;stroke-dashoffset:900;animation:dash 20s linear infinite;stroke-linecap:round;}#ref-ext-fixtures-cypress-xychart-04 .error-icon{fill:#552222;}#ref-ext-fixtures-cypress-xychart-04 .error-text{fill:#552222;stroke:#552222;}#ref-ext-fixtures-cypress-xychart-04 .edge-thickness-normal{stroke-width:1px;}#ref-ext-fixtures-cypress-xychart-04 .edge-thickness-thick{stroke-width:3.5px;}#ref-ext-fixtures-cypress-xychart-04 .edge-pattern-solid{stroke-dasharray:0;}#ref-ext-fixtures-cypress-xychart-04 .edge-thickness-invisible{stroke-width:0;fill:none;}#ref-ext-fixtures-cypress-xychart-04 .edge-pattern-dashed{stroke-dasharray:3;}#ref-ext-fixtures-cypress-xychart-04 .edge-pattern-dotted{stroke-dasharray:2;}#ref-ext-fixtures-cypress-xychart-04 .marker{fill:#333333;stroke:#333333;}#ref-ext-fixtures-cypress-xychart-04 .marker.cross{stroke:#333333;}#ref-ext-fixtures-cypress-xychart-04 svg{font-family:"trebuchet ms",verdana,arial,sans-serif;font-size:16px;}#ref-ext-fixtures-cypress-xychart-04 p{margin:0;}#ref-ext-fixtures-cypress-xychart-04 .node .neo-node{stroke:#9370DB;}#ref-ext-fixtures-cypress-xychart-04 [data-look="neo"].node rect,#ref-ext-fixtures-cypress-xychart-04 [data-look="neo"].cluster rect,#ref-ext-fixtures-cypress-xychart-04 [data-look="neo"].node polygon{stroke:#9370DB;filter:drop-shadow(1px 2px 2px rgba(185, 185, 185, 1));}#ref-ext-fixtures-cypress-xychart-04 [data-look="neo"].node path{stroke:#9370DB;stroke-width:1px;}#ref-ext-fixtures-cypress-xychart-04 [data-look="neo"].node .outer-path{filter:drop-shadow(1px 2px 2px rgba(185, 185, 185, 1));}#ref-ext-fixtures-cypress-xychart-04 [data-look="neo"].node .neo-line path{stroke:#9370DB;filter:none;}#ref-ext-fixtures-cypress-xychart-04 [data-look="neo"].node circle{stroke:#9370DB;filter:drop-shadow(1px 2px 2px rgba(185, 185, 185, 1));}#ref-ext-fixtures-cypress-xychart-04 [data-look="neo"].node circle .state-start{fill:#000000;}#ref-ext-fixtures-cypress-xychart-04 [data-look="neo"].icon-shape .icon{fill:#9370DB;filter:drop-shadow(1px 2px 2px rgba(185, 185, 185, 1));}#ref-ext-fixtures-cypress-xychart-04 [data-look="neo"].icon-shape .icon-neo path{stroke:#9370DB;filter:drop-shadow(1px 2px 2px rgba(185, 185, 185, 1));}#ref-ext-fixtures-cypress-xychart-04 :root{--mermaid-font-family:"trebuchet ms",verdana,arial,sans-serif;}</style><g></g><g class="main"><rect width="700" height="500" class="background" fill="white"></rect><g class="plot"><g class="bar-plot-0"><rect x="27.95" y="405.42857142857144" width="36.1" height="67.57142857142856" fill="#ECECFF" stroke="#ECECFF" stroke-width="0"></rect><rect x="85.67727272727272" y="337.8571428571429" width="36.1" height="135.1428571428571" fill="#ECECFF" stroke="#ECECFF" stroke-width="0"></rect><rect x="143.40454545454543" y="236.5" width="36.1" height="236.5" fill="#ECECFF" stroke="#ECECFF" stroke-width="0"></rect><rect x="201.13181818181818" y="189.20000000000002" width="36.1" height="283.79999999999995" fill="#ECECFF" stroke="#ECECFF" stroke-width="0"></rect><rect x="258.85909090909087" y="101.35714285714286" width="36.1" height="371.6428571428571" fill="#ECECFF" stroke="#ECECFF" stroke-width="0"></rect><rect x="316.5863636363636" y="33.78571428571427" width="36.1" height="439.2142857142857" fill="#ECECFF" stroke="#ECECFF" stroke-width="0"></rect><rect x="374.31363636363636" y="0" width="36.1" height="473" fill="#ECECFF" stroke="#ECECFF" stroke-width="0"></rect><rect x="432.04090909090905" y="54.05714285714288" width="36.1" height="418.9428571428571" fill="#ECECFF" stroke="#ECECFF" stroke-width="0"></rect><rect x="489.7681818181818" y="121.62857142857142" width="36.1" height="351.37142857142857" fill="#ECECFF" stroke="#ECECFF" stroke-width="0"></rect><rect x="547.4954545454545" y="168.92857142857142" width="36.1" height="304.07142857142856" fill="#ECECFF" stroke="#ECECFF" stroke-width="0"></rect><rect x="605.2227272727273" y="270.2857142857143" width="36.1" height="202.71428571428572" fill="#ECECFF" stroke="#ECECFF" stroke-width="0"></rect><rect x="662.95" y="337.8571428571429" width="36.1" height="135.1428571428571" fill="#ECECFF" stroke="#ECECFF" stroke-width="0"></rect></g><g class="line-plot-1"><path d="M46,405.429L103.727,337.857L161.455,236.5L219.182,189.2L276.909,101.357L334.636,33.786L392.364,0L450.091,54.057L507.818,121.629L565.545,168.929L623.273,270.286L681,337.857" fill="none" stroke="#8493A6" stroke-width="2"></path></g></g><g class="bottom-axis"><g class="axis-line"><path d="M 27,474 L 700,474" fill="none" stroke="#131300" stroke-width="2"></path></g><g class="label"><text x="0" y="0" fill="#131300" font-size="14" dominant-baseline="text-before-edge" text-anchor="middle" transform="translate(46, 485) rotate(0)">jan</text><text x="0" y="0" fill="#131300" font-size="14" dominant-baseline="text-before-edge" text-anchor="middle" transform="translate(103.72727272727272, 485) rotate(0)">feb</text><text x="0" y="0" fill="#131300" font-size="14" dominant-baseline="text-before-edge" text-anchor="middle" transform="translate(161.45454545454544, 485) rotate(0)">mar</text><text x="0" y="0" fill="#131300" font-size="14" dominant-baseline="text-before-edge" text-anchor="middle" transform="translate(219.1818181818182, 485) rotate(0)">apr</text><text x="0" y="0" fill="#131300" font-size="14" dominant-baseline="text-before-edge" text-anchor="middle" transform="translate(276.9090909090909, 485) rotate(0)">may</text><text x="0" y="0" fill="#131300" font-size="14" dominant-baseline="text-before-edge" text-anchor="middle" transform="translate(334.6363636363636, 485) rotate(0)">jun</text><text x="0" y="0" fill="#131300" font-size="14" dominant-baseline="text-before-edge" text-anchor="middle" transform="translate(392.3636363636364, 485) rotate(0)">jul</text><text x="0" y="0" fill="#131300" font-size="14" dominant-baseline="text-before-edge" text-anchor="middle" transform="translate(450.09090909090907, 485) rotate(0)">aug</text><text x="0" y="0" fill="#131300" font-size="14" dominant-baseline="text-before-edge" text-anchor="middle" transform="translate(507.8181818181818, 485) rotate(0)">sep</text><text x="0" y="0" fill="#131300" font-size="14" dominant-baseline="text-before-edge" text-anchor="middle" transform="translate(565.5454545454545, 485) rotate(0)">oct</text><text x="0" y="0" fill="#131300" font-size="14" dominant-baseline="text-before-edge" text-anchor="middle" transform="translate(623.2727272727273, 485) rotate(0)">nov</text><text x="0" y="0" fill="#131300" font-size="14" dominant-baseline="text-before-edge" text-anchor="middle" transform="translate(681, 485) rotate(0)">dec</text></g><g class="ticks"><path d="M 46,475 L 46,480" fill="none" stroke="#131300" stroke-width="2"></path><path d="M 103.72727272727272,475 L 103.72727272727272,480" fill="none" stroke="#131300" stroke-width="2"></path><path d="M 161.45454545454544,475 L 161.45454545454544,480" fill="none" stroke="#131300" stroke-width="2"></path><path d="M 219.1818181818182,475 L 219.1818181818182,480" fill="none" stroke="#131300" stroke-width="2"></path><path d="M 276.9090909090909,475 L 276.9090909090909,480" fill="none" stroke="#131300" stroke-width="2"></path><path d="M 334.6363636363636,475 L 334.6363636363636,480" fill="none" stroke="#131300" stroke-width="2"></path><path d="M 392.3636363636364,475 L 392.3636363636364,480" fill="none" stroke="#131300" stroke-width="2"></path><path d="M 450.09090909090907,475 L 450.09090909090907,480" fill="none" stroke="#131300" stroke-width="2"></path><path d="M 507.8181818181818,475 L 507.8181818181818,480" fill="none" stroke="#131300" stroke-width="2"></path><path d="M 565.5454545454545,475 L 565.5454545454545,480" fill="none" stroke="#131300" stroke-width="2"></path><path d="M 623.2727272727273,475 L 623.2727272727273,480" fill="none" stroke="#131300" stroke-width="2"></path><path d="M 681,475 L 681,480" fill="none" stroke="#131300" stroke-width="2"></path></g><g class="title"><text x="0" y="0" fill="#131300" font-size="16" dominant-baseline="text-before-edge" text-anchor="middle" transform="translate(363.5, 495) rotate(0)">Months</text></g></g><g class="left-axis"><g class="axisl-line"><path d="M 26,0 L 26,473 " fill="none" stroke="#131300" stroke-width="2"></path></g><g class="label"><text x="0" y="0" fill="#131300" font-size="14" dominant-baseline="middle" text-anchor="end" transform="translate(15, 0) rotate(0)">11000</text><text x="0" y="0" fill="#131300" font-size="14" dominant-baseline="middle" text-anchor="end" transform="translate(15, 33.78571428571427) rotate(0)">10500</text><text x="0" y="0" fill="#131300" font-size="14" dominant-baseline="middle" text-anchor="end" transform="translate(15, 67.5714285714286) rotate(0)">10000</text><text x="0" y="0" fill="#131300" font-size="14" dominant-baseline="middle" text-anchor="end" transform="translate(15, 101.35714285714286) rotate(0)">9500</text><text x="0" y="0" fill="#131300" font-size="14" dominant-baseline="middle" text-anchor="end" transform="translate(15, 135.14285714285714) rotate(0)">9000</text><text x="0" y="0" fill="#131300" font-size="14" dominant-baseline="middle" text-anchor="end" transform="translate(15, 168.92857142857142) rotate(0)">8500</text><text x="0" y="0" fill="#131300" font-size="14" dominant-baseline="middle" text-anchor="end" transform="translate(15, 202.71428571428572) rotate(0)">8000</text><text x="0" y="0" fill="#131300" font-size="14" dominant-baseline="middle" text-anchor="end" transform="translate(15, 236.5) rotate(0)">7500</text><text x="0" y="0" fill="#131300" font-size="14" dominant-baseline="middle" text-anchor="end" transform="translate(15, 270.2857142857143) rotate(0)">7000</text><text x="0" y="0" fill="#131300" font-size="14" dominant-baseline="middle" text-anchor="end" transform="translate(15, 304.07142857142856) rotate(0)">6500</text><text x="0" y="0" fill="#131300" font-size="14" dominant-baseline="middle" text-anchor="end" transform="translate(15, 337.8571428571429) rotate(0)">6000</text><text x="0" y="0" fill="#131300" font-size="14" dominant-baseline="middle" text-anchor="end" transform="translate(15, 371.6428571428571) rotate(0)">5500</text><text x="0" y="0" fill="#131300" font-size="14" dominant-baseline="middle" text-anchor="end" transform="translate(15, 405.42857142857144) rotate(0)">5000</text><text x="0" y="0" fill="#131300" font-size="14" dominant-baseline="middle" text-anchor="end" transform="translate(15, 439.2142857142857) rotate(0)">4500</text><text x="0" y="0" fill="#131300" font-size="14" dominant-baseline="middle" text-anchor="end" transform="translate(15, 473) rotate(0)">4000</text></g><g class="ticks"><path d="M 25,0 L 20,0" fill="none" stroke="#131300" stroke-width="2"></path><path d="M 25,33.78571428571427 L 20,33.78571428571427" fill="none" stroke="#131300" stroke-width="2"></path><path d="M 25,67.5714285714286 L 20,67.5714285714286" fill="none" stroke="#131300" stroke-width="2"></path><path d="M 25,101.35714285714286 L 20,101.35714285714286" fill="none" stroke="#131300" stroke-width="2"></path><path d="M 25,135.14285714285714 L 20,135.14285714285714" fill="none" stroke="#131300" stroke-width="2"></path><path d="M 25,168.92857142857142 L 20,168.92857142857142" fill="none" stroke="#131300" stroke-width="2"></path><path d="M 25,202.71428571428572 L 20,202.71428571428572" fill="none" stroke="#131300" stroke-width="2"></path><path d="M 25,236.5 L 20,236.5" fill="none" stroke="#131300" stroke-width="2"></path><path d="M 25,270.2857142857143 L 20,270.2857142857143" fill="none" stroke="#131300" stroke-width="2"></path><path d="M 25,304.07142857142856 L 20,304.07142857142856" fill="none" stroke="#131300" stroke-width="2"></path><path d="M 25,337.8571428571429 L 20,337.8571428571429" fill="none" stroke="#131300" stroke-width="2"></path><path d="M 25,371.6428571428571 L 20,371.6428571428571" fill="none" stroke="#131300" stroke-width="2"></path><path d="M 25,405.42857142857144 L 20,405.42857142857144" fill="none" stroke="#131300" stroke-width="2"></path><path d="M 25,439.2142857142857 L 20,439.2142857142857" fill="none" stroke="#131300" stroke-width="2"></path><path d="M 25,473 L 20,473" fill="none" stroke="#131300" stroke-width="2"></path></g><g class="title"><text x="0" y="0" fill="#131300" font-size="16" dominant-baseline="text-before-edge" text-anchor="middle" transform="translate(5, 236.5) rotate(270)">Revenue (in $)</text></g></g></g><g class="mermaid-tmp-group"></g></svg>