<svg id="ref-ext-fixtures-demos-xychart-01" width="100%" xmlns="http://www.w3.org/2000/svg" style="max-width: 700px;" viewBox="0 0 700 500" role="graphics-document document" aria-roledescription="xychart"><style>#ref-ext-fixtures-demos-xychart-01{font-family:"trebuchet ms",verdana,arial,sans-serif;font-size:16px;fill:#333;}@keyframes edge-animation-frame{from{stroke-dashoffset:0;}}@keyframes dash{to{stroke-dashoffset:0;}}#ref-ext-fixtures-demos-xychart-01 .edge-animation-slow{stroke-dasharray:9,5!important;stroke-dashoffset:900;animation:dash 50s linear infinite;stroke-linecap:round;}#ref-ext-fixtures-demos-xychart-01 .edge-animation-fast{stroke-dasharray:9,5!important;stroke-dashoffset:900;animation:dash 20s linear infinite;stroke-linecap:round;}#ref-ext-fixtures-demos-xychart-01 .error-icon{fill:#552222;}#ref-ext-fixtures-demos-xychart-01 .error-text{fill:#552222;stroke:#552222;}#ref-ext-fixtures-demos-xychart-01 .edge-thickness-normal{stroke-width:1px;}#ref-ext-fixtures-demos-xychart-01 .edge-thickness-thick{stroke-width:3.5px;}#ref-ext-fixtures-demos-xychart-01 .edge-pattern-solid{stroke-dasharray:0;}#ref-ext-fixtures-demos-xychart-01 .edge-thickness-invisible{stroke-width:0;fill:none;}#ref-ext-fixtures-demos-xychart-01 .edge-pattern-dashed{stroke-dasharray:3;}#ref-ext-fixtures-demos-xychart-01 .edge-pattern-dotted{stroke-dasharray:2;}#ref-ext-fixtures-demos-xychart-01 .marker{fill:#333333;stroke:#333333;}#ref-ext-fixtures-demos-xychart-01 .marker.cross{stroke:#333333;}#ref-ext-fixtures-demos-xychart-01 svg{font-family:"trebuchet ms",verdana,arial,sans-serif;font-size:16px;}#ref-ext-fixtures-demos-xychart-01 p{margin:0;}#ref-ext-fixtures-demos-xychart-01 .node .neo-node{stroke:#9370DB;}#ref-ext-fixtures-demos-xychart-01 [data-look="neo"].node rect,#ref-ext-fixtures-demos-xychart-01 [data-look="neo"].cluster rect,#ref-ext-fixtures-demos-xychart-01 [data-look="neo"].node polygon{stroke:#9370DB;filter:drop-shadow(1px 2px 2px rgba(185, 185, 185, 1));}#ref-ext-fixtures-demos-xychart-01 [data-look="neo"].node path{stroke:#9370DB;stroke-width:1px;}#ref-ext-fixtures-demos-xychart-01 [data-look="neo"].node .outer-path{filter:drop-shadow(1px 2px 2px rgba(185, 185, 185, 1));}#ref-ext-fixtures-demos-xychart-01 [data-look="neo"].node .neo-line path{stroke:#9370DB;filter:none;}#ref-ext-fixtures-demos-xychart-01 [data-look="neo"].node circle{stroke:#9370DB;filter:drop-shadow(1px 2px 2px rgba(185, 185, 185, 1));}#ref-ext-fixtures-demos-xychart-01 [data-look="neo"].node circle .state-start{fill:#000000;}#ref-ext-fixtures-demos-xychart-01 [data-look="neo"].icon-shape .icon{fill:#9370DB;filter:drop-shadow(1px 2px 2px rgba(185, 185, 185, 1));}#ref-ext-fixtures-demos-xychart-01 [data-look="neo"].icon-shape .icon-neo path{stroke:#9370DB;filter:drop-shadow(1px 2px 2px rgba(185, 185, 185, 1));}#ref-ext-fixtures-demos-xychart-01 :root{--mermaid-font-family:"trebuchet ms",verdana,arial,sans-serif;}</style><g></g><g class="main"><rect width="700" height="500" class="background" fill="white"></rect><g class="chart-title"><text x="0" y="0" fill="#131300" font-size="20" dominant-baseline="middle" text-anchor="middle" transform="translate(350, 10) rotate(0)">Sales Revenue (in $)</text></g><g class="plot"><g class="bar-plot-0"><rect x="27.95" y="416.8571428571429" width="36.1" height="66.14285714285711" fill="#ECECFF" stroke="#ECECFF" stroke-width="0"></rect><rect x="85.67727272727272" y="350.7142857142857" width="36.1" height="132.28571428571428" fill="#ECECFF" stroke="#ECECFF" stroke-width="0"></rect><rect x="143.40454545454543" y="251.5" width="36.1" height="231.5" fill="#ECECFF" stroke="#ECECFF" stroke-width="0"></rect><rect x="201.13181818181818" y="205.20000000000002" width="36.1" height="277.79999999999995" fill="#ECECFF" stroke="#ECECFF" stroke-width="0"></rect><rect x="258.85909090909087" y="119.21428571428572" width="36.1" height="363.7857142857143" fill="#ECECFF" stroke="#ECECFF" stroke-width="0"></rect><rect x="316.5863636363636" y="53.071428571428555" width="36.1" height="429.92857142857144" fill="#ECECFF" stroke="#ECECFF" stroke-width="0"></rect><rect x="374.31363636363636" y="20" width="36.1" height="463" fill="#ECECFF" stroke="#ECECFF" stroke-width="0"></rect><rect x="432.04090909090905" y="72.91428571428574" width="36.1" height="410.0857142857143" fill="#ECECFF" stroke="#ECECFF" stroke-width="0"></rect><rect x="489.7681818181818" y="139.05714285714285" width="36.1" height="343.9428571428572" fill="#ECECFF" stroke="#ECECFF" stroke-width="0"></rect><rect x="547.4954545454545" y="185.35714285714283" width="36.1" height="297.64285714285717" fill="#ECECFF" stroke="#ECECFF" stroke-width="0"></rect><rect x="605.2227272727273" y="284.57142857142856" width="36.1" height="198.42857142857144" fill="#ECECFF" stroke="#ECECFF" stroke-width="0"></rect><rect x="662.95" y="350.7142857142857" width="36.1" height="132.28571428571428" fill="#ECECFF" stroke="#ECECFF" stroke-width="0"></rect></g><g class="line-plot-1"><path d="M46,416.857L103.727,350.714L161.455,251.5L219.182,205.2L276.909,119.214L334.636,53.071L392.364,20L450.091,72.914L507.818,139.057L565.545,185.357L623.273,284.571L681,350.714" fill="none" stroke="#8493A6" stroke-width="2"></path></g></g><g class="bottom-axis"><g class="axis-line"><path d="M 27,484 L 700,484" fill="none" stroke="#131300" stroke-width="2"></path></g><g class="label"><text x="0" y="0" fill="#131300" font-size="14" dominant-baseline="text-before-edge" text-anchor="middle" transform="translate(46, 495) rotate(0)">jan</text><text x="0" y="0" fill="#131300" font-size="14" dominant-baseline="text-before-edge" text-anchor="middle" transform="translate(103.72727272727272, 495) rotate(0)">feb</text><text x="0" y="0" fill="#131300" font-size="14" dominant-baseline="text-before-edge" text-anchor="middle" transform="translate(161.45454545454544, 495) rotate(0)">mar</text><text x="0" y="0" fill="#131300" font-size="14" dominant-baseline="text-before-edge" text-anchor="middle" transform="translate(219.1818181818182, 495) rotate(0)">apr</text><text x="0" y="0" fill="#131300" font-size="14" dominant-baseline="text-before-edge" text-anchor="middle" transform="translate(276.9090909090909, 495) rotate(0)">may</text><text x="0" y="0" fill="#131300" font-size="14" dominant-baseline="text-before-edge" text-anchor="middle" transform="translate(334.6363636363636, 495) rotate(0)">jun</text><text x="0" y="0" fill="#131300" font-size="14" dominant-baseline="text-before-edge" text-anchor="middle" transform="translate(392.3636363636364, 495) rotate(0)">jul</text><text x="0" y="0" fill="#131300" font-size="14" dominant-baseline="text-before-edge" text-anchor="middle" transform="translate(450.09090909090907, 495) rotate(0)">aug</text><text x="0" y="0" fill="#131300" font-size="14" dominant-baseline="text-before-edge" text-anchor="middle" transform="translate(507.8181818181818, 495) rotate(0)">sep</text><text x="0" y="0" fill="#131300" font-size="14" dominant-baseline="text-before-edge" text-anchor="middle" transform="translate(565.5454545454545, 495) rotate(0)">oct</text><text x="0" y="0" fill="#131300" font-size="14" dominant-baseline="text-before-edge" text-anchor="middle" transform="translate(623.2727272727273, 495) rotate(0)">nov</text><text x="0" y="0" fill="#131300" font-size="14" dominant-baseline="text-before-edge" text-anchor="middle" transform="translate(681, 495) rotate(0)">dec</text></g><g class="ticks"><path d="M 46,485 L 46,490" fill="none" stroke="#131300" stroke-width="2"></path><path d="M 103.72727272727272,485 L 103.72727272727272,490" fill="none" stroke="#131300" stroke-width="2"></path><path d="M 161.45454545454544,485 L 161.45454545454544,490" fill="none" stroke="#131300" stroke-width="2"></path><path d="M 219.1818181818182,485 L 219.1818181818182,490" fill="none" stroke="#131300" stroke-width="2"></path><path d="M 276.9090909090909,485 L 276.9090909090909,490" fill="none" stroke="#131300" stroke-width="2"></path><path d="M 334.6363636363636,485 L 334.6363636363636,490" fill="none" stroke="#131300" stroke-width="2"></path><path d="M 392.3636363636364,485 L 392.3636363636364,490" fill="none" stroke="#131300" stroke-width="2"></path><path d="M 450.09090909090907,485 L 450.09090909090907,490" fill="none" stroke="#131300" stroke-width="2"></path><path d="M 507.8181818181818,485 L 507.8181818181818,490" fill="none" stroke="#131300" stroke-width="2"></path><path d="M 565.5454545454545,485 L 565.5454545454545,490" fill="none" stroke="#131300" stroke-width="2"></path><path d="M 623.2727272727273,485 L 623.2727272727273,490" fill="none" stroke="#131300" stroke-width="2"></path><path d="M 681,485 L 681,490" fill="none" stroke="#131300" stroke-width="2"></path></g></g><g class="left-axis"><g class="axisl-line"><path d="M 26,20 L 26,483 " fill="none" stroke="#131300" stroke-width="2"></path></g><g class="label"><text x="0" y="0" fill="#131300" font-size="14" dominant-baseline="middle" text-anchor="end" transform="translate(15, 20) rotate(0)">11000</text><text x="0" y="0" fill="#131300" font-size="14" dominant-baseline="middle" text-anchor="end" transform="translate(15, 53.071428571428555) rotate(0)">10500</text><text x="0" y="0" fill="#131300" font-size="14" dominant-baseline="middle" text-anchor="end" transform="translate(15, 86.14285714285717) rotate(0)">10000</text><text x="0" y="0" fill="#131300" font-size="14" dominant-baseline="middle" text-anchor="end" transform="translate(15, 119.21428571428572) rotate(0)">9500</text><text x="0" y="0" fill="#131300" font-size="14" dominant-baseline="middle" text-anchor="end" transform="translate(15, 152.28571428571428) rotate(0)">9000</text><text x="0" y="0" fill="#131300" font-size="14" dominant-baseline="middle" text-anchor="end" transform="translate(15, 185.35714285714283) rotate(0)">8500</text><text x="0" y="0" fill="#131300" font-size="14" dominant-baseline="middle" text-anchor="end" transform="translate(15, 218.42857142857144) rotate(0)">8000</text><text x="0" y="0" fill="#131300" font-size="14" dominant-baseline="middle" text-anchor="end" transform="translate(15, 251.5) rotate(0)">7500</text><text x="0" y="0" fill="#131300" font-size="14" dominant-baseline="middle" text-anchor="end" transform="translate(15, 284.57142857142856) rotate(0)">7000</text><text x="0" y="0" fill="#131300" font-size="14" dominant-baseline="middle" text-anchor="end" transform="translate(15, 317.6428571428571) rotate(0)">6500</text><text x="0" y="0" fill="#131300" font-size="14" dominant-baseline="middle" text-anchor="end" transform="translate(15, 350.7142857142857) rotate(0)">6000</text><text x="0" y="0" fill="#131300" font-size="14" dominant-baseline="middle" text-anchor="end" transform="translate(15, 383.7857142857143) rotate(0)">5500</text><text x="0" y="0" fill="#131300" font-size="14" dominant-baseline="middle" text-anchor="end" transform="translate(15, 416.8571428571429) rotate(0)">5000</text><text x="0" y="0" fill="#131300" font-size="14" dominant-baseline="middle" text-anchor="end" transform="translate(15, 449.92857142857144) rotate(0)">4500</text><text x="0" y="0" fill="#131300" font-size="14" dominant-baseline="middle" text-anchor="end" transform="translate(15, 483) rotate(0)">4000</text></g><g class="ticks"><path d="M 25,20 L 20,20" fill="none" stroke="#131300" stroke-width="2"></path><path d="M 25,53.071428571428555 L 20,53.071428571428555" fill="none" stroke="#131300" stroke-width="2"></path><path d="M 25,86.14285714285717 L 20,86.14285714285717" fill="none" stroke="#131300" stroke-width="2"></path><path d="M 25,119.21428571428572 L 20,119.21428571428572" fill="none" stroke="#131300" stroke-width="2"></path><path d="M 25,152.28571428571428 L 20,152.28571428571428" fill="none" stroke="#131300" stroke-width="2"></path><path d="M 25,185.35714285714283 L 20,185.35714285714283" fill="none" stroke="#131300" stroke-width="2"></path><path d="M 25,218.42857142857144 L 20,218.42857142857144" fill="none" stroke="#131300" stroke-width="2"></path><path d="M 25,251.5 L 20,251.5" fill="none" stroke="#131300" stroke-width="2"></path><path d="M 25,284.57142857142856 L 20,284.57142857142856" fill="none" stroke="#131300" stroke-width="2"></path><path d="M 25,317.6428571428571 L 20,317.6428571428571" fill="none" stroke="#131300" stroke-width="2"></path><path d="M 25,350.7142857142857 L 20,350.7142857142857" fill="none" stroke="#131300" stroke-width="2"></path><path d="M 25,383.7857142857143 L 20,383.7857142857143" fill="none" stroke="#131300" stroke-width="2"></path><path d="M 25,416.8571428571429 L 20,416.8571428571429" fill="none" stroke="#131300" stroke-width="2"></path><path d="M 25,449.92857142857144 L 20,449.92857142857144" fill="none" stroke="#131300" stroke-width="2"></path><path d="M 25,483 L 20,483" fill="none" stroke="#131300" stroke-width="2"></path></g><g class="title"><text x="0" y="0" fill="#131300" font-size="16" dominant-baseline="text-before-edge" text-anchor="middle" transform="translate(5, 251.5) rotate(270)">Revenue (in $)</text></g></g></g><g class="mermaid-tmp-group"></g></svg>