<svg id="ref-ext-fixtures-demos-er-02" width="100%" xmlns="http://www.w3.org/2000/svg" class="erDiagram" style="max-width: 1435.75732421875px;" viewBox="-529.49462890625 -165.7109375 1435.75732421875 766.0239375" role="graphics-document document" aria-roledescription="er"><style>#ref-ext-fixtures-demos-er-02{font-family:"trebuchet ms",verdana,arial,sans-serif;font-size:16px;fill:#000000;}@keyframes edge-animation-frame{from{stroke-dashoffset:0;}}@keyframes dash{to{stroke-dashoffset:0;}}#ref-ext-fixtures-demos-er-02 .edge-animation-slow{stroke-dasharray:9,5!important;stroke-dashoffset:900;animation:dash 50s linear infinite;stroke-linecap:round;}#ref-ext-fixtures-demos-er-02 .edge-animation-fast{stroke-dasharray:9,5!important;stroke-dashoffset:900;animation:dash 20s linear infinite;stroke-linecap:round;}#ref-ext-fixtures-demos-er-02 .error-icon{fill:#552222;}#ref-ext-fixtures-demos-er-02 .error-text{fill:#552222;stroke:#552222;}#ref-ext-fixtures-demos-er-02 .edge-thickness-normal{stroke-width:1px;}#ref-ext-fixtures-demos-er-02 .edge-thickness-thick{stroke-width:3.5px;}#ref-ext-fixtures-demos-er-02 .edge-pattern-solid{stroke-dasharray:0;}#ref-ext-fixtures-demos-er-02 .edge-thickness-invisible{stroke-width:0;fill:none;}#ref-ext-fixtures-demos-er-02 .edge-pattern-dashed{stroke-dasharray:3;}#ref-ext-fixtures-demos-er-02 .edge-pattern-dotted{stroke-dasharray:2;}#ref-ext-fixtures-demos-er-02 .marker{fill:#000000;stroke:#000000;}#ref-ext-fixtures-demos-er-02 .marker.cross{stroke:#000000;}#ref-ext-fixtures-demos-er-02 svg{font-family:"trebuchet ms",verdana,arial,sans-serif;font-size:16px;}#ref-ext-fixtures-demos-er-02 p{margin:0;}#ref-ext-fixtures-demos-er-02 .entityBox{fill:#cde498;stroke:#13540c;}#ref-ext-fixtures-demos-er-02 .relationshipLabelBox{fill:hsl(78.1578947368, 58.4615384615%, 84.5098039216%);opacity:0.7;background-color:hsl(78.1578947368, 58.4615384615%, 84.5098039216%);}#ref-ext-fixtures-demos-er-02 .relationshipLabelBox rect{opacity:0.5;}#ref-ext-fixtures-demos-er-02 .labelBkg{background-color:rgba(224.6153846155, 238.5923076923, 192.4076923078, 0.5);}#ref-ext-fixtures-demos-er-02 .edgeLabel{background-color:#e8e8e8;}#ref-ext-fixtures-demos-er-02 .edgeLabel .label rect{fill:#e8e8e8;}#ref-ext-fixtures-demos-er-02 .edgeLabel .label text{fill:#000000;}#ref-ext-fixtures-demos-er-02 .edgeLabel .label{fill:#13540c;font-size:14px;}#ref-ext-fixtures-demos-er-02 .label{font-family:"trebuchet ms",verdana,arial,sans-serif;color:#000000;}#ref-ext-fixtures-demos-er-02 .edge-pattern-dashed{stroke-dasharray:8,8;}#ref-ext-fixtures-demos-er-02 .node rect,#ref-ext-fixtures-demos-er-02 .node circle,#ref-ext-fixtures-demos-er-02 .node ellipse,#ref-ext-fixtures-demos-er-02 .node polygon{fill:#cde498;stroke:#13540c;stroke-width:1px;}#ref-ext-fixtures-demos-er-02 .relationshipLine{stroke:#000000;stroke-width:1px;fill:none;}#ref-ext-fixtures-demos-er-02 .marker{fill:none!important;stroke:#000000!important;stroke-width:1;}#ref-ext-fixtures-demos-er-02 [data-look=neo].labelBkg{background-color:rgba(224.6153846155, 238.5923076923, 192.4076923078, 0.5);}#ref-ext-fixtures-demos-er-02 .node .neo-node{stroke:#13540c;}#ref-ext-fixtures-demos-er-02 [data-look="neo"].node rect,#ref-ext-fixtures-demos-er-02 [data-look="neo"].cluster rect,#ref-ext-fixtures-demos-er-02 [data-look="neo"].node polygon{stroke:url(#ref-ext-fixtures-demos-er-02-gradient);filter:drop-shadow( 1px 2px 2px rgba(185,185,185,0.5));}#ref-ext-fixtures-demos-er-02 [data-look="neo"].node path{stroke:url(#ref-ext-fixtures-demos-er-02-gradient);stroke-width:1px;}#ref-ext-fixtures-demos-er-02 [data-look="neo"].node .outer-path{filter:drop-shadow( 1px 2px 2px rgba(185,185,185,0.5));}#ref-ext-fixtures-demos-er-02 [data-look="neo"].node .neo-line path{stroke:#13540c;filter:none;}#ref-ext-fixtures-demos-er-02 [data-look="neo"].node circle{stroke:url(#ref-ext-fixtures-demos-er-02-gradient);filter:drop-shadow( 1px 2px 2px rgba(185,185,185,0.5));}#ref-ext-fixtures-demos-er-02 [data-look="neo"].node circle .state-start{fill:#000000;}#ref-ext-fixtures-demos-er-02 [data-look="neo"].icon-shape .icon{fill:url(#ref-ext-fixtures-demos-er-02-gradient);filter:drop-shadow( 1px 2px 2px rgba(185,185,185,0.5));}#ref-ext-fixtures-demos-er-02 [data-look="neo"].icon-shape .icon-neo path{stroke:url(#ref-ext-fixtures-demos-er-02-gradient);filter:drop-shadow( 1px 2px 2px rgba(185,185,185,0.5));}#ref-ext-fixtures-demos-er-02 :root{--mermaid-font-family:"trebuchet ms",verdana,arial,sans-serif;}</style><g><defs><marker id="ref-ext-fixtures-demos-er-02_er-onlyOneStart" class="marker onlyOne er" refX="0" refY="9" markerWidth="18" markerHeight="18" orient="auto"><path d="M9,0 L9,18 M15,0 L15,18"></path></marker></defs><defs><marker id="ref-ext-fixtures-demos-er-02_er-onlyOneEnd" class="marker onlyOne er" refX="18" refY="9" markerWidth="18" markerHeight="18" orient="auto"><path d="M3,0 L3,18 M9,0 L9,18"></path></marker></defs><defs><marker id="ref-ext-fixtures-demos-er-02_er-zeroOrOneStart" class="marker zeroOrOne er" refX="0" refY="9" markerWidth="30" markerHeight="18" orient="auto"><circle fill="white" cx="21" cy="9" r="6"></circle><path d="M9,0 L9,18"></path></marker></defs><defs><marker id="ref-ext-fixtures-demos-er-02_er-zeroOrOneEnd" class="marker zeroOrOne er" refX="30" refY="9" markerWidth="30" markerHeight="18" orient="auto"><circle fill="white" cx="9" cy="9" r="6"></circle><path d="M21,0 L21,18"></path></marker></defs><defs><marker id="ref-ext-fixtures-demos-er-02_er-oneOrMoreStart" class="marker oneOrMore er" refX="18" refY="18" markerWidth="45" markerHeight="36" orient="auto"><path d="M0,18 Q 18,0 36,18 Q 18,36 0,18 M42,9 L42,27"></path></marker></defs><defs><marker id="ref-ext-fixtures-demos-er-02_er-oneOrMoreEnd" class="marker oneOrMore er" refX="27" refY="18" markerWidth="45" markerHeight="36" orient="auto"><path d="M3,9 L3,27 M9,18 Q27,0 45,18 Q27,36 9,18"></path></marker></defs><defs><marker id="ref-ext-fixtures-demos-er-02_er-zeroOrMoreStart" class="marker zeroOrMore er" refX="18" refY="18" markerWidth="57" markerHeight="36" orient="auto"><circle fill="white" cx="48" cy="18" r="6"></circle><path d="M0,18 Q18,0 36,18 Q18,36 0,18"></path></marker></defs><defs><marker id="ref-ext-fixtures-demos-er-02_er-zeroOrMoreEnd" class="marker zeroOrMore er" refX="39" refY="18" markerWidth="57" markerHeight="36" orient="auto"><circle fill="white" cx="9" cy="18" r="6"></circle><path d="M21,18 Q39,0 57,18 Q39,36 21,18"></path></marker></defs><g class="root"><g class="clusters"></g><g class="edgePaths"><path d="M256.628,80.612L234.065,89.251C211.502,97.89,166.375,115.168,143.812,151.758C121.249,188.349,121.249,244.253,121.249,272.204L121.249,300.156" id="ref-ext-fixtures-demos-er-02-id_entity-Person . CUSTOMER-0_entity-ORDER-1_0" class=" edge-thickness-normal edge-pattern-solid relationshipLine" style="undefined;;;undefined" data-edge="true" data-et="edge" data-id="id_entity-Person . CUSTOMER-0_entity-ORDER-1_0" data-points="W3sieCI6MjU2LjYyODQxNzk2ODc1LCJ5Ijo4MC42MTIyMjQzMTQ0ODQyNX0seyJ4IjoxMjEuMjQ5MDIzNDM3NSwieSI6MTMyLjQ0NTMxMjV9LHsieCI6MTIxLjI0OTAyMzQzNzUsInkiOjMwMC4xNTYyNX1d" data-look="classic" marker-start="url(#ref-ext-fixtures-demos-er-02_er-onlyOneStart)" marker-end="url(#ref-ext-fixtures-demos-er-02_er-zeroOrMoreEnd)"></path><path d="M121.249,376.453L121.249,404.405C121.249,432.357,121.249,488.26,121.249,524.237C121.249,560.214,121.249,576.263,121.249,584.288L121.249,592.313" id="ref-ext-fixtures-demos-er-02-id_entity-ORDER-1_entity-€£LINE_ITEM ¥-2_1" class=" edge-thickness-normal edge-pattern-solid relationshipLine" style="undefined;;;undefined" data-edge="true" data-et="edge" data-id="id_entity-ORDER-1_entity-€£LINE_ITEM ¥-2_1" data-points="W3sieCI6MTIxLjI0OTAyMzQzNzUsInkiOjM3Ni40NTMxMjV9LHsieCI6MTIxLjI0OTAyMzQzNzUsInkiOjU0NC4xNjQwNjI1fSx7IngiOjEyMS4yNDkwMjM0Mzc1LCJ5Ijo1OTIuMzEyNX1d" data-look="classic" marker-start="url(#ref-ext-fixtures-demos-er-02_er-onlyOneStart)" marker-end="url(#ref-ext-fixtures-demos-er-02_er-oneOrMoreEnd)"></path><path d="M436.656,80.612L459.219,89.251C481.782,97.89,526.909,115.168,549.472,131.831C572.035,148.495,572.035,164.544,572.035,172.569L572.035,180.594" id="ref-ext-fixtures-demos-er-02-id_entity-Person . CUSTOMER-0_entity-Address//StreetAddress::[DELIVERY ADDRESS]-3_2" class=" edge-thickness-normal edge-pattern-dashed relationshipLine" style="undefined;;;undefined" data-edge="true" data-et="edge" data-id="id_entity-Person . CUSTOMER-0_entity-Address//StreetAddress::[DELIVERY ADDRESS]-3_2" data-points="W3sieCI6NDM2LjY1NTc2MTcxODc1LCJ5Ijo4MC42MTIyMjQzMTQ0ODQyNX0seyJ4Ijo1NzIuMDM1MTU2MjUsInkiOjEzMi40NDUzMTI1fSx7IngiOjU3Mi4wMzUxNTYyNSwieSI6MTgwLjU5Mzc1fV0=" data-look="classic" marker-start="url(#ref-ext-fixtures-demos-er-02_er-oneOrMoreStart)" marker-end="url(#ref-ext-fixtures-demos-er-02_er-oneOrMoreEnd)"></path></g><g class="edgeLabels"><g class="edgeLabel" transform="translate(121.2490234375, 132.4453125)"><g class="label" data-id="id_entity-Person . CUSTOMER-0_entity-ORDER-1_0" transform="translate(-22.47998046875, -8.1484375)"><foreignObject width="44.9599609375" height="16.296875"><div style="display: table-cell; white-space: nowrap; line-height: 1.5; max-width: 200px; text-align: center;" xmlns="http://www.w3.org/1999/xhtml" class="labelBkg"><span class="edgeLabel "><p>places</p></span></div></foreignObject></g></g><g class="edgeLabel" transform="translate(121.2490234375, 544.1640625)"><g class="label" data-id="id_entity-ORDER-1_entity-€£LINE_ITEM ¥-2_1" transform="translate(-29.63037109375, -8.1484375)"><foreignObject width="59.2607421875" height="16.296875"><div style="display: table-cell; white-space: nowrap; line-height: 1.5; max-width: 200px; text-align: center;" xmlns="http://www.w3.org/1999/xhtml" class="labelBkg"><span class="edgeLabel "><p>contains</p></span></div></foreignObject></g></g><g class="edgeLabel" transform="translate(572.03515625, 132.4453125)"><g class="label" data-id="id_entity-Person . CUSTOMER-0_entity-Address//StreetAddress::[DELIVERY ADDRESS]-3_2" transform="translate(-16.037109375, -8.1484375)"><foreignObject width="32.07421875" height="16.296875"><div style="display: table-cell; white-space: nowrap; line-height: 1.5; max-width: 200px; text-align: center;" xmlns="http://www.w3.org/1999/xhtml" class="labelBkg"><span class="edgeLabel "><p>uses</p></span></div></foreignObject></g></g></g><g class="nodes"><g class="node default " id="ref-ext-fixtures-demos-er-02-entity-Person . CUSTOMER-0" data-look="classic" transform="translate(346.64208984375, 46.1484375)"><rect class="basic label-container" style="" x="-90.013671875" y="-38.1484375" width="180.02734375" height="76.296875"></rect><g class="label" style="" transform="translate(-70.013671875, -8.1484375)"><rect></rect><foreignObject width="140.02734375" height="16.296875"><div style="display: table-cell; white-space: nowrap; line-height: 1.5; max-width: 200px; text-align: center;" xmlns="http://www.w3.org/1999/xhtml"><span class="nodeLabel markdown-node-label"><p>Person . CUSTOMER</p></span></div></foreignObject></g></g><g class="node default " id="ref-ext-fixtures-demos-er-02-entity-ORDER-1" data-look="classic" transform="translate(121.2490234375, 338.3046875)"><rect class="basic label-container" style="" x="-50" y="-38.1484375" width="100" height="76.296875"></rect><g class="label" style="" transform="translate(-25.05029296875, -8.1484375)"><rect></rect><foreignObject width="50.1005859375" height="16.296875"><div style="display: table-cell; white-space: nowrap; line-height: 1.5; max-width: 100px; text-align: center;" xmlns="http://www.w3.org/1999/xhtml"><span class="nodeLabel markdown-node-label"><p>ORDER</p></span></div></foreignObject></g></g><g class="node default " id="ref-ext-fixtures-demos-er-02-entity-€£LINE_ITEM ¥-2" data-look="classic" transform="translate(121.2490234375, 714.9765625)"><g class="outer-path" style=""><path d="M-113.2490234375 -122.6640625 L113.2490234375 -122.6640625 L113.2490234375 122.6640625 L-113.2490234375 122.6640625" stroke="none" stroke-width="0" fill="#cde498"></path><path d="M-113.2490234375 -122.6640625 C-67.94839582077967 -122.6640625, -22.647768204059318 -122.6640625, 113.2490234375 -122.6640625 M-113.2490234375 -122.6640625 C-63.11325226157223 -122.6640625, -12.977481085644456 -122.6640625, 113.2490234375 -122.6640625 M113.2490234375 -122.6640625 C113.2490234375 -69.30462951013614, 113.2490234375 -15.945196520272276, 113.2490234375 122.6640625 M113.2490234375 -122.6640625 C113.2490234375 -56.81903521988279, 113.2490234375 9.025992060234415, 113.2490234375 122.6640625 M113.2490234375 122.6640625 C64.39962874633765 122.6640625, 15.55023405517531 122.6640625, -113.2490234375 122.6640625 M113.2490234375 122.6640625 C28.105557599640633 122.6640625, -57.03790823821873 122.6640625, -113.2490234375 122.6640625 M-113.2490234375 122.6640625 C-113.2490234375 52.301670362388535, -113.2490234375 -18.06072177522293, -113.2490234375 -122.6640625 M-113.2490234375 122.6640625 C-113.2490234375 33.42196603605261, -113.2490234375 -55.82013042789478, -113.2490234375 -122.6640625" stroke="#13540c" stroke-width="1.3" fill="none" stroke-dasharray="0 0"></path></g><g style="" class="row-rect-odd"><path d="M-113.2490234375 -87.6171875 L113.2490234375 -87.6171875 L113.2490234375 -52.5703125 L-113.2490234375 -52.5703125" stroke="none" stroke-width="0" fill="hsl(78.1578947368, 58.4615384615%, 100%)"></path><path d="M-113.2490234375 -87.6171875 C-67.94839582077967 -87.6171875, -22.647768204059318 -87.6171875, 113.2490234375 -87.6171875 M-113.2490234375 -87.6171875 C-63.11325226157223 -87.6171875, -12.977481085644456 -87.6171875, 113.2490234375 -87.6171875 M113.2490234375 -87.6171875 C113.2490234375 -79.99441135859088, 113.2490234375 -72.37163521718176, 113.2490234375 -52.5703125 M113.2490234375 -87.6171875 C113.2490234375 -78.21075503141182, 113.2490234375 -68.80432256282366, 113.2490234375 -52.5703125 M113.2490234375 -52.5703125 C64.39962874633765 -52.5703125, 15.55023405517531 -52.5703125, -113.2490234375 -52.5703125 M113.2490234375 -52.5703125 C28.105557599640633 -52.5703125, -57.03790823821873 -52.5703125, -113.2490234375 -52.5703125 M-113.2490234375 -52.5703125 C-113.2490234375 -62.62208280537307, -113.2490234375 -72.67385311074614, -113.2490234375 -87.6171875 M-113.2490234375 -52.5703125 C-113.2490234375 -65.31918342342105, -113.2490234375 -78.0680543468421, -113.2490234375 -87.6171875" stroke="#13540c" stroke-width="1.3" fill="none" stroke-dasharray="0 0"></path></g><g style="" class="row-rect-even"><path d="M-113.2490234375 -52.5703125 L113.2490234375 -52.5703125 L113.2490234375 -17.5234375 L-113.2490234375 -17.5234375" stroke="none" stroke-width="0" fill="hsl(78.1578947368, 58.4615384615%, 94.5098039216%)"></path><path d="M-113.2490234375 -52.5703125 C-67.94839582077967 -52.5703125, -22.647768204059318 -52.5703125, 113.2490234375 -52.5703125 M-113.2490234375 -52.5703125 C-63.11325226157223 -52.5703125, -12.977481085644456 -52.5703125, 113.2490234375 -52.5703125 M113.2490234375 -52.5703125 C113.2490234375 -44.94753635859088, 113.2490234375 -37.324760217181755, 113.2490234375 -17.5234375 M113.2490234375 -52.5703125 C113.2490234375 -43.16388003141183, 113.2490234375 -33.75744756282366, 113.2490234375 -17.5234375 M113.2490234375 -17.5234375 C64.39962874633765 -17.5234375, 15.55023405517531 -17.5234375, -113.2490234375 -17.5234375 M113.2490234375 -17.5234375 C28.105557599640633 -17.5234375, -57.03790823821873 -17.5234375, -113.2490234375 -17.5234375 M-113.2490234375 -17.5234375 C-113.2490234375 -27.57520780537307, -113.2490234375 -37.62697811074614, -113.2490234375 -52.5703125 M-113.2490234375 -17.5234375 C-113.2490234375 -30.272308423421055, -113.2490234375 -43.02117934684211, -113.2490234375 -52.5703125" stroke="#13540c" stroke-width="1.3" fill="none" stroke-dasharray="0 0"></path></g><g style="" class="row-rect-odd"><path d="M-113.2490234375 -17.5234375 L113.2490234375 -17.5234375 L113.2490234375 17.5234375 L-113.2490234375 17.5234375" stroke="none" stroke-width="0" fill="hsl(78.1578947368, 58.4615384615%, 100%)"></path><path d="M-113.2490234375 -17.5234375 C-67.94839582077967 -17.5234375, -22.647768204059318 -17.5234375, 113.2490234375 -17.5234375 M-113.2490234375 -17.5234375 C-63.11325226157223 -17.5234375, -12.977481085644456 -17.5234375, 113.2490234375 -17.5234375 M113.2490234375 -17.5234375 C113.2490234375 -9.900661358590877, 113.2490234375 -2.2778852171817547, 113.2490234375 17.5234375 M113.2490234375 -17.5234375 C113.2490234375 -8.117005031411827, 113.2490234375 1.2894274371763466, 113.2490234375 17.5234375 M113.2490234375 17.5234375 C64.39962874633765 17.5234375, 15.55023405517531 17.5234375, -113.2490234375 17.5234375 M113.2490234375 17.5234375 C28.105557599640633 17.5234375, -57.03790823821873 17.5234375, -113.2490234375 17.5234375 M-113.2490234375 17.5234375 C-113.2490234375 7.471667194626933, -113.2490234375 -2.5801031107461334, -113.2490234375 -17.5234375 M-113.2490234375 17.5234375 C-113.2490234375 4.774566576578945, -113.2490234375 -7.974304346842111, -113.2490234375 -17.5234375" stroke="#13540c" stroke-width="1.3" fill="none" stroke-dasharray="0 0"></path></g><g style="" class="row-rect-even"><path d="M-113.2490234375 17.5234375 L113.2490234375 17.5234375 L113.2490234375 52.5703125 L-113.2490234375 52.5703125" stroke="none" stroke-width="0" fill="hsl(78.1578947368, 58.4615384615%, 94.5098039216%)"></path><path d="M-113.2490234375 17.5234375 C-67.94839582077967 17.5234375, -22.647768204059318 17.5234375, 113.2490234375 17.5234375 M-113.2490234375 17.5234375 C-63.11325226157223 17.5234375, -12.977481085644456 17.5234375, 113.2490234375 17.5234375 M113.2490234375 17.5234375 C113.2490234375 25.146213641409123, 113.2490234375 32.768989782818245, 113.2490234375 52.5703125 M113.2490234375 17.5234375 C113.2490234375 26.92986996858817, 113.2490234375 36.33630243717634, 113.2490234375 52.5703125 M113.2490234375 52.5703125 C64.39962874633765 52.5703125, 15.55023405517531 52.5703125, -113.2490234375 52.5703125 M113.2490234375 52.5703125 C28.105557599640633 52.5703125, -57.03790823821873 52.5703125, -113.2490234375 52.5703125 M-113.2490234375 52.5703125 C-113.2490234375 42.51854219462693, -113.2490234375 32.46677188925386, -113.2490234375 17.5234375 M-113.2490234375 52.5703125 C-113.2490234375 39.82144157657895, -113.2490234375 27.07257065315789, -113.2490234375 17.5234375" stroke="#13540c" stroke-width="1.3" fill="none" stroke-dasharray="0 0"></path></g><g style="" class="row-rect-odd"><path d="M-113.2490234375 52.5703125 L113.2490234375 52.5703125 L113.2490234375 87.6171875 L-113.2490234375 87.6171875" stroke="none" stroke-width="0" fill="hsl(78.1578947368, 58.4615384615%, 100%)"></path><path d="M-113.2490234375 52.5703125 C-67.94839582077967 52.5703125, -22.647768204059318 52.5703125, 113.2490234375 52.5703125 M-113.2490234375 52.5703125 C-63.11325226157223 52.5703125, -12.977481085644456 52.5703125, 113.2490234375 52.5703125 M113.2490234375 52.5703125 C113.2490234375 60.19308864140912, 113.2490234375 67.81586478281824, 113.2490234375 87.6171875 M113.2490234375 52.5703125 C113.2490234375 61.97674496858817, 113.2490234375 71.38317743717634, 113.2490234375 87.6171875 M113.2490234375 87.6171875 C64.39962874633765 87.6171875, 15.55023405517531 87.6171875, -113.2490234375 87.6171875 M113.2490234375 87.6171875 C28.105557599640633 87.6171875, -57.03790823821873 87.6171875, -113.2490234375 87.6171875 M-113.2490234375 87.6171875 C-113.2490234375 77.56541719462693, -113.2490234375 67.51364688925386, -113.2490234375 52.5703125 M-113.2490234375 87.6171875 C-113.2490234375 74.86831657657895, -113.2490234375 62.11944565315789, -113.2490234375 52.5703125" stroke="#13540c" stroke-width="1.3" fill="none" stroke-dasharray="0 0"></path></g><g style="" class="row-rect-even"><path d="M-113.2490234375 87.6171875 L113.2490234375 87.6171875 L113.2490234375 122.6640625 L-113.2490234375 122.6640625" stroke="none" stroke-width="0" fill="hsl(78.1578947368, 58.4615384615%, 94.5098039216%)"></path><path d="M-113.2490234375 87.6171875 C-67.94839582077967 87.6171875, -22.647768204059318 87.6171875, 113.2490234375 87.6171875 M-113.2490234375 87.6171875 C-63.11325226157223 87.6171875, -12.977481085644456 87.6171875, 113.2490234375 87.6171875 M113.2490234375 87.6171875 C113.2490234375 95.23996364140912, 113.2490234375 102.86273978281824, 113.2490234375 122.6640625 M113.2490234375 87.6171875 C113.2490234375 97.02361996858818, 113.2490234375 106.43005243717634, 113.2490234375 122.6640625 M113.2490234375 122.6640625 C64.39962874633765 122.6640625, 15.55023405517531 122.6640625, -113.2490234375 122.6640625 M113.2490234375 122.6640625 C28.105557599640633 122.6640625, -57.03790823821873 122.6640625, -113.2490234375 122.6640625 M-113.2490234375 122.6640625 C-113.2490234375 112.61229219462693, -113.2490234375 102.56052188925386, -113.2490234375 87.6171875 M-113.2490234375 122.6640625 C-113.2490234375 109.91519157657895, -113.2490234375 97.1663206531579, -113.2490234375 87.6171875" stroke="#13540c" stroke-width="1.3" fill="none" stroke-dasharray="0 0"></path></g><g class="label name" transform="translate(-51.51220703125, -113.2890625)" style=""><foreignObject width="103.0244140625" height="16.296875"><div style="display: table-cell; white-space: nowrap; line-height: 1.5; max-width: 218px; text-align: start;" xmlns="http://www.w3.org/1999/xhtml"><span class="nodeLabel "><p>€£LINE_ITEM ¥</p></span></div></foreignObject></g><g class="label attribute-type" transform="translate(-100.7490234375, -78.2421875)" style=""><foreignObject width="18.251953125" height="16.296875"><div style="display: table-cell; white-space: nowrap; line-height: 1.5; max-width: 121px; text-align: start;" xmlns="http://www.w3.org/1999/xhtml"><span class="nodeLabel "><p>int</p></span></div></foreignObject></g><g class="label attribute-name" transform="translate(-21.109375, -78.2421875)" style=""><foreignObject width="52.486328125" height="16.296875"><div style="display: table-cell; white-space: nowrap; line-height: 1.5; max-width: 160px; text-align: start;" xmlns="http://www.w3.org/1999/xhtml"><span class="nodeLabel "><p>orderID</p></span></div></foreignObject></g><g class="label attribute-keys" transform="translate(83.515625, -78.2421875)" style=""><foreignObject width="17.2333984375" height="16.296875"><div style="display: table-cell; white-space: nowrap; line-height: 1.5; max-width: 120px; text-align: start;" xmlns="http://www.w3.org/1999/xhtml"><span class="nodeLabel "><p>FK</p></span></div></foreignObject></g><g class="label attribute-comment" transform="translate(125.7490234375, -78.2421875)" style=""><foreignObject width="0" height="16.296875"><div style="display: table-cell; white-space: nowrap; line-height: 1.5; max-width: 100px; text-align: start;" xmlns="http://www.w3.org/1999/xhtml"><span class="nodeLabel "></span></div></foreignObject></g><g class="label attribute-type" transform="translate(-100.7490234375, -43.1953125)" style=""><foreignObject width="18.251953125" height="16.296875"><div style="display: table-cell; white-space: nowrap; line-height: 1.5; max-width: 121px; text-align: start;" xmlns="http://www.w3.org/1999/xhtml"><span class="nodeLabel "><p>int</p></span></div></foreignObject></g><g class="label attribute-name" transform="translate(-21.109375, -43.1953125)" style=""><foreignObject width="74.56640625" height="16.296875"><div style="display: table-cell; white-space: nowrap; line-height: 1.5; max-width: 185px; text-align: start;" xmlns="http://www.w3.org/1999/xhtml"><span class="nodeLabel "><p>currencyId</p></span></div></foreignObject></g><g class="label attribute-keys" transform="translate(83.515625, -43.1953125)" style=""><foreignObject width="17.2333984375" height="16.296875"><div style="display: table-cell; white-space: nowrap; line-height: 1.5; max-width: 120px; text-align: start;" xmlns="http://www.w3.org/1999/xhtml"><span class="nodeLabel "><p>FK</p></span></div></foreignObject></g><g class="label attribute-comment" transform="translate(125.7490234375, -43.1953125)" style=""><foreignObject width="0" height="16.296875"><div style="display: table-cell; white-space: nowrap; line-height: 1.5; max-width: 100px; text-align: start;" xmlns="http://www.w3.org/1999/xhtml"><span class="nodeLabel "></span></div></foreignObject></g><g class="label attribute-type" transform="translate(-100.7490234375, -8.1484375)" style=""><foreignObject width="54.6396484375" height="16.296875"><div style="display: table-cell; white-space: nowrap; line-height: 1.5; max-width: 162px; text-align: start;" xmlns="http://www.w3.org/1999/xhtml"><span class="nodeLabel "><p>number</p></span></div></foreignObject></g><g class="label attribute-name" transform="translate(-21.109375, -8.1484375)" style=""><foreignObject width="34.8427734375" height="16.296875"><div style="display: table-cell; white-space: nowrap; line-height: 1.5; max-width: 140px; text-align: start;" xmlns="http://www.w3.org/1999/xhtml"><span class="nodeLabel "><p>price</p></span></div></foreignObject></g><g class="label attribute-keys" transform="translate(83.515625, -8.1484375)" style=""><foreignObject width="0" height="16.296875"><div style="display: table-cell; white-space: nowrap; line-height: 1.5; max-width: 100px; text-align: start;" xmlns="http://www.w3.org/1999/xhtml"><span class="nodeLabel "></span></div></foreignObject></g><g class="label attribute-comment" transform="translate(125.7490234375, -8.1484375)" style=""><foreignObject width="0" height="16.296875"><div style="display: table-cell; white-space: nowrap; line-height: 1.5; max-width: 100px; text-align: start;" xmlns="http://www.w3.org/1999/xhtml"><span class="nodeLabel "></span></div></foreignObject></g><g class="label attribute-type" transform="translate(-100.7490234375, 26.8984375)" style=""><foreignObject width="54.6396484375" height="16.296875"><div style="display: table-cell; white-space: nowrap; line-height: 1.5; max-width: 162px; text-align: start;" xmlns="http://www.w3.org/1999/xhtml"><span class="nodeLabel "><p>number</p></span></div></foreignObject></g><g class="label attribute-name" transform="translate(-21.109375, 26.8984375)" style=""><foreignObject width="58.365234375" height="16.296875"><div style="display: table-cell; white-space: nowrap; line-height: 1.5; max-width: 167px; text-align: start;" xmlns="http://www.w3.org/1999/xhtml"><span class="nodeLabel "><p>quantity</p></span></div></foreignObject></g><g class="label attribute-keys" transform="translate(83.515625, 26.8984375)" style=""><foreignObject width="0" height="16.296875"><div style="display: table-cell; white-space: nowrap; line-height: 1.5; max-width: 100px; text-align: start;" xmlns="http://www.w3.org/1999/xhtml"><span class="nodeLabel "></span></div></foreignObject></g><g class="label attribute-comment" transform="translate(125.7490234375, 26.8984375)" style=""><foreignObject width="0" height="16.296875"><div style="display: table-cell; white-space: nowrap; line-height: 1.5; max-width: 100px; text-align: start;" xmlns="http://www.w3.org/1999/xhtml"><span class="nodeLabel "></span></div></foreignObject></g><g class="label attribute-type" transform="translate(-100.7490234375, 61.9453125)" style=""><foreignObject width="54.6396484375" height="16.296875"><div style="display: table-cell; white-space: nowrap; line-height: 1.5; max-width: 162px; text-align: start;" xmlns="http://www.w3.org/1999/xhtml"><span class="nodeLabel "><p>number</p></span></div></foreignObject></g><g class="label attribute-name" transform="translate(-21.109375, 61.9453125)" style=""><foreignObject width="79.625" height="16.296875"><div style="display: table-cell; white-space: nowrap; line-height: 1.5; max-width: 191px; text-align: start;" xmlns="http://www.w3.org/1999/xhtml"><span class="nodeLabel "><p>adjustment</p></span></div></foreignObject></g><g class="label attribute-keys" transform="translate(83.515625, 61.9453125)" style=""><foreignObject width="0" height="16.296875"><div style="display: table-cell; white-space: nowrap; line-height: 1.5; max-width: 100px; text-align: start;" xmlns="http://www.w3.org/1999/xhtml"><span class="nodeLabel "></span></div></foreignObject></g><g class="label attribute-comment" transform="translate(125.7490234375, 61.9453125)" style=""><foreignObject width="0" height="16.296875"><div style="display: table-cell; white-space: nowrap; line-height: 1.5; max-width: 100px; text-align: start;" xmlns="http://www.w3.org/1999/xhtml"><span class="nodeLabel "></span></div></foreignObject></g><g class="label attribute-type" transform="translate(-100.7490234375, 96.9921875)" style=""><foreignObject width="54.6396484375" height="16.296875"><div style="display: table-cell; white-space: nowrap; line-height: 1.5; max-width: 162px; text-align: start;" xmlns="http://www.w3.org/1999/xhtml"><span class="nodeLabel "><p>number</p></span></div></foreignObject></g><g class="label attribute-name" transform="translate(-21.109375, 96.9921875)" style=""><foreignObject width="72.0029296875" height="16.296875"><div style="display: table-cell; white-space: nowrap; line-height: 1.5; max-width: 182px; text-align: start;" xmlns="http://www.w3.org/1999/xhtml"><span class="nodeLabel "><p>final_price</p></span></div></foreignObject></g><g class="label attribute-keys" transform="translate(83.515625, 96.9921875)" style=""><foreignObject width="0" height="16.296875"><div style="display: table-cell; white-space: nowrap; line-height: 1.5; max-width: 100px; text-align: start;" xmlns="http://www.w3.org/1999/xhtml"><span class="nodeLabel "></span></div></foreignObject></g><g class="label attribute-comment" transform="translate(125.7490234375, 96.9921875)" style=""><foreignObject width="0" height="16.296875"><div style="display: table-cell; white-space: nowrap; line-height: 1.5; max-width: 100px; text-align: start;" xmlns="http://www.w3.org/1999/xhtml"><span class="nodeLabel "></span></div></foreignObject></g><g class="divider"><path d="M-113.2490234375 -87.6172375 L-113.2490234375 -87.6171375 L113.2490234375 -87.6171375 L113.2490234375 -87.6172375" stroke="none" stroke-width="0" fill="#cde498" fill-rule="evenodd"></path><path d="M-113.2490234375 -87.6172375 C-113.2490234375 -87.61721749955045, -113.2490234375 -87.61719749910088, -113.2490234375 -87.6171375 M-113.2490234375 -87.6172375 C-113.2490234375 -87.61721536481082, -113.2490234375 -87.61719322962163, -113.2490234375 -87.6171375 M-113.2490234375 -87.6171375 C-63.98517586779471 -87.6171375, -14.721328298089418 -87.6171375, 113.2490234375 -87.6171375 M-113.2490234375 -87.6171375 C-52.457909188460505 -87.6171375, 8.33320506057899 -87.6171375, 113.2490234375 -87.6171375 M113.2490234375 -87.6171375 C113.2490234375 -87.61715906724766, 113.2490234375 -87.6171806344953, 113.2490234375 -87.6172375 M113.2490234375 -87.6171375 C113.2490234375 -87.61717509125829, 113.2490234375 -87.6172126825166, 113.2490234375 -87.6172375 M113.2490234375 -87.6172375 C48.28727315867708 -87.6172375, -16.674477120145838 -87.6172375, -113.2490234375 -87.6172375 M113.2490234375 -87.6172375 C30.856674219021983 -87.6172375, -51.535674999456035 -87.6172375, -113.2490234375 -87.6172375" stroke="#13540c" stroke-width="1.3" fill="none" stroke-dasharray="0 0"></path></g><g class="divider"><path d="M-33.609425 -87.6171875 L-33.609325 -87.6171875 L-33.609325 122.6640625 L-33.609425 122.6640625" stroke="none" stroke-width="0" fill="#cde498" fill-rule="evenodd"></path><path d="M-33.609425 -87.6171875 C-33.60940499955044 -87.6171875, -33.60938499910088 -87.6171875, -33.609325 -87.6171875 M-33.609425 -87.6171875 C-33.60940286481082 -87.6171875, -33.60938072962163 -87.6171875, -33.609325 -87.6171875 M-33.609325 -87.6171875 C-33.609325 -41.880530651545264, -33.609325 3.8561261969094716, -33.609325 122.6640625 M-33.609325 -87.6171875 C-33.609325 -31.178592688470957, -33.609325 25.260002123058086, -33.609325 122.6640625 M-33.609325 122.6640625 C-33.60934656724765 122.6640625, -33.6093681344953 122.6640625, -33.609425 122.6640625 M-33.609325 122.6640625 C-33.6093625912583 122.6640625, -33.609400182516595 122.6640625, -33.609425 122.6640625 M-33.609425 122.6640625 C-33.609425 62.353440667761596, -33.609425 2.0428188355231924, -33.609425 -87.6171875 M-33.609425 122.6640625 C-33.609425 46.17083695947366, -33.609425 -30.322388581052678, -33.609425 -87.6171875" stroke="#13540c" stroke-width="1.3" fill="none" stroke-dasharray="0 0"></path></g><g class="divider"><path d="M71.015575 -87.6171875 L71.015675 -87.6171875 L71.015675 122.6640625 L71.015575 122.6640625" stroke="none" stroke-width="0" fill="#cde498" fill-rule="evenodd"></path><path d="M71.015575 -87.6171875 C71.01559500044955 -87.6171875, 71.01561500089912 -87.6171875, 71.015675 -87.6171875 M71.015575 -87.6171875 C71.01559713518918 -87.6171875, 71.01561927037837 -87.6171875, 71.015675 -87.6171875 M71.015675 -87.6171875 C71.015675 -41.880530651545264, 71.015675 3.8561261969094716, 71.015675 122.6640625 M71.015675 -87.6171875 C71.015675 -31.178592688470957, 71.015675 25.260002123058086, 71.015675 122.6640625 M71.015675 122.6640625 C71.01565343275234 122.6640625, 71.0156318655047 122.6640625, 71.015575 122.6640625 M71.015675 122.6640625 C71.01563740874171 122.6640625, 71.0155998174834 122.6640625, 71.015575 122.6640625 M71.015575 122.6640625 C71.015575 62.353440667761596, 71.015575 2.0428188355231924, 71.015575 -87.6171875 M71.015575 122.6640625 C71.015575 46.17083695947366, 71.015575 -30.322388581052678, 71.015575 -87.6171875" stroke="#13540c" stroke-width="1.3" fill="none" stroke-dasharray="0 0"></path></g><g class="divider"><path d="M-113.2490234375 -87.6172375 L-113.2490234375 -87.6171375 L113.2490234375 -87.6171375 L113.2490234375 -87.6172375" stroke="none" stroke-width="0" fill="#cde498" fill-rule="evenodd"></path><path d="M-113.2490234375 -87.6172375 C-113.2490234375 -87.61721749955045, -113.2490234375 -87.61719749910088, -113.2490234375 -87.6171375 M-113.2490234375 -87.6172375 C-113.2490234375 -87.61721536481082, -113.2490234375 -87.61719322962163, -113.2490234375 -87.6171375 M-113.2490234375 -87.6171375 C-63.98517586779471 -87.6171375, -14.721328298089418 -87.6171375, 113.2490234375 -87.6171375 M-113.2490234375 -87.6171375 C-52.457909188460505 -87.6171375, 8.33320506057899 -87.6171375, 113.2490234375 -87.6171375 M113.2490234375 -87.6171375 C113.2490234375 -87.61715906724766, 113.2490234375 -87.6171806344953, 113.2490234375 -87.6172375 M113.2490234375 -87.6171375 C113.2490234375 -87.61717509125829, 113.2490234375 -87.6172126825166, 113.2490234375 -87.6172375 M113.2490234375 -87.6172375 C48.28727315867708 -87.6172375, -16.674477120145838 -87.6172375, -113.2490234375 -87.6172375 M113.2490234375 -87.6172375 C30.856674219021983 -87.6172375, -51.535674999456035 -87.6172375, -113.2490234375 -87.6172375" stroke="#13540c" stroke-width="1.3" fill="none" stroke-dasharray="0 0"></path></g></g><g class="node default " id="ref-ext-fixtures-demos-er-02-entity-Address//StreetAddress::[DELIVERY ADDRESS]-3" data-look="classic" transform="translate(572.03515625, 338.3046875)"><g class="outer-path" style=""><path d="M-260.7861328125 -157.7109375 L260.7861328125 -157.7109375 L260.7861328125 157.7109375 L-260.7861328125 157.7109375" stroke="none" stroke-width="0" fill="#cde498"></path><path d="M-260.7861328125 -157.7109375 C-156.46933491389882 -157.7109375, -52.15253701529764 -157.7109375, 260.7861328125 -157.7109375 M-260.7861328125 -157.7109375 C-145.335125080338 -157.7109375, -29.884117348175977 -157.7109375, 260.7861328125 -157.7109375 M260.7861328125 -157.7109375 C260.7861328125 -89.1059522273179, 260.7861328125 -20.5009669546358, 260.7861328125 157.7109375 M260.7861328125 -157.7109375 C260.7861328125 -73.05304528270644, 260.7861328125 11.60484693458713, 260.7861328125 157.7109375 M260.7861328125 157.7109375 C148.29735061324118 157.7109375, 35.80856841398236 157.7109375, -260.7861328125 157.7109375 M260.7861328125 157.7109375 C64.72055523723157 157.7109375, -131.34502233803687 157.7109375, -260.7861328125 157.7109375 M-260.7861328125 157.7109375 C-260.7861328125 67.2450047516424, -260.7861328125 -23.220927996715204, -260.7861328125 -157.7109375 M-260.7861328125 157.7109375 C-260.7861328125 42.971099189210506, -260.7861328125 -71.76873912157899, -260.7861328125 -157.7109375" stroke="#13540c" stroke-width="1.3" fill="none" stroke-dasharray="0 0"></path></g><g style="" class="row-rect-odd"><path d="M-260.7861328125 -122.6640625 L260.7861328125 -122.6640625 L260.7861328125 -87.6171875 L-260.7861328125 -87.6171875" stroke="none" stroke-width="0" fill="hsl(78.1578947368, 58.4615384615%, 100%)"></path><path d="M-260.7861328125 -122.6640625 C-156.46933491389882 -122.6640625, -52.15253701529764 -122.6640625, 260.7861328125 -122.6640625 M-260.7861328125 -122.6640625 C-145.335125080338 -122.6640625, -29.884117348175977 -122.6640625, 260.7861328125 -122.6640625 M260.7861328125 -122.6640625 C260.7861328125 -115.04128635859088, 260.7861328125 -107.41851021718176, 260.7861328125 -87.6171875 M260.7861328125 -122.6640625 C260.7861328125 -113.25763003141182, 260.7861328125 -103.85119756282366, 260.7861328125 -87.6171875 M260.7861328125 -87.6171875 C148.29735061324118 -87.6171875, 35.80856841398236 -87.6171875, -260.7861328125 -87.6171875 M260.7861328125 -87.6171875 C64.72055523723157 -87.6171875, -131.34502233803687 -87.6171875, -260.7861328125 -87.6171875 M-260.7861328125 -87.6171875 C-260.7861328125 -97.66895780537307, -260.7861328125 -107.72072811074614, -260.7861328125 -122.6640625 M-260.7861328125 -87.6171875 C-260.7861328125 -100.36605842342105, -260.7861328125 -113.1149293468421, -260.7861328125 -122.6640625" stroke="#13540c" stroke-width="1.3" fill="none" stroke-dasharray="0 0"></path></g><g style="" class="row-rect-even"><path d="M-260.7861328125 -87.6171875 L260.7861328125 -87.6171875 L260.7861328125 -52.5703125 L-260.7861328125 -52.5703125" stroke="none" stroke-width="0" fill="hsl(78.1578947368, 58.4615384615%, 94.5098039216%)"></path><path d="M-260.7861328125 -87.6171875 C-156.46933491389882 -87.6171875, -52.15253701529764 -87.6171875, 260.7861328125 -87.6171875 M-260.7861328125 -87.6171875 C-145.335125080338 -87.6171875, -29.884117348175977 -87.6171875, 260.7861328125 -87.6171875 M260.7861328125 -87.6171875 C260.7861328125 -79.99441135859088, 260.7861328125 -72.37163521718176, 260.7861328125 -52.5703125 M260.7861328125 -87.6171875 C260.7861328125 -78.21075503141182, 260.7861328125 -68.80432256282366, 260.7861328125 -52.5703125 M260.7861328125 -52.5703125 C148.29735061324118 -52.5703125, 35.80856841398236 -52.5703125, -260.7861328125 -52.5703125 M260.7861328125 -52.5703125 C64.72055523723157 -52.5703125, -131.34502233803687 -52.5703125, -260.7861328125 -52.5703125 M-260.7861328125 -52.5703125 C-260.7861328125 -62.62208280537307, -260.7861328125 -72.67385311074614, -260.7861328125 -87.6171875 M-260.7861328125 -52.5703125 C-260.7861328125 -65.31918342342105, -260.7861328125 -78.0680543468421, -260.7861328125 -87.6171875" stroke="#13540c" stroke-width="1.3" fill="none" stroke-dasharray="0 0"></path></g><g style="" class="row-rect-odd"><path d="M-260.7861328125 -52.5703125 L260.7861328125 -52.5703125 L260.7861328125 -17.5234375 L-260.7861328125 -17.5234375" stroke="none" stroke-width="0" fill="hsl(78.1578947368, 58.4615384615%, 100%)"></path><path d="M-260.7861328125 -52.5703125 C-156.46933491389882 -52.5703125, -52.15253701529764 -52.5703125, 260.7861328125 -52.5703125 M-260.7861328125 -52.5703125 C-145.335125080338 -52.5703125, -29.884117348175977 -52.5703125, 260.7861328125 -52.5703125 M260.7861328125 -52.5703125 C260.7861328125 -44.94753635859088, 260.7861328125 -37.324760217181755, 260.7861328125 -17.5234375 M260.7861328125 -52.5703125 C260.7861328125 -43.16388003141183, 260.7861328125 -33.75744756282366, 260.7861328125 -17.5234375 M260.7861328125 -17.5234375 C148.29735061324118 -17.5234375, 35.80856841398236 -17.5234375, -260.7861328125 -17.5234375 M260.7861328125 -17.5234375 C64.72055523723157 -17.5234375, -131.34502233803687 -17.5234375, -260.7861328125 -17.5234375 M-260.7861328125 -17.5234375 C-260.7861328125 -27.57520780537307, -260.7861328125 -37.62697811074614, -260.7861328125 -52.5703125 M-260.7861328125 -17.5234375 C-260.7861328125 -30.272308423421055, -260.7861328125 -43.02117934684211, -260.7861328125 -52.5703125" stroke="#13540c" stroke-width="1.3" fill="none" stroke-dasharray="0 0"></path></g><g style="" class="row-rect-even"><path d="M-260.7861328125 -17.5234375 L260.7861328125 -17.5234375 L260.7861328125 17.5234375 L-260.7861328125 17.5234375" stroke="none" stroke-width="0" fill="hsl(78.1578947368, 58.4615384615%, 94.5098039216%)"></path><path d="M-260.7861328125 -17.5234375 C-156.46933491389882 -17.5234375, -52.15253701529764 -17.5234375, 260.7861328125 -17.5234375 M-260.7861328125 -17.5234375 C-145.335125080338 -17.5234375, -29.884117348175977 -17.5234375, 260.7861328125 -17.5234375 M260.7861328125 -17.5234375 C260.7861328125 -9.900661358590877, 260.7861328125 -2.2778852171817547, 260.7861328125 17.5234375 M260.7861328125 -17.5234375 C260.7861328125 -8.117005031411827, 260.7861328125 1.2894274371763466, 260.7861328125 17.5234375 M260.7861328125 17.5234375 C148.29735061324118 17.5234375, 35.80856841398236 17.5234375, -260.7861328125 17.5234375 M260.7861328125 17.5234375 C64.72055523723157 17.5234375, -131.34502233803687 17.5234375, -260.7861328125 17.5234375 M-260.7861328125 17.5234375 C-260.7861328125 7.471667194626933, -260.7861328125 -2.5801031107461334, -260.7861328125 -17.5234375 M-260.7861328125 17.5234375 C-260.7861328125 4.774566576578945, -260.7861328125 -7.974304346842111, -260.7861328125 -17.5234375" stroke="#13540c" stroke-width="1.3" fill="none" stroke-dasharray="0 0"></path></g><g style="" class="row-rect-odd"><path d="M-260.7861328125 17.5234375 L260.7861328125 17.5234375 L260.7861328125 52.5703125 L-260.7861328125 52.5703125" stroke="none" stroke-width="0" fill="hsl(78.1578947368, 58.4615384615%, 100%)"></path><path d="M-260.7861328125 17.5234375 C-156.46933491389882 17.5234375, -52.15253701529764 17.5234375, 260.7861328125 17.5234375 M-260.7861328125 17.5234375 C-145.335125080338 17.5234375, -29.884117348175977 17.5234375, 260.7861328125 17.5234375 M260.7861328125 17.5234375 C260.7861328125 25.146213641409123, 260.7861328125 32.768989782818245, 260.7861328125 52.5703125 M260.7861328125 17.5234375 C260.7861328125 26.92986996858817, 260.7861328125 36.33630243717634, 260.7861328125 52.5703125 M260.7861328125 52.5703125 C148.29735061324118 52.5703125, 35.80856841398236 52.5703125, -260.7861328125 52.5703125 M260.7861328125 52.5703125 C64.72055523723157 52.5703125, -131.34502233803687 52.5703125, -260.7861328125 52.5703125 M-260.7861328125 52.5703125 C-260.7861328125 42.51854219462693, -260.7861328125 32.46677188925386, -260.7861328125 17.5234375 M-260.7861328125 52.5703125 C-260.7861328125 39.82144157657895, -260.7861328125 27.07257065315789, -260.7861328125 17.5234375" stroke="#13540c" stroke-width="1.3" fill="none" stroke-dasharray="0 0"></path></g><g style="" class="row-rect-even"><path d="M-260.7861328125 52.5703125 L260.7861328125 52.5703125 L260.7861328125 87.6171875 L-260.7861328125 87.6171875" stroke="none" stroke-width="0" fill="hsl(78.1578947368, 58.4615384615%, 94.5098039216%)"></path><path d="M-260.7861328125 52.5703125 C-156.46933491389882 52.5703125, -52.15253701529764 52.5703125, 260.7861328125 52.5703125 M-260.7861328125 52.5703125 C-145.335125080338 52.5703125, -29.884117348175977 52.5703125, 260.7861328125 52.5703125 M260.7861328125 52.5703125 C260.7861328125 60.19308864140912, 260.7861328125 67.81586478281824, 260.7861328125 87.6171875 M260.7861328125 52.5703125 C260.7861328125 61.97674496858817, 260.7861328125 71.38317743717634, 260.7861328125 87.6171875 M260.7861328125 87.6171875 C148.29735061324118 87.6171875, 35.80856841398236 87.6171875, -260.7861328125 87.6171875 M260.7861328125 87.6171875 C64.72055523723157 87.6171875, -131.34502233803687 87.6171875, -260.7861328125 87.6171875 M-260.7861328125 87.6171875 C-260.7861328125 77.56541719462693, -260.7861328125 67.51364688925386, -260.7861328125 52.5703125 M-260.7861328125 87.6171875 C-260.7861328125 74.86831657657895, -260.7861328125 62.11944565315789, -260.7861328125 52.5703125" stroke="#13540c" stroke-width="1.3" fill="none" stroke-dasharray="0 0"></path></g><g style="" class="row-rect-odd"><path d="M-260.7861328125 87.6171875 L260.7861328125 87.6171875 L260.7861328125 122.6640625 L-260.7861328125 122.6640625" stroke="none" stroke-width="0" fill="hsl(78.1578947368, 58.4615384615%, 100%)"></path><path d="M-260.7861328125 87.6171875 C-156.46933491389882 87.6171875, -52.15253701529764 87.6171875, 260.7861328125 87.6171875 M-260.7861328125 87.6171875 C-145.335125080338 87.6171875, -29.884117348175977 87.6171875, 260.7861328125 87.6171875 M260.7861328125 87.6171875 C260.7861328125 95.23996364140912, 260.7861328125 102.86273978281824, 260.7861328125 122.6640625 M260.7861328125 87.6171875 C260.7861328125 97.02361996858818, 260.7861328125 106.43005243717634, 260.7861328125 122.6640625 M260.7861328125 122.6640625 C148.29735061324118 122.6640625, 35.80856841398236 122.6640625, -260.7861328125 122.6640625 M260.7861328125 122.6640625 C64.72055523723157 122.6640625, -131.34502233803687 122.6640625, -260.7861328125 122.6640625 M-260.7861328125 122.6640625 C-260.7861328125 112.61229219462693, -260.7861328125 102.56052188925386, -260.7861328125 87.6171875 M-260.7861328125 122.6640625 C-260.7861328125 109.91519157657895, -260.7861328125 97.1663206531579, -260.7861328125 87.6171875" stroke="#13540c" stroke-width="1.3" fill="none" stroke-dasharray="0 0"></path></g><g style="" class="row-rect-even"><path d="M-260.7861328125 122.6640625 L260.7861328125 122.6640625 L260.7861328125 157.7109375 L-260.7861328125 157.7109375" stroke="none" stroke-width="0" fill="hsl(78.1578947368, 58.4615384615%, 94.5098039216%)"></path><path d="M-260.7861328125 122.6640625 C-156.46933491389882 122.6640625, -52.15253701529764 122.6640625, 260.7861328125 122.6640625 M-260.7861328125 122.6640625 C-145.335125080338 122.6640625, -29.884117348175977 122.6640625, 260.7861328125 122.6640625 M260.7861328125 122.6640625 C260.7861328125 130.28683864140913, 260.7861328125 137.90961478281824, 260.7861328125 157.7109375 M260.7861328125 122.6640625 C260.7861328125 132.07049496858818, 260.7861328125 141.47692743717636, 260.7861328125 157.7109375 M260.7861328125 157.7109375 C148.29735061324118 157.7109375, 35.80856841398236 157.7109375, -260.7861328125 157.7109375 M260.7861328125 157.7109375 C64.72055523723157 157.7109375, -131.34502233803687 157.7109375, -260.7861328125 157.7109375 M-260.7861328125 157.7109375 C-260.7861328125 147.65916719462695, -260.7861328125 137.60739688925386, -260.7861328125 122.6640625 M-260.7861328125 157.7109375 C-260.7861328125 144.96206657657893, -260.7861328125 132.2131956531579, -260.7861328125 122.6640625" stroke="#13540c" stroke-width="1.3" fill="none" stroke-dasharray="0 0"></path></g><g class="label name" transform="translate(-162.72265625, -148.3359375)" style=""><foreignObject width="325.4453125" height="16.296875"><div style="display: table-cell; white-space: nowrap; line-height: 1.5; max-width: 472px; text-align: start;" xmlns="http://www.w3.org/1999/xhtml"><span class="nodeLabel "><p>Address//StreetAddress::[DELIVERY ADDRESS]</p></span></div></foreignObject></g><g class="label attribute-type" transform="translate(-248.2861328125, -113.2890625)" style=""><foreignObject width="18.251953125" height="16.296875"><div style="display: table-cell; white-space: nowrap; line-height: 1.5; max-width: 121px; text-align: start;" xmlns="http://www.w3.org/1999/xhtml"><span class="nodeLabel "><p>int</p></span></div></foreignObject></g><g class="label attribute-name" transform="translate(-163.2666015625, -113.2890625)" style=""><foreignObject width="80.8349609375" height="16.296875"><div style="display: table-cell; white-space: nowrap; line-height: 1.5; max-width: 192px; text-align: start;" xmlns="http://www.w3.org/1999/xhtml"><span class="nodeLabel "><p>customerID</p></span></div></foreignObject></g><g class="label attribute-keys" transform="translate(-54.7998046875, -113.2890625)" style=""><foreignObject width="17.2333984375" height="16.296875"><div style="display: table-cell; white-space: nowrap; line-height: 1.5; max-width: 120px; text-align: start;" xmlns="http://www.w3.org/1999/xhtml"><span class="nodeLabel "><p>FK</p></span></div></foreignObject></g><g class="label attribute-comment" transform="translate(-12.56640625, -113.2890625)" style=""><foreignObject width="0" height="16.296875"><div style="display: table-cell; white-space: nowrap; line-height: 1.5; max-width: 100px; text-align: start;" xmlns="http://www.w3.org/1999/xhtml"><span class="nodeLabel "></span></div></foreignObject></g><g class="label attribute-type" transform="translate(-248.2861328125, -78.2421875)" style=""><foreignObject width="40.1884765625" height="16.296875"><div style="display: table-cell; white-space: nowrap; line-height: 1.5; max-width: 146px; text-align: start;" xmlns="http://www.w3.org/1999/xhtml"><span class="nodeLabel "><p>string</p></span></div></foreignObject></g><g class="label attribute-name" transform="translate(-163.2666015625, -78.2421875)" style=""><foreignObject width="34.1728515625" height="16.296875"><div style="display: table-cell; white-space: nowrap; line-height: 1.5; max-width: 139px; text-align: start;" xmlns="http://www.w3.org/1999/xhtml"><span class="nodeLabel "><p>line1</p></span></div></foreignObject></g><g class="label attribute-keys" transform="translate(-54.7998046875, -78.2421875)" style=""><foreignObject width="0" height="16.296875"><div style="display: table-cell; white-space: nowrap; line-height: 1.5; max-width: 100px; text-align: start;" xmlns="http://www.w3.org/1999/xhtml"><span class="nodeLabel "></span></div></foreignObject></g><g class="label attribute-comment" transform="translate(-12.56640625, -78.2421875)" style=""><foreignObject width="260.8525390625" height="16.296875"><div style="display: table-cell; white-space: nowrap; line-height: 1.5; max-width: 398px; text-align: start;" xmlns="http://www.w3.org/1999/xhtml"><span class="nodeLabel "><p>this is the first address line comment</p></span></div></foreignObject></g><g class="label attribute-type" transform="translate(-248.2861328125, -43.1953125)" style=""><foreignObject width="40.1884765625" height="16.296875"><div style="display: table-cell; white-space: nowrap; line-height: 1.5; max-width: 146px; text-align: start;" xmlns="http://www.w3.org/1999/xhtml"><span class="nodeLabel "><p>string</p></span></div></foreignObject></g><g class="label attribute-name" transform="translate(-163.2666015625, -43.1953125)" style=""><foreignObject width="34.1728515625" height="16.296875"><div style="display: table-cell; white-space: nowrap; line-height: 1.5; max-width: 139px; text-align: start;" xmlns="http://www.w3.org/1999/xhtml"><span class="nodeLabel "><p>line2</p></span></div></foreignObject></g><g class="label attribute-keys" transform="translate(-54.7998046875, -43.1953125)" style=""><foreignObject width="0" height="16.296875"><div style="display: table-cell; white-space: nowrap; line-height: 1.5; max-width: 100px; text-align: start;" xmlns="http://www.w3.org/1999/xhtml"><span class="nodeLabel "></span></div></foreignObject></g><g class="label attribute-comment" transform="translate(-12.56640625, -43.1953125)" style=""><foreignObject width="0" height="16.296875"><div style="display: table-cell; white-space: nowrap; line-height: 1.5; max-width: 100px; text-align: start;" xmlns="http://www.w3.org/1999/xhtml"><span class="nodeLabel "></span></div></foreignObject></g><g class="label attribute-type" transform="translate(-248.2861328125, -8.1484375)" style=""><foreignObject width="40.1884765625" height="16.296875"><div style="display: table-cell; white-space: nowrap; line-height: 1.5; max-width: 146px; text-align: start;" xmlns="http://www.w3.org/1999/xhtml"><span class="nodeLabel "><p>string</p></span></div></foreignObject></g><g class="label attribute-name" transform="translate(-163.2666015625, -8.1484375)" style=""><foreignObject width="25.361328125" height="16.296875"><div style="display: table-cell; white-space: nowrap; line-height: 1.5; max-width: 129px; text-align: start;" xmlns="http://www.w3.org/1999/xhtml"><span class="nodeLabel "><p>city</p></span></div></foreignObject></g><g class="label attribute-keys" transform="translate(-54.7998046875, -8.1484375)" style=""><foreignObject width="0" height="16.296875"><div style="display: table-cell; white-space: nowrap; line-height: 1.5; max-width: 100px; text-align: start;" xmlns="http://www.w3.org/1999/xhtml"><span class="nodeLabel "></span></div></foreignObject></g><g class="label attribute-comment" transform="translate(-12.56640625, -8.1484375)" style=""><foreignObject width="0" height="16.296875"><div style="display: table-cell; white-space: nowrap; line-height: 1.5; max-width: 100px; text-align: start;" xmlns="http://www.w3.org/1999/xhtml"><span class="nodeLabel "></span></div></foreignObject></g><g class="label attribute-type" transform="translate(-248.2861328125, 26.8984375)" style=""><foreignObject width="40.1884765625" height="16.296875"><div style="display: table-cell; white-space: nowrap; line-height: 1.5; max-width: 146px; text-align: start;" xmlns="http://www.w3.org/1999/xhtml"><span class="nodeLabel "><p>string</p></span></div></foreignObject></g><g class="label attribute-name" transform="translate(-163.2666015625, 26.8984375)" style=""><foreignObject width="44.583984375" height="16.296875"><div style="display: table-cell; white-space: nowrap; line-height: 1.5; max-width: 151px; text-align: start;" xmlns="http://www.w3.org/1999/xhtml"><span class="nodeLabel "><p>region</p></span></div></foreignObject></g><g class="label attribute-keys" transform="translate(-54.7998046875, 26.8984375)" style=""><foreignObject width="0" height="16.296875"><div style="display: table-cell; white-space: nowrap; line-height: 1.5; max-width: 100px; text-align: start;" xmlns="http://www.w3.org/1999/xhtml"><span class="nodeLabel "></span></div></foreignObject></g><g class="label attribute-comment" transform="translate(-12.56640625, 26.8984375)" style=""><foreignObject width="0" height="16.296875"><div style="display: table-cell; white-space: nowrap; line-height: 1.5; max-width: 100px; text-align: start;" xmlns="http://www.w3.org/1999/xhtml"><span class="nodeLabel "></span></div></foreignObject></g><g class="label attribute-type" transform="translate(-248.2861328125, 61.9453125)" style=""><foreignObject width="40.1884765625" height="16.296875"><div style="display: table-cell; white-space: nowrap; line-height: 1.5; max-width: 146px; text-align: start;" xmlns="http://www.w3.org/1999/xhtml"><span class="nodeLabel "><p>string</p></span></div></foreignObject></g><g class="label attribute-name" transform="translate(-163.2666015625, 61.9453125)" style=""><foreignObject width="35.46484375" height="16.296875"><div style="display: table-cell; white-space: nowrap; line-height: 1.5; max-width: 141px; text-align: start;" xmlns="http://www.w3.org/1999/xhtml"><span class="nodeLabel "><p>state</p></span></div></foreignObject></g><g class="label attribute-keys" transform="translate(-54.7998046875, 61.9453125)" style=""><foreignObject width="0" height="16.296875"><div style="display: table-cell; white-space: nowrap; line-height: 1.5; max-width: 100px; text-align: start;" xmlns="http://www.w3.org/1999/xhtml"><span class="nodeLabel "></span></div></foreignObject></g><g class="label attribute-comment" transform="translate(-12.56640625, 61.9453125)" style=""><foreignObject width="0" height="16.296875"><div style="display: table-cell; white-space: nowrap; line-height: 1.5; max-width: 100px; text-align: start;" xmlns="http://www.w3.org/1999/xhtml"><span class="nodeLabel "></span></div></foreignObject></g><g class="label attribute-type" transform="translate(-248.2861328125, 96.9921875)" style=""><foreignObject width="60.01953125" height="16.296875"><div style="display: table-cell; white-space: nowrap; line-height: 1.5; max-width: 169px; text-align: start;" xmlns="http://www.w3.org/1999/xhtml"><span class="nodeLabel "><p>string(5)</p></span></div></foreignObject></g><g class="label attribute-name" transform="translate(-163.2666015625, 96.9921875)" style=""><foreignObject width="83.466796875" height="16.296875"><div style="display: table-cell; white-space: nowrap; line-height: 1.5; max-width: 195px; text-align: start;" xmlns="http://www.w3.org/1999/xhtml"><span class="nodeLabel "><p>postal_code</p></span></div></foreignObject></g><g class="label attribute-keys" transform="translate(-54.7998046875, 96.9921875)" style=""><foreignObject width="0" height="16.296875"><div style="display: table-cell; white-space: nowrap; line-height: 1.5; max-width: 100px; text-align: start;" xmlns="http://www.w3.org/1999/xhtml"><span class="nodeLabel "></span></div></foreignObject></g><g class="label attribute-comment" transform="translate(-12.56640625, 96.9921875)" style=""><foreignObject width="0" height="16.296875"><div style="display: table-cell; white-space: nowrap; line-height: 1.5; max-width: 100px; text-align: start;" xmlns="http://www.w3.org/1999/xhtml"><span class="nodeLabel "></span></div></foreignObject></g><g class="label attribute-type" transform="translate(-248.2861328125, 132.0390625)" style=""><foreignObject width="40.1884765625" height="16.296875"><div style="display: table-cell; white-space: nowrap; line-height: 1.5; max-width: 146px; text-align: start;" xmlns="http://www.w3.org/1999/xhtml"><span class="nodeLabel "><p>string</p></span></div></foreignObject></g><g class="label attribute-name" transform="translate(-163.2666015625, 132.0390625)" style=""><foreignObject width="53.5390625" height="16.296875"><div style="display: table-cell; white-space: nowrap; line-height: 1.5; max-width: 161px; text-align: start;" xmlns="http://www.w3.org/1999/xhtml"><span class="nodeLabel "><p>country</p></span></div></foreignObject></g><g class="label attribute-keys" transform="translate(-54.7998046875, 132.0390625)" style=""><foreignObject width="0" height="16.296875"><div style="display: table-cell; white-space: nowrap; line-height: 1.5; max-width: 100px; text-align: start;" xmlns="http://www.w3.org/1999/xhtml"><span class="nodeLabel "></span></div></foreignObject></g><g class="label attribute-comment" transform="translate(-12.56640625, 132.0390625)" style=""><foreignObject width="0" height="16.296875"><div style="display: table-cell; white-space: nowrap; line-height: 1.5; max-width: 100px; text-align: start;" xmlns="http://www.w3.org/1999/xhtml"><span class="nodeLabel "></span></div></foreignObject></g><g class="divider"><path d="M-260.7861328125 -122.6641125 L-260.7861328125 -122.6640125 L260.7861328125 -122.6640125 L260.7861328125 -122.6641125" stroke="none" stroke-width="0" fill="#cde498" fill-rule="evenodd"></path><path d="M-260.7861328125 -122.6641125 C-260.7861328125 -122.66409249955045, -260.7861328125 -122.66407249910088, -260.7861328125 -122.6640125 M-260.7861328125 -122.6641125 C-260.7861328125 -122.66409036481082, -260.7861328125 -122.66406822962163, -260.7861328125 -122.6640125 M-260.7861328125 -122.6640125 C-147.34296213246216 -122.6640125, -33.899791452424296 -122.6640125, 260.7861328125 -122.6640125 M-260.7861328125 -122.6640125 C-120.79835090355391 -122.6640125, 19.18943100539218 -122.6640125, 260.7861328125 -122.6640125 M260.7861328125 -122.6640125 C260.7861328125 -122.66403406724766, 260.7861328125 -122.6640556344953, 260.7861328125 -122.6641125 M260.7861328125 -122.6640125 C260.7861328125 -122.66405009125829, 260.7861328125 -122.6640876825166, 260.7861328125 -122.6641125 M260.7861328125 -122.6641125 C111.194347190657 -122.6641125, -38.397438431186 -122.6641125, -260.7861328125 -122.6641125 M260.7861328125 -122.6641125 C71.0557362596146 -122.6641125, -118.67466029327079 -122.6641125, -260.7861328125 -122.6641125" stroke="#13540c" stroke-width="1.3" fill="none" stroke-dasharray="0 0"></path></g><g class="divider"><path d="M-175.7666515625 -122.6640625 L-175.7665515625 -122.6640625 L-175.7665515625 157.7109375 L-175.7666515625 157.7109375" stroke="none" stroke-width="0" fill="#cde498" fill-rule="evenodd"></path><path d="M-175.7666515625 -122.6640625 C-175.76663156205043 -122.6640625, -175.76661156160088 -122.6640625, -175.7665515625 -122.6640625 M-175.7666515625 -122.6640625 C-175.76662942731082 -122.6640625, -175.76660729212162 -122.6640625, -175.7665515625 -122.6640625 M-175.7665515625 -122.6640625 C-175.7665515625 -61.68185336872702, -175.7665515625 -0.6996442374540379, -175.7665515625 157.7109375 M-175.7665515625 -122.6640625 C-175.7665515625 -47.412602751294614, -175.7665515625 27.838856997410772, -175.7665515625 157.7109375 M-175.7665515625 157.7109375 C-175.76657312974766 157.7109375, -175.7665946969953 157.7109375, -175.7666515625 157.7109375 M-175.7665515625 157.7109375 C-175.7665891537583 157.7109375, -175.7666267450166 157.7109375, -175.7666515625 157.7109375 M-175.7666515625 157.7109375 C-175.7666515625 77.29677505701547, -175.7666515625 -3.1173873859690673, -175.7666515625 -122.6640625 M-175.7666515625 157.7109375 C-175.7666515625 55.71997011263156, -175.7666515625 -46.270997274736885, -175.7666515625 -122.6640625" stroke="#13540c" stroke-width="1.3" fill="none" stroke-dasharray="0 0"></path></g><g class="divider"><path d="M-67.2998546875 -122.6640625 L-67.2997546875 -122.6640625 L-67.2997546875 157.7109375 L-67.2998546875 157.7109375" stroke="none" stroke-width="0" fill="#cde498" fill-rule="evenodd"></path><path d="M-67.2998546875 -122.6640625 C-67.29983468705045 -122.6640625, -67.29981468660088 -122.6640625, -67.2997546875 -122.6640625 M-67.2998546875 -122.6640625 C-67.29983255231082 -122.6640625, -67.29981041712163 -122.6640625, -67.2997546875 -122.6640625 M-67.2997546875 -122.6640625 C-67.2997546875 -61.68185336872702, -67.2997546875 -0.6996442374540379, -67.2997546875 157.7109375 M-67.2997546875 -122.6640625 C-67.2997546875 -47.412602751294614, -67.2997546875 27.838856997410772, -67.2997546875 157.7109375 M-67.2997546875 157.7109375 C-67.29977625474766 157.7109375, -67.2997978219953 157.7109375, -67.2998546875 157.7109375 M-67.2997546875 157.7109375 C-67.29979227875829 157.7109375, -67.2998298700166 157.7109375, -67.2998546875 157.7109375 M-67.2998546875 157.7109375 C-67.2998546875 77.29677505701547, -67.2998546875 -3.1173873859690673, -67.2998546875 -122.6640625 M-67.2998546875 157.7109375 C-67.2998546875 55.71997011263156, -67.2998546875 -46.270997274736885, -67.2998546875 -122.6640625" stroke="#13540c" stroke-width="1.3" fill="none" stroke-dasharray="0 0"></path></g><g class="divider"><path d="M-25.06645625 -122.6640625 L-25.06635625 -122.6640625 L-25.06635625 157.7109375 L-25.06645625 157.7109375" stroke="none" stroke-width="0" fill="#cde498" fill-rule="evenodd"></path><path d="M-25.06645625 -122.6640625 C-25.066436249550442 -122.6640625, -25.066416249100882 -122.6640625, -25.06635625 -122.6640625 M-25.06645625 -122.6640625 C-25.066434114810814 -122.6640625, -25.06641197962163 -122.6640625, -25.06635625 -122.6640625 M-25.06635625 -122.6640625 C-25.06635625 -61.68185336872702, -25.06635625 -0.6996442374540379, -25.06635625 157.7109375 M-25.06635625 -122.6640625 C-25.06635625 -47.412602751294614, -25.06635625 27.838856997410772, -25.06635625 157.7109375 M-25.06635625 157.7109375 C-25.06637781724765 157.7109375, -25.0663993844953 157.7109375, -25.06645625 157.7109375 M-25.06635625 157.7109375 C-25.066393841258297 157.7109375, -25.066431432516595 157.7109375, -25.06645625 157.7109375 M-25.06645625 157.7109375 C-25.06645625 77.29677505701547, -25.06645625 -3.1173873859690673, -25.06645625 -122.6640625 M-25.06645625 157.7109375 C-25.06645625 55.71997011263156, -25.06645625 -46.270997274736885, -25.06645625 -122.6640625" stroke="#13540c" stroke-width="1.3" fill="none" stroke-dasharray="0 0"></path></g><g class="divider"><path d="M-260.7861328125 -122.6641125 L-260.7861328125 -122.6640125 L260.7861328125 -122.6640125 L260.7861328125 -122.6641125" stroke="none" stroke-width="0" fill="#cde498" fill-rule="evenodd"></path><path d="M-260.7861328125 -122.6641125 C-260.7861328125 -122.66409249955045, -260.7861328125 -122.66407249910088, -260.7861328125 -122.6640125 M-260.7861328125 -122.6641125 C-260.7861328125 -122.66409036481082, -260.7861328125 -122.66406822962163, -260.7861328125 -122.6640125 M-260.7861328125 -122.6640125 C-147.34296213246216 -122.6640125, -33.899791452424296 -122.6640125, 260.7861328125 -122.6640125 M-260.7861328125 -122.6640125 C-120.79835090355391 -122.6640125, 19.18943100539218 -122.6640125, 260.7861328125 -122.6640125 M260.7861328125 -122.6640125 C260.7861328125 -122.66403406724766, 260.7861328125 -122.6640556344953, 260.7861328125 -122.6641125 M260.7861328125 -122.6640125 C260.7861328125 -122.66405009125829, 260.7861328125 -122.6640876825166, 260.7861328125 -122.6641125 M260.7861328125 -122.6641125 C111.194347190657 -122.6641125, -38.397438431186 -122.6641125, -260.7861328125 -122.6641125 M260.7861328125 -122.6641125 C71.0557362596146 -122.6641125, -118.67466029327079 -122.6641125, -260.7861328125 -122.6641125" stroke="#13540c" stroke-width="1.3" fill="none" stroke-dasharray="0 0"></path></g></g><g class="node default " id="ref-ext-fixtures-demos-er-02-entity-a_~`!@#$^&amp;*()-_=+[]{}|/;:'.?¡⁄™€£‹¢›∞ﬁ§‡•°ª·º‚≠±œŒ∑„®†ˇ¥Á¨ˆˆØπ∏“«»åÅßÍ∂ÎƒÏ©˙Ó∆Ô˚¬Ò…ÚæÆΩ¸≈π˛çÇ√◊∫ı˜µÂ≤¯≥˘÷¿-4" data-look="classic" transform="translate(1098.150390625, 46.1484375)"><g class="outer-path" style=""><path d="M-521.49462890625 -35.046875 L521.49462890625 -35.046875 L521.49462890625 35.046875 L-521.49462890625 35.046875" stroke="none" stroke-width="0" fill="#cde498"></path><path d="M-521.49462890625 -35.046875 C-312.89208849459294 -35.046875, -104.28954808293582 -35.046875, 521.49462890625 -35.046875 M-521.49462890625 -35.046875 C-290.62698351107053 -35.046875, -59.75933811589107 -35.046875, 521.49462890625 -35.046875 M521.49462890625 -35.046875 C521.49462890625 -19.801322717181755, 521.49462890625 -4.5557704343635095, 521.49462890625 35.046875 M521.49462890625 -35.046875 C521.49462890625 -16.234010062823653, 521.49462890625 2.578854874352693, 521.49462890625 35.046875 M521.49462890625 35.046875 C296.5505527145321 35.046875, 71.6064765228142 35.046875, -521.49462890625 35.046875 M521.49462890625 35.046875 C129.42184299467 35.046875, -262.65094291691 35.046875, -521.49462890625 35.046875 M-521.49462890625 35.046875 C-521.49462890625 14.943334389253867, -521.49462890625 -5.160206221492267, -521.49462890625 -35.046875 M-521.49462890625 35.046875 C-521.49462890625 9.54913315315789, -521.49462890625 -15.948608693684221, -521.49462890625 -35.046875" stroke="#13540c" stroke-width="1.3" fill="none" stroke-dasharray="0 0"></path></g><g style="" class="row-rect-odd"><path d="M-521.49462890625 0 L521.49462890625 0 L521.49462890625 35.046875 L-521.49462890625 35.046875" stroke="none" stroke-width="0" fill="hsl(78.1578947368, 58.4615384615%, 100%)"></path><path d="M-521.49462890625 0 C-312.89208849459294 0, -104.28954808293582 0, 521.49462890625 0 M-521.49462890625 0 C-290.62698351107053 0, -59.75933811589107 0, 521.49462890625 0 M521.49462890625 0 C521.49462890625 7.622776141409123, 521.49462890625 15.245552282818245, 521.49462890625 35.046875 M521.49462890625 0 C521.49462890625 9.406432468588173, 521.49462890625 18.812864937176347, 521.49462890625 35.046875 M521.49462890625 35.046875 C296.5505527145321 35.046875, 71.6064765228142 35.046875, -521.49462890625 35.046875 M521.49462890625 35.046875 C129.42184299467 35.046875, -262.65094291691 35.046875, -521.49462890625 35.046875 M-521.49462890625 35.046875 C-521.49462890625 24.99510469462693, -521.49462890625 14.943334389253867, -521.49462890625 0 M-521.49462890625 35.046875 C-521.49462890625 22.298004076578945, -521.49462890625 9.54913315315789, -521.49462890625 0" stroke="#13540c" stroke-width="1.3" fill="none" stroke-dasharray="0 0"></path></g><g class="label name" transform="translate(-449.13134765625, -25.671875)" style=""><foreignObject width="898.2626953125" height="16.296875"><div style="display: table-cell; white-space: nowrap; line-height: 1.5; max-width: 1127px; text-align: start;" xmlns="http://www.w3.org/1999/xhtml"><span class="nodeLabel "><p>a_~`!@#$^&amp;*()-_=+[]{}|/;:'.?¡⁄™€£‹¢›∞ﬁ§‡•°ª·º‚≠±œŒ∑„®†ˇ¥Á¨ˆˆØπ∏“«»åÅßÍ∂ÎƒÏ©˙Ó∆Ô˚¬Ò…ÚæÆΩ¸≈π˛çÇ√◊∫ı˜µÂ≤¯≥˘÷¿</p></span></div></foreignObject></g><g class="label attribute-type" transform="translate(-508.99462890625, 9.375)" style=""><foreignObject width="40.1884765625" height="16.296875"><div style="display: table-cell; white-space: nowrap; line-height: 1.5; max-width: 146px; text-align: start;" xmlns="http://www.w3.org/1999/xhtml"><span class="nodeLabel "><p>string</p></span></div></foreignObject></g><g class="label attribute-name" transform="translate(-443.80615234375, 9.375)" style=""><foreignObject width="39.703125" height="16.296875"><div style="display: table-cell; white-space: nowrap; line-height: 1.5; max-width: 145px; text-align: start;" xmlns="http://www.w3.org/1999/xhtml"><span class="nodeLabel "><p>name</p></span></div></foreignObject></g><g class="label attribute-keys" transform="translate(-379.10302734375, 9.375)" style=""><foreignObject width="0" height="16.296875"><div style="display: table-cell; white-space: nowrap; line-height: 1.5; max-width: 100px; text-align: start;" xmlns="http://www.w3.org/1999/xhtml"><span class="nodeLabel "></span></div></foreignObject></g><g class="label attribute-comment" transform="translate(-379.10302734375, 9.375)" style=""><foreignObject width="888.09765625" height="16.296875"><div style="display: table-cell; white-space: nowrap; line-height: 1.5; max-width: 1115px; text-align: start;" xmlns="http://www.w3.org/1999/xhtml"><span class="nodeLabel "><p>this is an entity with an absurd name just to show characters that are now acceptable as long as the name is in double quotes</p></span></div></foreignObject></g><g class="divider"><path d="M-521.49462890625 -0.00005 L-521.49462890625 0.00005 L521.49462890625 0.00005 L521.49462890625 -0.00005" stroke="none" stroke-width="0" fill="#cde498" fill-rule="evenodd"></path><path d="M-521.49462890625 -0.00005 C-521.49462890625 -0.000029999550441280008, -521.49462890625 -0.000009999100882560013, -521.49462890625 0.00005 M-521.49462890625 -0.00005 C-521.49462890625 -0.000027864810815081, -521.49462890625 -0.000005729621630161997, -521.49462890625 0.00005 M-521.49462890625 0.00005 C-294.642059876939 0.00005, -67.78949084762803 0.00005, 521.49462890625 0.00005 M-521.49462890625 0.00005 C-241.56073981981416 0.00005, 38.37314926662168 0.00005, 521.49462890625 0.00005 M521.49462890625 0.00005 C521.49462890625 0.000028432752350345253, 521.49462890625 0.000006865504700690504, 521.49462890625 -0.00005 M521.49462890625 0.00005 C521.49462890625 0.000012408741703256966, 521.49462890625 -0.00002518251659348607, 521.49462890625 -0.00005 M521.49462890625 -0.00005 C222.35559153122637 -0.00005, -76.78344584379727 -0.00005, -521.49462890625 -0.00005 M521.49462890625 -0.00005 C142.09031903935636 -0.00005, -237.31399082753728 -0.00005, -521.49462890625 -0.00005" stroke="#13540c" stroke-width="1.3" fill="none" stroke-dasharray="0 0"></path></g><g class="divider"><path d="M-456.30620234375 0 L-456.30610234375 0 L-456.30610234375 35.046875 L-456.30620234375 35.046875" stroke="none" stroke-width="0" fill="#cde498" fill-rule="evenodd"></path><path d="M-456.30620234375 0 C-456.3061823433004 0, -456.3061623428509 0, -456.30610234375 0 M-456.30620234375 0 C-456.3061802085608 0, -456.30615807337165 0, -456.30610234375 0 M-456.30610234375 0 C-456.30610234375 7.622776141409123, -456.30610234375 15.245552282818245, -456.30610234375 35.046875 M-456.30610234375 0 C-456.30610234375 9.406432468588173, -456.30610234375 18.812864937176347, -456.30610234375 35.046875 M-456.30610234375 35.046875 C-456.30612391099766 35.046875, -456.3061454782453 35.046875, -456.30620234375 35.046875 M-456.30610234375 35.046875 C-456.3061399350083 35.046875, -456.3061775262666 35.046875, -456.30620234375 35.046875 M-456.30620234375 35.046875 C-456.30620234375 24.99510469462693, -456.30620234375 14.943334389253867, -456.30620234375 0 M-456.30620234375 35.046875 C-456.30620234375 22.298004076578945, -456.30620234375 9.54913315315789, -456.30620234375 0" stroke="#13540c" stroke-width="1.3" fill="none" stroke-dasharray="0 0"></path></g><g class="divider"><path d="M-391.60307734375 0 L-391.60297734375 0 L-391.60297734375 35.046875 L-391.60307734375 35.046875" stroke="none" stroke-width="0" fill="#cde498" fill-rule="evenodd"></path><path d="M-391.60307734375 0 C-391.6030573433004 0, -391.6030373428509 0, -391.60297734375 0 M-391.60307734375 0 C-391.6030552085608 0, -391.60303307337165 0, -391.60297734375 0 M-391.60297734375 0 C-391.60297734375 7.622776141409123, -391.60297734375 15.245552282818245, -391.60297734375 35.046875 M-391.60297734375 0 C-391.60297734375 9.406432468588173, -391.60297734375 18.812864937176347, -391.60297734375 35.046875 M-391.60297734375 35.046875 C-391.60299891099766 35.046875, -391.6030204782453 35.046875, -391.60307734375 35.046875 M-391.60297734375 35.046875 C-391.6030149350083 35.046875, -391.6030525262666 35.046875, -391.60307734375 35.046875 M-391.60307734375 35.046875 C-391.60307734375 24.99510469462693, -391.60307734375 14.943334389253867, -391.60307734375 0 M-391.60307734375 35.046875 C-391.60307734375 22.298004076578945, -391.60307734375 9.54913315315789, -391.60307734375 0" stroke="#13540c" stroke-width="1.3" fill="none" stroke-dasharray="0 0"></path></g><g class="divider"><path d="M-521.49462890625 -0.00005 L-521.49462890625 0.00005 L521.49462890625 0.00005 L521.49462890625 -0.00005" stroke="none" stroke-width="0" fill="#cde498" fill-rule="evenodd"></path><path d="M-521.49462890625 -0.00005 C-521.49462890625 -0.000029999550441280008, -521.49462890625 -0.000009999100882560013, -521.49462890625 0.00005 M-521.49462890625 -0.00005 C-521.49462890625 -0.000027864810815081, -521.49462890625 -0.000005729621630161997, -521.49462890625 0.00005 M-521.49462890625 0.00005 C-294.642059876939 0.00005, -67.78949084762803 0.00005, 521.49462890625 0.00005 M-521.49462890625 0.00005 C-241.56073981981416 0.00005, 38.37314926662168 0.00005, 521.49462890625 0.00005 M521.49462890625 0.00005 C521.49462890625 0.000028432752350345253, 521.49462890625 0.000006865504700690504, 521.49462890625 -0.00005 M521.49462890625 0.00005 C521.49462890625 0.000012408741703256966, 521.49462890625 -0.00002518251659348607, 521.49462890625 -0.00005 M521.49462890625 -0.00005 C222.35559153122637 -0.00005, -76.78344584379727 -0.00005, -521.49462890625 -0.00005 M521.49462890625 -0.00005 C142.09031903935636 -0.00005, -237.31399082753728 -0.00005, -521.49462890625 -0.00005" stroke="#13540c" stroke-width="1.3" fill="none" stroke-dasharray="0 0"></path></g></g></g></g></g><defs><filter id="ref-ext-fixtures-demos-er-02-drop-shadow" height="130%" width="130%"><feDropShadow dx="4" dy="4" stdDeviation="0" flood-opacity="0.06" flood-color="#000000"></feDropShadow></filter></defs><defs><filter id="ref-ext-fixtures-demos-er-02-drop-shadow-small" height="150%" width="150%"><feDropShadow dx="2" dy="2" stdDeviation="0" flood-opacity="0.06" flood-color="#000000"></feDropShadow></filter></defs><linearGradient id="ref-ext-fixtures-demos-er-02-gradient" gradientUnits="objectBoundingBox" x1="0%" y1="0%" x2="100%" y2="0%"><stop offset="0%" stop-color="hsl(78.1578947368, 18.4615384615%, 64.5098039216%)" stop-opacity="1"></stop><stop offset="100%" stop-color="hsl(98.961038961, 60%, 74.9019607843%)" stop-opacity="1"></stop></linearGradient><text text-anchor="middle" x="188.384033203125" y="-25" class="erDiagramTitleText">This is a title</text></svg>